<svg width="17" height="17" viewBox="0 0 17 17" fill="none" xmlns="http://www.w3.org/2000/svg">
<g clip-path="url(#clip0_334_1991)">
<path d="M15.8815 2.91113H8.47041L0.289062 8.57334V13.2795H15.8815L16.4109 12.969V11.9859L16.0663 11.6583V10.7288L16.4109 10.4734V8.96097L16.101 8.66415V7.71328L16.4109 7.44847V5.93604L16.101 5.66203V4.8287L16.4109 4.4236V3.44049C16.4109 3.14812 16.1738 2.91113 15.8815 2.91113Z" fill="#E5646E"/>
<path d="M8.21094 4.42383H16.4054V5.9363H8.21094V4.42383Z" fill="#F2F2F6"/>
<path d="M8.20312 7.44873L8.4678 8.9612H16.4083V7.44873H8.20312Z" fill="#F2F2F6"/>
<path d="M0.529359 11.381V8.68555L0 8.961V10.4735L0.224359 10.6647V11.6583L0 11.9859V12.969C0 13.2614 0.237019 13.4984 0.529359 13.4984H15.8809C16.1732 13.4984 16.4103 13.2614 16.4103 12.969H2.11747C1.24038 12.969 0.529359 12.258 0.529359 11.381Z" fill="#DB4655"/>
<path d="M8.47281 2.91113H0.532364L0.195312 3.44049L0.532364 8.96097H8.47281V2.91113Z" fill="#5055A0"/>
<path d="M0.529359 2.91113C0.237019 2.91113 0 3.14812 0 3.44049V8.96097H0.529359V2.91113Z" fill="#3F3F8F"/>
<path d="M1.06237 4.09045C0.916314 4.09045 0.796875 3.97213 0.796875 3.82623C0.796875 3.68033 0.913754 3.56201 1.05981 3.56201H1.0624C1.20846 3.56201 1.32662 3.68033 1.32662 3.82623C1.32662 3.97213 1.2084 4.09045 1.06237 4.09045Z" fill="white"/>
<path d="M1.06237 6.20764C0.916314 6.20764 0.796875 6.08932 0.796875 5.94342C0.796875 5.79752 0.913754 5.6792 1.05981 5.6792H1.0624C1.20846 5.6792 1.32662 5.79752 1.32662 5.94342C1.32662 6.08932 1.2084 6.20764 1.06237 6.20764Z" fill="white"/>
<path d="M1.06237 8.32482C0.916314 8.32482 0.796875 8.2065 0.796875 8.0606C0.796875 7.91471 0.913754 7.79639 1.05981 7.79639H1.0624C1.20846 7.79639 1.32662 7.91471 1.32662 8.0606C1.32662 8.2065 1.2084 8.32482 1.06237 8.32482Z" fill="white"/>
<path d="M1.06237 5.14904C0.916314 5.14904 0.796875 5.03072 0.796875 4.88482C0.796875 4.73892 0.913754 4.62061 1.05981 4.62061H1.0624C1.20846 4.62061 1.32662 4.73892 1.32662 4.88482C1.32659 5.03072 1.2084 5.14904 1.06237 5.14904Z" fill="#F2F2F6"/>
<path d="M1.06237 7.26623C0.916314 7.26623 0.796875 7.14791 0.796875 7.00201C0.796875 6.85611 0.913754 6.73779 1.05981 6.73779H1.0624C1.20846 6.73779 1.32662 6.85611 1.32662 7.00201C1.32662 7.14791 1.2084 7.26623 1.06237 7.26623Z" fill="#F2F2F6"/>
<path d="M7.41394 4.09045C7.26788 4.09045 7.14844 3.97213 7.14844 3.82623C7.14844 3.68033 7.26532 3.56201 7.41138 3.56201H7.41397C7.56003 3.56201 7.67819 3.68033 7.67819 3.82623C7.67819 3.97213 7.55999 4.09045 7.41394 4.09045Z" fill="white"/>
<path d="M7.41394 6.20764C7.26788 6.20764 7.14844 6.08932 7.14844 5.94342C7.14844 5.79752 7.26532 5.6792 7.41138 5.6792H7.41397C7.56003 5.6792 7.67819 5.79752 7.67819 5.94342C7.67819 6.08932 7.55999 6.20764 7.41394 6.20764Z" fill="white"/>
<path d="M7.41394 8.32482C7.26788 8.32482 7.14844 8.2065 7.14844 8.0606C7.14844 7.91471 7.26532 7.79639 7.41138 7.79639H7.41397C7.56003 7.79639 7.67819 7.91471 7.67819 8.0606C7.67819 8.2065 7.55999 8.32482 7.41394 8.32482Z" fill="white"/>
<path d="M7.41394 5.14904C7.26788 5.14904 7.14844 5.03072 7.14844 4.88482C7.14844 4.73892 7.26532 4.62061 7.41138 4.62061H7.41397C7.56003 4.62061 7.67819 4.73892 7.67819 4.88482C7.67819 5.03072 7.55999 5.14904 7.41394 5.14904Z" fill="#F2F2F6"/>
<path d="M7.41394 7.26623C7.26788 7.26623 7.14844 7.14791 7.14844 7.00201C7.14844 6.85611 7.26532 6.73779 7.41138 6.73779H7.41397C7.56003 6.73779 7.67819 6.85611 7.67819 7.00201C7.67819 7.14791 7.55999 7.26623 7.41394 7.26623Z" fill="#F2F2F6"/>
<path d="M2.64831 4.09045C2.50225 4.09045 2.38281 3.97213 2.38281 3.82623C2.38281 3.68033 2.49969 3.56201 2.64575 3.56201H2.64834C2.7944 3.56201 2.91256 3.68033 2.91256 3.82623C2.91256 3.97213 2.79437 4.09045 2.64831 4.09045Z" fill="#F2F2F6"/>
<path d="M2.64831 6.20764C2.50225 6.20764 2.38281 6.08932 2.38281 5.94342C2.38281 5.79752 2.49969 5.6792 2.64575 5.6792H2.64834C2.7944 5.6792 2.91256 5.79752 2.91256 5.94342C2.91256 6.08932 2.79437 6.20764 2.64831 6.20764Z" fill="#F2F2F6"/>
<path d="M2.64831 8.32482C2.50225 8.32482 2.38281 8.2065 2.38281 8.0606C2.38281 7.91471 2.49969 7.79639 2.64575 7.79639H2.64834C2.7944 7.79639 2.91256 7.91471 2.91256 8.0606C2.91256 8.2065 2.79437 8.32482 2.64831 8.32482Z" fill="#F2F2F6"/>
<path d="M2.64831 5.14904C2.50225 5.14904 2.38281 5.03072 2.38281 4.88482C2.38281 4.73892 2.49969 4.62061 2.64575 4.62061H2.64834C2.7944 4.62061 2.91256 4.73892 2.91256 4.88482C2.91253 5.03072 2.79437 5.14904 2.64831 5.14904Z" fill="white"/>
<path d="M2.64831 7.26623C2.50225 7.26623 2.38281 7.14791 2.38281 7.00201C2.38281 6.85611 2.49969 6.73779 2.64575 6.73779H2.64834C2.7944 6.73779 2.91256 6.85611 2.91256 7.00201C2.91256 7.14791 2.79437 7.26623 2.64831 7.26623Z" fill="white"/>
<path d="M1.85925 4.61974C1.71319 4.61974 1.59375 4.50143 1.59375 4.35553C1.59375 4.20963 1.71063 4.09131 1.85669 4.09131H1.85928C2.00534 4.09131 2.1235 4.20963 2.1235 4.35553C2.12347 4.50146 2.00531 4.61974 1.85925 4.61974Z" fill="white"/>
<path d="M1.85925 6.73742C1.71319 6.73742 1.59375 6.6191 1.59375 6.4732C1.59375 6.3273 1.71063 6.20898 1.85669 6.20898H1.85928C2.00534 6.20898 2.1235 6.3273 2.1235 6.4732C2.1235 6.6191 2.00531 6.73742 1.85925 6.73742Z" fill="white"/>
<path d="M1.85925 5.67883C1.71319 5.67883 1.59375 5.56051 1.59375 5.41461C1.59375 5.26871 1.71063 5.15039 1.85669 5.15039H1.85928C2.00534 5.15039 2.1235 5.26871 2.1235 5.41461C2.1235 5.56051 2.00531 5.67883 1.85925 5.67883Z" fill="#F2F2F6"/>
<path d="M1.85925 7.79553C1.71319 7.79553 1.59375 7.67721 1.59375 7.53131C1.59375 7.38541 1.71063 7.26709 1.85669 7.26709H1.85928C2.00534 7.26709 2.1235 7.38541 2.1235 7.53131C2.1235 7.67721 2.00531 7.79553 1.85925 7.79553Z" fill="#F2F2F6"/>
<path d="M4.23425 4.09045C4.08819 4.09045 3.96875 3.97213 3.96875 3.82623C3.96875 3.68033 4.08563 3.56201 4.23169 3.56201H4.23428C4.38034 3.56201 4.4985 3.68033 4.4985 3.82623C4.4985 3.97213 4.38027 4.09045 4.23425 4.09045Z" fill="white"/>
<path d="M4.23425 6.20764C4.08819 6.20764 3.96875 6.08932 3.96875 5.94342C3.96875 5.79752 4.08563 5.6792 4.23169 5.6792H4.23428C4.38034 5.6792 4.4985 5.79752 4.4985 5.94342C4.4985 6.08932 4.38027 6.20764 4.23425 6.20764Z" fill="white"/>
<path d="M4.23425 8.32482C4.08819 8.32482 3.96875 8.2065 3.96875 8.0606C3.96875 7.91471 4.08563 7.79639 4.23169 7.79639H4.23428C4.38034 7.79639 4.4985 7.91471 4.4985 8.0606C4.4985 8.2065 4.38027 8.32482 4.23425 8.32482Z" fill="white"/>
<path d="M4.24206 5.14953C4.096 5.14953 3.97656 5.03121 3.97656 4.88531C3.97656 4.73941 4.09344 4.62109 4.2395 4.62109H4.24209C4.38815 4.62109 4.50631 4.73941 4.50631 4.88531C4.50628 5.03121 4.38809 5.14953 4.24206 5.14953Z" fill="#F2F2F6"/>
<path d="M4.24206 7.26672C4.096 7.26672 3.97656 7.1484 3.97656 7.0025C3.97656 6.8566 4.09344 6.73828 4.2395 6.73828H4.24209C4.38815 6.73828 4.50631 6.8566 4.50631 7.0025C4.50631 7.1484 4.38809 7.26672 4.24206 7.26672Z" fill="#F2F2F6"/>
<path d="M3.44519 4.61974C3.29913 4.61974 3.17969 4.50143 3.17969 4.35553C3.17969 4.20963 3.29657 4.09131 3.44263 4.09131H3.44522C3.59128 4.09131 3.70943 4.20963 3.70943 4.35553C3.70943 4.50146 3.59124 4.61974 3.44519 4.61974Z" fill="#F2F2F6"/>
<path d="M3.44519 6.73742C3.29913 6.73742 3.17969 6.6191 3.17969 6.4732C3.17969 6.3273 3.29657 6.20898 3.44263 6.20898H3.44522C3.59128 6.20898 3.70943 6.3273 3.70943 6.4732C3.70943 6.6191 3.59124 6.73742 3.44519 6.73742Z" fill="#F2F2F6"/>
<path d="M3.44519 5.67883C3.29913 5.67883 3.17969 5.56051 3.17969 5.41461C3.17969 5.26871 3.29657 5.15039 3.44263 5.15039H3.44522C3.59128 5.15039 3.70943 5.26871 3.70943 5.41461C3.70943 5.56051 3.59124 5.67883 3.44519 5.67883Z" fill="white"/>
<path d="M3.44519 7.79553C3.29913 7.79553 3.17969 7.67721 3.17969 7.53131C3.17969 7.38541 3.29657 7.26709 3.44263 7.26709H3.44522C3.59128 7.26709 3.70943 7.38541 3.70943 7.53131C3.70943 7.67721 3.59124 7.79553 3.44519 7.79553Z" fill="white"/>
<path d="M5.828 4.09045C5.68194 4.09045 5.5625 3.97213 5.5625 3.82623C5.5625 3.68033 5.67938 3.56201 5.82544 3.56201H5.82803C5.97409 3.56201 6.09225 3.68033 6.09225 3.82623C6.09225 3.97213 5.97406 4.09045 5.828 4.09045Z" fill="#F2F2F6"/>
<path d="M5.828 6.20764C5.68194 6.20764 5.5625 6.08932 5.5625 5.94342C5.5625 5.79752 5.67938 5.6792 5.82544 5.6792H5.82803C5.97409 5.6792 6.09225 5.79752 6.09225 5.94342C6.09225 6.08932 5.97406 6.20764 5.828 6.20764Z" fill="#F2F2F6"/>
<path d="M5.828 8.32482C5.68194 8.32482 5.5625 8.2065 5.5625 8.0606C5.5625 7.91471 5.67938 7.79639 5.82544 7.79639H5.82803C5.97409 7.79639 6.09225 7.91471 6.09225 8.0606C6.09225 8.2065 5.97406 8.32482 5.828 8.32482Z" fill="#F2F2F6"/>
<path d="M5.828 5.14904C5.68194 5.14904 5.5625 5.03072 5.5625 4.88482C5.5625 4.73892 5.67938 4.62061 5.82544 4.62061H5.82803C5.97409 4.62061 6.09225 4.73892 6.09225 4.88482C6.09222 5.03072 5.97406 5.14904 5.828 5.14904Z" fill="white"/>
<path d="M5.828 7.26623C5.68194 7.26623 5.5625 7.14791 5.5625 7.00201C5.5625 6.85611 5.67938 6.73779 5.82544 6.73779H5.82803C5.97409 6.73779 6.09225 6.85611 6.09225 7.00201C6.09225 7.14791 5.97406 7.26623 5.828 7.26623Z" fill="white"/>
<path d="M5.03112 4.61974C4.88506 4.61974 4.76562 4.50143 4.76562 4.35553C4.76562 4.20963 4.8825 4.09131 5.02856 4.09131H5.03115C5.17721 4.09131 5.29537 4.20963 5.29537 4.35553C5.29534 4.50146 5.17718 4.61974 5.03112 4.61974Z" fill="white"/>
<path d="M5.03112 6.73742C4.88506 6.73742 4.76562 6.6191 4.76562 6.4732C4.76562 6.3273 4.8825 6.20898 5.02856 6.20898H5.03115C5.17721 6.20898 5.29537 6.3273 5.29537 6.4732C5.29537 6.6191 5.17718 6.73742 5.03112 6.73742Z" fill="white"/>
<path d="M5.03112 5.67883C4.88506 5.67883 4.76562 5.56051 4.76562 5.41461C4.76562 5.26871 4.8825 5.15039 5.02856 5.15039H5.03115C5.17721 5.15039 5.29537 5.26871 5.29537 5.41461C5.29537 5.56051 5.17718 5.67883 5.03112 5.67883Z" fill="#F2F2F6"/>
<path d="M5.03112 7.79553C4.88506 7.79553 4.76562 7.67721 4.76562 7.53131C4.76562 7.38541 4.8825 7.26709 5.02856 7.26709H5.03115C5.17721 7.26709 5.29537 7.38541 5.29537 7.53131C5.29537 7.67721 5.17718 7.79553 5.03112 7.79553Z" fill="#F2F2F6"/>
<path d="M6.61706 4.61974C6.471 4.61974 6.35156 4.50143 6.35156 4.35553C6.35156 4.20963 6.46844 4.09131 6.6145 4.09131H6.61709C6.76315 4.09131 6.88131 4.20963 6.88131 4.35553C6.88128 4.50146 6.76312 4.61974 6.61706 4.61974Z" fill="#F2F2F6"/>
<path d="M6.61706 6.73742C6.471 6.73742 6.35156 6.6191 6.35156 6.4732C6.35156 6.3273 6.46844 6.20898 6.6145 6.20898H6.61709C6.76315 6.20898 6.88131 6.3273 6.88131 6.4732C6.88131 6.6191 6.76312 6.73742 6.61706 6.73742Z" fill="#F2F2F6"/>
<path d="M6.61706 5.67883C6.471 5.67883 6.35156 5.56051 6.35156 5.41461C6.35156 5.26871 6.46844 5.15039 6.6145 5.15039H6.61709C6.76315 5.15039 6.88131 5.26871 6.88131 5.41461C6.88131 5.56051 6.76312 5.67883 6.61706 5.67883Z" fill="white"/>
<path d="M6.61706 7.79553C6.471 7.79553 6.35156 7.67721 6.35156 7.53131C6.35156 7.38541 6.46844 7.26709 6.6145 7.26709H6.61709C6.76315 7.26709 6.88131 7.38541 6.88131 7.53131C6.88131 7.67721 6.76312 7.79553 6.61706 7.79553Z" fill="white"/>
<path d="M0.09375 11.549L0.646955 11.9861H16.4079V10.4736H0.526955L0.09375 11.549Z" fill="#F2F2F6"/>
<path d="M0 10.4737V11.9857H0.64917C0.572237 11.7992 0.529237 11.5951 0.529237 11.3809V10.4736L0 10.4737Z" fill="#E1E1E6"/>
</g>
<defs>
<clipPath id="clip0_334_1991">
<rect width="16.4103" height="16.4103" fill="white"/>
</clipPath>
</defs>
</svg>
