<svg width="36" height="36" viewBox="0 0 36 36" fill="none" xmlns="http://www.w3.org/2000/svg">
<path d="M17.8063 34.5194C27.0278 34.5194 34.5033 27.0439 34.5033 17.8224C34.5033 8.60097 27.0278 1.12549 17.8063 1.12549C8.58485 1.12549 1.10938 8.60097 1.10938 17.8224C1.10938 27.0439 8.58485 34.5194 17.8063 34.5194Z" fill="#ED4C5C"/>
<path d="M12.2432 15.8193L16.6957 18.9361L15.026 13.8157L19.4785 10.5876H13.9685L12.2432 5.57854L10.5735 10.5876H5.00781L9.46033 13.8157L7.79064 18.9361L12.2432 15.8193ZM19.6455 19.6596L18.3654 19.9379L19.5898 20.4388V21.7189L20.4247 20.7728L21.6491 21.218L20.9256 20.1605L21.7048 19.1587L20.4247 19.437L19.6455 18.3795V19.6596ZM21.5378 15.875L20.5916 16.7098L21.8717 16.5985L22.4283 17.823L22.6509 16.5429L23.931 16.4316L22.8179 15.7637L23.0962 14.4836L22.15 15.3184L21.0369 14.6505L21.5378 15.875ZM21.8717 11.5338L22.2613 12.8139L22.6509 11.5894H23.931L22.9292 10.8102L23.3188 9.53015L22.2613 10.3093L21.2595 9.47449L21.6491 10.7546L20.5916 11.4781L21.8717 11.5338ZM19.6455 7.08126V8.36136L20.4247 7.30389L21.7048 7.58217L20.9256 6.58035L21.6491 5.52288L20.4247 6.02379L19.5898 5.02197V6.30207L18.3654 6.80298L19.6455 7.08126Z" fill="#FFE62E"/>
</svg>
