<svg width="35" height="35" viewBox="0 0 35 35" fill="none" xmlns="http://www.w3.org/2000/svg">
<path d="M17.4453 1.92285C10.3359 1.92285 4.26562 6.38535 2.02344 12.5479H32.9766C30.6797 6.38535 24.6094 1.92285 17.4453 1.92285Z" fill="#F9F9F9"/>
<path d="M17.4453 33.7979C24.6094 33.7979 30.6797 29.3354 32.9219 23.1729H2.02344C4.26562 29.3885 10.3359 33.7979 17.4453 33.7979Z" fill="#ED4C5C"/>
<path d="M2.02344 12.5479C1.42188 14.1947 1.09375 16.001 1.09375 17.8604C1.09375 19.7197 1.42188 21.526 2.02344 23.1729H32.9766C33.5781 21.526 33.9062 19.7197 33.9062 17.8604C33.9062 16.001 33.5781 14.1947 32.9766 12.5479H2.02344Z" fill="#428BC1"/>
</svg>
