<svg width="36" height="37" viewBox="0 0 36 37" fill="none" xmlns="http://www.w3.org/2000/svg">
<path d="M1.05469 18.4427C1.05469 25.7337 5.72983 31.9116 12.186 34.1935V2.69189C5.72983 4.97381 1.05469 11.1517 1.05469 18.4427Z" fill="#428BC1"/>
<path d="M34.4516 18.4427C34.4516 11.1517 29.8321 4.97381 23.3203 2.69189V34.1935C29.8321 31.9116 34.4516 25.7337 34.4516 18.4427Z" fill="#ED4C5C"/>
<path d="M12.1875 34.1933C13.9129 34.8056 15.8052 35.1395 17.7531 35.1395C19.7011 35.1395 21.5934 34.8056 23.3188 34.1933V2.69177C21.5934 2.07954 19.7568 1.74561 17.7531 1.74561C15.7495 1.74561 13.9129 2.07954 12.1875 2.69177V34.1933Z" fill="white"/>
</svg>
