<svg width="36" height="37" viewBox="0 0 36 37" fill="none" xmlns="http://www.w3.org/2000/svg">
<path d="M17.8063 35.2791C27.0278 35.2791 34.5033 27.8037 34.5033 18.5822C34.5033 9.36073 27.0278 1.88525 17.8063 1.88525C8.58485 1.88525 1.10938 9.36073 1.10938 18.5822C1.10938 27.8037 8.58485 35.2791 17.8063 35.2791Z" fill="#ED4C5C"/>
<path d="M22.9889 22.4784L23.0445 19.473L20.0391 18.5825L23.0445 17.692L22.9889 14.6865L24.8255 17.0798L27.831 16.1892L25.9943 18.5825L27.831 20.9757L24.8255 20.0852L22.9889 22.4784Z" fill="white"/>
<path d="M18.4829 25.2616C14.8096 25.2616 11.8598 22.2562 11.8598 18.5828C11.8598 14.9095 14.8096 11.9041 18.4829 11.9041C19.8743 11.9041 21.1544 12.3493 22.2676 13.0729C20.7648 11.3475 18.5386 10.2344 16.034 10.2344C11.4702 10.2344 7.79688 13.9634 7.79688 18.5828C7.79688 23.2023 11.4702 26.9313 16.034 26.9313C18.5386 26.9313 20.7648 25.8182 22.2676 24.0928C21.2101 24.8164 19.93 25.2616 18.4829 25.2616Z" fill="white"/>
</svg>
