<svg width="35" height="36" viewBox="0 0 35 36" fill="none" xmlns="http://www.w3.org/2000/svg">
<path d="M33.7422 16.1729C33.6875 15.626 33.5781 15.0791 33.4688 14.5322H1.53125C1.42188 15.0791 1.3125 15.626 1.25781 16.1729H33.7422ZM1.25781 20.5479C1.3125 21.0947 1.42188 21.6416 1.53125 22.1885H33.4141C33.5234 21.6416 33.6328 21.0947 33.6875 20.5479H1.25781Z" fill="white"/>
<path d="M10.9375 3.32129C10.3906 3.54004 9.84375 3.86816 9.29688 4.1416V32.5791C9.84375 32.9072 10.3906 33.1807 10.9375 33.3994V3.32129ZM15.3125 2.11816V34.6572L16.9531 34.8213V1.9541C16.4062 1.9541 15.8594 2.00879 15.3125 2.11816Z" fill="white"/>
<path d="M1.09375 18.3604C1.09375 19.126 1.14844 19.8369 1.25781 20.5479H33.7969C33.9062 19.8369 33.9609 19.126 33.9609 18.3604C33.9609 17.5947 33.9062 16.8838 33.7969 16.1729H1.25781C1.14844 16.8838 1.09375 17.5947 1.09375 18.3604Z" fill="#428BC1"/>
<path d="M10.9375 33.3994C12.3047 34.001 13.7812 34.4385 15.3125 34.6025V2.11816C13.7812 2.33691 12.3047 2.71973 10.9375 3.32129V33.3994Z" fill="#428BC1"/>
<path d="M9.29688 14.5322V4.1416C5.46875 6.38379 2.625 10.1025 1.53125 14.5322H9.29688ZM9.29688 22.1885V32.5791C5.46875 30.3369 2.625 26.6182 1.53125 22.1885H9.29688ZM17.5 1.9541H16.9531V14.5322H33.4688C31.7188 7.31348 25.2656 1.9541 17.5 1.9541ZM16.9531 22.1885V34.7666H17.5C25.2656 34.7666 31.7188 29.4072 33.4688 22.1885H16.9531Z" fill="#ED4C5C"/>
</svg>
