<svg width="151" height="29" viewBox="0 0 151 29" fill="none" xmlns="http://www.w3.org/2000/svg">
  <path
    d="M23.5796 0H4.53453C2.03018 0 0 2.03018 0 4.53453V23.5796C0 26.0839 2.03018 28.1141 4.53453 28.1141H23.5796C26.0839 28.1141 28.1141 26.0839 28.1141 23.5796V4.53453C28.1141 2.03018 26.0839 0 23.5796 0Z"
    fill="white" />
  <path
    d="M16.5788 11.1853C17.001 11.1853 17.3478 10.8419 17.2994 10.4225C17.1282 8.93943 16.4614 7.54862 15.3953 6.4825C14.1481 5.23524 12.4564 4.53454 10.6925 4.53454C8.9286 4.53454 7.23695 5.23524 5.98968 6.4825C4.92356 7.54862 4.25676 8.93943 4.08558 10.4225C4.03715 10.8419 4.38395 11.1853 4.80616 11.1853H16.5788Z"
    fill="#03071E" />
  <path
    d="M14.401 16.2836C14.1899 16.6492 14.314 17.1213 14.7015 17.289C16.0716 17.882 17.6095 17.9997 19.0657 17.6092C20.7694 17.1524 22.2219 16.0374 23.1036 14.5097C23.9854 12.982 24.2239 11.1666 23.7672 9.46285C23.3766 8.00658 22.5054 6.73388 21.3064 5.84429C20.9674 5.59272 20.4966 5.72143 20.2855 6.08709L14.401 16.2836Z"
    fill="#03071E" />
  <path
    d="M11.0985 11.8205C10.8875 11.4549 10.4167 11.3262 10.0777 11.5777C8.87874 12.4673 8.00743 13.74 7.61696 15.1963C7.16013 16.9 7.3988 18.7154 8.28047 20.2432C9.16217 21.7709 10.6146 22.8858 12.3183 23.3427C13.7746 23.7331 15.3125 23.6154 16.6826 23.0225C17.07 22.8547 17.1941 22.3827 16.9831 22.017L11.0985 11.8205Z"
    fill="#03071E" />
  <path
    d="M33.7822 26.3987V7.18883H35.735C35.735 7.39254 35.7484 7.63609 35.7749 7.9195C35.8015 8.20291 35.8325 8.45532 35.8679 8.67672C35.9212 9.03098 36.0361 9.20812 36.2134 9.20812C36.364 9.20812 36.541 9.08412 36.7446 8.83615C37.2938 8.17191 37.9581 7.66266 38.7373 7.3084C39.5257 6.94528 40.4423 6.76371 41.4873 6.76371C42.7806 6.76371 43.9407 7.07369 44.968 7.69366C46.0042 8.31362 46.8235 9.16384 47.4257 10.2443C48.0279 11.3248 48.329 12.5559 48.329 13.9375C48.329 15.3191 48.0279 16.5502 47.4257 17.6307C46.8235 18.7111 45.9998 19.5614 44.9546 20.1813C43.9097 20.8013 42.723 21.1113 41.3944 21.1113C40.4289 21.1113 39.5699 20.9386 38.8171 20.5932C38.0644 20.2478 37.4355 19.8049 36.9308 19.2647C36.8156 19.1495 36.7181 19.092 36.6385 19.092C36.4791 19.092 36.3993 19.2248 36.3993 19.4905V26.3987H33.7822ZM40.9692 18.8528C41.8816 18.8528 42.6874 18.6447 43.3871 18.2285C44.0867 17.8122 44.6316 17.2365 45.0211 16.5014C45.4197 15.7575 45.6189 14.9029 45.6189 13.9375C45.6189 12.9721 45.4197 12.1219 45.0211 11.3868C44.6316 10.6429 44.0867 10.0628 43.3871 9.64652C42.6874 9.23025 41.8816 9.02214 40.9692 9.02214C40.2961 9.02214 39.6807 9.13727 39.1228 9.36753C38.5736 9.5978 38.0953 9.91664 37.688 10.324C37.2539 10.758 36.9174 11.285 36.6782 11.9049C36.4392 12.516 36.3195 13.1935 36.3195 13.9375C36.3195 14.6814 36.4392 15.3634 36.6782 15.9834C36.9174 16.5944 37.2539 17.117 37.688 17.551C38.0953 17.9583 38.5736 18.2772 39.1228 18.5075C39.6807 18.7377 40.2961 18.8528 40.9692 18.8528Z"
    fill="white" />
  <path
    d="M50.5083 20.6862V7.18883H52.3416C52.3505 7.36597 52.3636 7.60065 52.3815 7.89293C52.408 8.17634 52.4523 8.40218 52.5144 8.57046C52.5851 8.77415 52.6958 8.87599 52.8463 8.87599C52.9438 8.87599 53.0501 8.79185 53.1653 8.6236C53.4752 8.12763 53.9047 7.73352 54.4538 7.44124C55.0029 7.14897 55.6539 7.00284 56.4066 7.00284C56.8496 7.00284 57.2126 7.03384 57.496 7.09585V9.42068C57.0355 9.33212 56.6016 9.28782 56.1942 9.28782C55.2022 9.28782 54.4538 9.55352 53.9491 10.0849C53.6569 10.3949 53.4442 10.7934 53.3113 11.2805C53.1873 11.7588 53.1254 12.3123 53.1254 12.9411V20.6862H50.5083Z"
    fill="white" />
  <path
    d="M65.0291 21.1113C63.6209 21.1113 62.3854 20.8146 61.3228 20.2212C60.2599 19.6189 59.4319 18.7776 58.8383 17.6971C58.2538 16.6166 57.9615 15.359 57.9615 13.9242C57.9615 12.4806 58.2672 11.223 58.8782 10.1513C59.4983 9.0797 60.3397 8.24719 61.4024 7.6538C62.4741 7.06041 63.683 6.76371 65.0291 6.76371C66.3577 6.76371 67.5267 7.05156 68.5363 7.62722C69.5548 8.20291 70.3474 8.99999 70.9142 10.0185C71.4899 11.0281 71.7778 12.1972 71.7778 13.5257C71.7778 13.7205 71.769 13.9552 71.7513 14.2298C71.7425 14.4955 71.7291 14.6991 71.7114 14.8409H60.6451C60.7337 16.0719 61.172 17.0594 61.9603 17.8034C62.7575 18.5473 63.7891 18.9193 65.0556 18.9193C66.0298 18.9193 66.8624 18.7067 67.5532 18.2816C68.2529 17.8477 68.7134 17.272 68.9349 16.5546H71.5651C71.2375 17.9539 70.4848 19.0654 69.3067 19.8891C68.1289 20.7039 66.703 21.1113 65.0291 21.1113ZM60.6585 12.795H69.2138C69.1696 11.6437 68.7621 10.7093 67.9917 9.99192C67.2211 9.26569 66.2248 8.90256 65.0025 8.90256C63.7979 8.90256 62.806 9.26127 62.0268 9.97863C61.2563 10.696 60.8002 11.6348 60.6585 12.795Z"
    fill="white" />
  <path
    d="M78.766 21.1113C77.0834 21.1113 75.7283 20.7216 74.701 19.9422C73.6737 19.154 73.0493 18.0735 72.8278 16.7007H75.4582C75.5823 17.4181 75.9276 17.9849 76.4944 18.4012C77.07 18.8174 77.845 19.0256 78.8192 19.0256C79.7048 19.0256 80.4045 18.8528 80.9183 18.5075C81.4318 18.1621 81.6887 17.6927 81.6887 17.0993C81.6887 16.5059 81.4629 16.0542 81.0112 15.7442C80.5684 15.4342 79.7137 15.1685 78.4472 14.9471C76.6495 14.6283 75.3651 14.1368 74.5946 13.4725C73.8331 12.7994 73.4522 11.9138 73.4522 10.8156C73.4522 9.51366 73.9215 8.51289 74.8604 7.81321C75.8081 7.11355 77.0478 6.76371 78.58 6.76371C80.1742 6.76371 81.4275 7.13126 82.3396 7.86635C83.252 8.59258 83.792 9.63323 83.9605 10.9883H81.423C81.2724 10.2532 80.9713 9.70851 80.5197 9.35425C80.0769 8.99999 79.4348 8.82287 78.5934 8.82287C77.7874 8.82287 77.1542 8.98228 76.6937 9.3011C76.2332 9.61108 76.0028 10.0406 76.0028 10.5897C76.0028 11.1831 76.2244 11.6348 76.6672 11.9448C77.1188 12.2459 77.9114 12.4894 79.0451 12.6754C80.9759 13.0031 82.3219 13.5035 83.0835 14.1766C83.8542 14.8409 84.2394 15.7132 84.2394 16.7937C84.2394 18.1488 83.7347 19.2071 82.7248 19.9688C81.7241 20.7304 80.4045 21.1113 78.766 21.1113Z"
    fill="white" />
  <path
    d="M90.537 21.1113C89.0667 21.1113 87.8623 20.7349 86.9235 19.9821C85.9848 19.2204 85.5153 18.1443 85.5153 16.7539C85.5153 14.2475 87.3044 12.888 90.8823 12.6754C91.8654 12.6134 92.7113 12.5426 93.4199 12.4629C94.1372 12.3743 94.6775 12.2769 95.0405 12.1706C95.0228 11.099 94.7394 10.2886 94.1903 9.7395C93.65 9.18155 92.8796 8.90256 91.8788 8.90256C90.9844 8.90256 90.2536 9.1107 89.6868 9.52694C89.1288 9.94322 88.7568 10.5012 88.5709 11.2008H85.9272C86.2106 9.87236 86.8704 8.80072 87.9065 7.98593C88.9429 7.17112 90.2847 6.76371 91.9319 6.76371C93.7917 6.76371 95.1999 7.25526 96.1564 8.23832C97.113 9.22141 97.5912 10.6296 97.5912 12.4629V20.6862H95.6914C95.6472 19.9156 95.5808 19.3975 95.4921 19.1318C95.4214 18.9281 95.3151 18.8263 95.1734 18.8263C95.0228 18.8263 94.85 18.9636 94.6553 19.2381C93.7697 20.4869 92.3969 21.1113 90.537 21.1113ZM95.0405 14.0305C94.6952 14.1545 94.1948 14.2563 93.5393 14.336C92.8927 14.4157 92.0869 14.4999 91.1215 14.5885C90.0498 14.677 89.2794 14.894 88.81 15.2394C88.3493 15.5759 88.1192 16.0675 88.1192 16.714C88.1192 17.4757 88.3892 18.0558 88.9295 18.4543C89.4698 18.844 90.1783 19.0389 91.0551 19.0389C91.7548 19.0389 92.4102 18.8972 93.0213 18.6137C93.6323 18.3215 94.1195 17.7989 94.4825 17.0461C94.6596 16.6653 94.797 16.2402 94.8945 15.7708C94.9918 15.3014 95.0405 14.7567 95.0405 14.1368V14.0305Z"
    fill="white" />
  <path d="M100.567 20.6862V1.47638H103.198V20.6862H100.567Z" fill="white" />
  <path
    d="M112.484 21.1113C111.076 21.1113 109.841 20.8146 108.778 20.2212C107.715 19.6189 106.887 18.7776 106.294 17.6971C105.709 16.6166 105.417 15.359 105.417 13.9242C105.417 12.4806 105.722 11.223 106.334 10.1513C106.954 9.0797 107.795 8.24719 108.858 7.6538C109.929 7.06041 111.138 6.76371 112.484 6.76371C113.813 6.76371 114.982 7.05156 115.992 7.62722C117.01 8.20291 117.803 8.99999 118.369 10.0185C118.945 11.0281 119.233 12.1972 119.233 13.5257C119.233 13.7205 119.224 13.9552 119.207 14.2298C119.198 14.4955 119.184 14.6991 119.167 14.8409H108.101C108.189 16.0719 108.627 17.0594 109.416 17.8034C110.213 18.5473 111.245 18.9193 112.511 18.9193C113.485 18.9193 114.318 18.7067 115.008 18.2816C115.708 17.8477 116.169 17.272 116.39 16.5546H119.021C118.693 17.9539 117.94 19.0654 116.762 19.8891C115.584 20.7039 114.158 21.1113 112.484 21.1113ZM108.114 12.795H116.669C116.625 11.6437 116.217 10.7093 115.447 9.99192C114.676 9.26569 113.68 8.90256 112.458 8.90256C111.253 8.90256 110.261 9.26127 109.482 9.97863C108.712 10.696 108.255 11.6348 108.114 12.795Z"
    fill="white" />
  <path
    d="M127.962 26.6377C126.695 26.6377 125.579 26.4207 124.614 25.9867C123.657 25.5528 122.874 24.9594 122.263 24.2067C121.66 23.4537 121.253 22.5992 121.04 21.6427H123.684C123.932 22.5195 124.441 23.2059 125.212 23.7018C125.982 24.2067 126.912 24.4591 128.001 24.4591C129.33 24.4591 130.344 24.1181 131.044 23.4361C131.743 22.7541 132.093 21.7711 132.093 20.4869V18.8661C132.093 18.627 132.014 18.5075 131.854 18.5075C131.766 18.5075 131.659 18.5783 131.535 18.72C130.499 19.8448 129.073 20.4072 127.258 20.4072C125.965 20.4072 124.813 20.1149 123.804 19.5304C122.794 18.9459 121.997 18.1443 121.412 17.1259C120.837 16.1073 120.549 14.9471 120.549 13.6452C120.549 12.2813 120.841 11.0857 121.425 10.0583C122.019 9.02214 122.812 8.21619 123.804 7.64051C124.804 7.05599 125.911 6.76371 127.125 6.76371C128.117 6.76371 128.98 6.93643 129.715 7.28183C130.45 7.61838 131.11 8.10106 131.695 8.72986C131.925 8.96899 132.102 9.08855 132.226 9.08855C132.403 9.08855 132.518 8.91585 132.572 8.57045C132.598 8.40218 132.625 8.16747 132.651 7.86635C132.687 7.56524 132.704 7.33939 132.704 7.18883H134.657V20.4337C134.657 22.3733 134.051 23.8922 132.837 24.9905C131.624 26.0885 129.999 26.6377 127.962 26.6377ZM127.709 18.2418C128.976 18.2418 130.012 17.8477 130.818 17.0594C131.243 16.652 131.571 16.156 131.801 15.5715C132.04 14.987 132.16 14.3449 132.16 13.6452C132.16 12.9367 132.04 12.2902 131.801 11.7057C131.571 11.1211 131.243 10.6252 130.818 10.2178C130.437 9.84579 129.981 9.55794 129.45 9.35425C128.927 9.14169 128.347 9.03542 127.709 9.03542C126.832 9.03542 126.057 9.23025 125.384 9.61995C124.711 10.0096 124.184 10.5499 123.804 11.2407C123.432 11.9315 123.246 12.733 123.246 13.6452C123.246 14.5397 123.432 15.3368 123.804 16.0365C124.184 16.7273 124.711 17.2676 125.384 17.6572C126.057 18.0469 126.832 18.2418 127.709 18.2418Z"
    fill="white" />
  <path
    d="M144.263 26.6377C142.996 26.6377 141.88 26.4207 140.915 25.9867C139.958 25.5528 139.175 24.9594 138.564 24.2067C137.961 23.4537 137.554 22.5992 137.341 21.6427H139.985C140.233 22.5195 140.742 23.2059 141.513 23.7018C142.283 24.2067 143.213 24.4591 144.302 24.4591C145.631 24.4591 146.645 24.1181 147.345 23.4361C148.044 22.7541 148.394 21.7711 148.394 20.4869V18.8661C148.394 18.627 148.314 18.5075 148.155 18.5075C148.067 18.5075 147.96 18.5783 147.836 18.72C146.8 19.8448 145.374 20.4072 143.559 20.4072C142.266 20.4072 141.114 20.1149 140.105 19.5304C139.095 18.9459 138.298 18.1443 137.713 17.1259C137.138 16.1073 136.85 14.9471 136.85 13.6452C136.85 12.2813 137.142 11.0857 137.726 10.0583C138.32 9.02214 139.113 8.21619 140.105 7.64051C141.105 7.05599 142.212 6.76371 143.426 6.76371C144.418 6.76371 145.281 6.93643 146.016 7.28183C146.751 7.61838 147.411 8.10106 147.996 8.72986C148.226 8.96899 148.403 9.08855 148.527 9.08855C148.704 9.08855 148.819 8.91585 148.872 8.57045C148.899 8.40218 148.926 8.16747 148.952 7.86635C148.988 7.56524 149.005 7.33939 149.005 7.18883H150.958V20.4337C150.958 22.3733 150.352 23.8922 149.138 24.9905C147.925 26.0885 146.3 26.6377 144.263 26.6377ZM144.01 18.2418C145.277 18.2418 146.313 17.8477 147.119 17.0594C147.544 16.652 147.872 16.156 148.102 15.5715C148.341 14.987 148.461 14.3449 148.461 13.6452C148.461 12.9367 148.341 12.2902 148.102 11.7057C147.872 11.1211 147.544 10.6252 147.119 10.2178C146.738 9.84579 146.282 9.55794 145.751 9.35425C145.228 9.14169 144.648 9.03542 144.01 9.03542C143.133 9.03542 142.359 9.23025 141.685 9.61995C141.012 10.0096 140.485 10.5499 140.105 11.2407C139.733 11.9315 139.547 12.733 139.547 13.6452C139.547 14.5397 139.733 15.3368 140.105 16.0365C140.485 16.7273 141.012 17.2676 141.685 17.6572C142.359 18.0469 143.133 18.2418 144.01 18.2418Z"
    fill="white" />
</svg>