<svg width="19" height="18" viewBox="0 0 19 18" fill="none" xmlns="http://www.w3.org/2000/svg">
<path d="M4.025 10.275H3.35C2.99196 10.275 2.64858 10.1328 2.39541 9.87959C2.14223 9.62642 2 9.28304 2 8.925V2.85C2 2.49196 2.14223 2.14858 2.39541 1.89541C2.64858 1.64223 2.99196 1.5 3.35 1.5H9.425C9.78304 1.5 10.1264 1.64223 10.3796 1.89541C10.6328 2.14858 10.775 2.49196 10.775 2.85V3.525" stroke="black" stroke-width="1.5" stroke-linecap="round" stroke-linejoin="round"/>
<path d="M14.1506 6.2251H8.07559C7.33 6.2251 6.72559 6.82951 6.72559 7.5751V13.6501C6.72559 14.3957 7.33 15.0001 8.07559 15.0001H14.1506C14.8962 15.0001 15.5006 14.3957 15.5006 13.6501V7.5751C15.5006 6.82951 14.8962 6.2251 14.1506 6.2251Z" stroke="black" stroke-width="1.5" stroke-linecap="round" stroke-linejoin="round"/>
</svg>
