<svg width="215" height="88" viewBox="0 0 215 88" fill="none" xmlns="http://www.w3.org/2000/svg">
<g clip-path="url(#clip0_227_1844)" filter="url(#filter0_f_227_1844)">
<path d="M37.7663 41.4513L43.9685 35.2494L50.1739 41.4546L53.7828 37.8458L43.9685 28.0312L34.1575 37.8425L37.7663 41.4513ZM31.6088 40.3904L35.2177 43.999L31.6088 47.6081L28 43.9992L31.6088 40.3904ZM37.7663 46.5479L43.9685 52.7498L50.1737 46.5449L53.7845 50.1517L53.7828 50.1537L43.9685 59.968L34.1573 50.157L34.1522 50.1519L37.7663 46.5479ZM59.9372 44.0008L56.3286 47.6096L52.7196 44.001L56.3284 40.3919L59.9372 44.0008Z" fill="#F3BA2F"/>
<path d="M47.6291 43.9977H47.6306L43.9685 40.3357L41.2622 43.042L40.9512 43.353L40.3097 43.9945L40.3047 43.9995L40.3097 44.0048L43.9685 47.6636L47.6306 44.0015L47.6323 43.9995L47.6291 43.9977ZM65.5633 35.7698H73.4123C75.3604 35.7698 76.8335 36.2698 77.8319 37.2697C78.6045 38.044 78.9907 39.0038 78.9907 40.1488V40.1972C78.9907 40.681 78.9309 41.1085 78.8106 41.4793C78.698 41.8348 78.5361 42.1728 78.3296 42.4833C78.1345 42.7762 77.9 43.0407 77.6326 43.2695C77.3705 43.494 77.0843 43.6887 76.7793 43.8502C77.7585 44.2215 78.5293 44.7252 79.0913 45.3624C79.6531 45.9998 79.9343 46.8829 79.9343 48.0117V48.0599C79.9343 48.8342 79.7855 49.5115 79.4876 50.0924C79.1897 50.6728 78.7629 51.1569 78.2072 51.5441C77.6515 51.9313 76.9833 52.2214 76.2024 52.4151C75.4214 52.6086 74.556 52.7052 73.6063 52.7052H65.5633V35.7698ZM72.6276 42.6165C73.4504 42.6165 74.1037 42.4757 74.5873 42.1932C75.0711 41.9109 75.313 41.4551 75.313 40.8263V40.7779C75.313 40.2136 75.1031 39.7823 74.6839 39.4836C74.2644 39.1852 73.6595 39.0359 72.8695 39.0359H69.1921V42.6165H72.6276ZM73.6197 49.4394C74.4422 49.4394 75.087 49.2906 75.5551 48.9919C76.0228 48.6935 76.2569 48.2296 76.2569 47.6005V47.5523C76.2569 46.9878 76.0389 46.5403 75.6036 46.2094C75.1679 45.8792 74.4665 45.7137 73.4986 45.7137H69.1921V49.4396L73.6197 49.4394ZM84.6089 35.7698H88.335V52.7057H84.6089V35.7698ZM93.9785 35.7698H97.4135L105.349 46.1975V35.7698H109.027V52.7057H105.858L97.6557 41.9394V52.7057H93.9785V35.7698ZM120.307 35.649H123.742L131.001 52.7057H127.106L125.557 48.9074H118.396L116.847 52.7057H113.048L120.307 35.649ZM124.226 45.6166L121.976 40.1248L119.727 45.6166H124.226ZM135.023 35.7698H138.459L146.394 46.1975V35.7698H150.071V52.7057H146.902L138.7 41.9394V52.7057H135.023V35.7698ZM163.481 52.9957C162.238 52.9957 161.085 52.7697 160.021 52.3185C158.956 51.8672 158.037 51.25 157.263 50.4675C156.488 49.6853 155.883 48.7618 155.448 47.6974C155.013 46.6327 154.795 45.4956 154.795 44.2858V44.2376C154.795 43.0279 155.013 41.895 155.448 40.8384C155.883 39.782 156.488 38.8545 157.263 38.0562C158.037 37.2578 158.964 36.6285 160.045 36.1689C161.125 35.7093 162.319 35.4795 163.626 35.4795C164.416 35.4795 165.137 35.5443 165.791 35.673C166.444 35.8024 167.036 35.9794 167.569 36.2052C168.09 36.4247 168.585 36.7006 169.045 37.0278C169.493 37.3477 169.913 37.7038 170.303 38.0925L167.932 40.8263C167.27 40.2297 166.597 39.7616 165.912 39.4231C165.226 39.0845 164.456 38.915 163.601 38.915C162.891 38.915 162.234 39.0523 161.63 39.3264C161.036 39.5925 160.504 39.9797 160.069 40.4633C159.634 40.9471 159.295 41.5078 159.053 42.1448C158.811 42.7822 158.69 43.4635 158.69 44.1892V44.2374C158.69 44.9631 158.811 45.6489 159.053 46.2937C159.295 46.9391 159.629 47.5034 160.057 47.9872C160.484 48.471 161 48.8544 161.605 49.1367C162.21 49.4192 162.876 49.5599 163.601 49.5599C164.569 49.5599 165.387 49.3826 166.057 49.0277C166.726 48.6733 167.392 48.1893 168.053 47.5761L170.424 49.9714C170.005 50.424 169.552 50.8445 169.069 51.2293C168.594 51.6047 168.079 51.9254 167.533 52.1853C166.976 52.4512 166.367 52.6532 165.706 52.7899C165.044 52.9269 164.303 52.9957 163.481 52.9957ZM174.809 35.7698H187.559V39.0845H178.487V42.5201H186.471V45.8346H178.487V49.3912H187.681V52.7057H174.809V35.7698Z" fill="#F3BA2F"/>
</g>
<defs>
<filter id="filter0_f_227_1844" x="0.9" y="0.9" width="213.88" height="86.2" filterUnits="userSpaceOnUse" color-interpolation-filters="sRGB">
<feFlood flood-opacity="0" result="BackgroundImageFix"/>
<feBlend mode="normal" in="SourceGraphic" in2="BackgroundImageFix" result="shape"/>
<feGaussianBlur stdDeviation="13.55" result="effect1_foregroundBlur_227_1844"/>
</filter>
<clipPath id="clip0_227_1844">
<rect width="159.681" height="32" fill="white" transform="translate(28 28)"/>
</clipPath>
</defs>
</svg>
