<svg width="186" height="46" viewBox="0 0 186 46" fill="none" xmlns="http://www.w3.org/2000/svg">
<g clip-path="url(#clip0_195_1626)">
<path d="M15.5603 4.3861C14.9827 4.29806 14.9583 4.28772 15.2301 4.24667C15.751 4.16796 16.981 4.27524 17.8286 4.47328C19.8074 4.93548 21.6079 6.11949 23.5296 8.22232L24.0403 8.78095L24.7707 8.66557C27.8479 8.17962 30.9783 8.56583 33.5968 9.75443C34.317 10.0814 35.4527 10.7324 35.5946 10.8996C35.6398 10.953 35.7227 11.2961 35.7791 11.6623C35.9734 12.9291 35.876 13.9001 35.4818 14.6254C35.2673 15.0201 35.2552 15.1452 35.3995 15.4829C35.5146 15.7525 35.8358 15.9519 36.1536 15.9515C36.8043 15.9507 37.5047 14.917 37.8292 13.4789L37.958 12.9076L38.2134 13.1918C39.6141 14.7512 40.7141 16.8778 40.9032 18.3915L40.9523 18.7863L40.7168 18.4275C40.3117 17.8101 39.9047 17.3898 39.3832 17.0508C38.4435 16.4398 37.45 16.2318 34.8184 16.0955C32.4417 15.9725 31.0966 15.773 29.7628 15.3456C27.4936 14.6185 26.3496 13.6502 23.6541 10.1748C22.4568 8.63113 21.7167 7.77705 20.9806 7.08925C19.3078 5.52642 17.6642 4.7068 15.5603 4.3861Z" fill="white"/>
<path d="M36.1338 7.83318C36.1936 6.79877 36.3363 6.1165 36.6234 5.49341C36.737 5.24677 36.8435 5.04492 36.8598 5.04492C36.8763 5.04492 36.8268 5.22698 36.75 5.44943C36.5414 6.05414 36.5071 6.88122 36.6508 7.84352C36.8333 9.06448 36.9371 9.24065 38.2503 10.5596C38.8663 11.1782 39.5828 11.9584 39.8424 12.2934L40.3147 12.9025L39.8424 12.4672C39.265 11.9349 37.9368 10.8968 37.6434 10.7484C37.4467 10.6488 37.4174 10.6506 37.2961 10.7692C37.1843 10.8786 37.1607 11.0429 37.1452 11.8198C37.1211 13.0306 36.9531 13.8077 36.5477 14.5848C36.3285 15.0051 36.2941 14.9154 36.4923 14.441C36.6404 14.0868 36.6555 13.9311 36.6543 12.759C36.6521 10.4039 36.3677 9.83776 34.699 8.86787C34.2764 8.62216 33.5799 8.26782 33.1514 8.08039C32.7229 7.89295 32.3824 7.72969 32.3949 7.7175C32.4421 7.67128 34.0693 8.13801 34.7242 8.38557C35.6985 8.75384 35.8592 8.80156 35.9777 8.75714C36.0569 8.72736 36.0953 8.50038 36.1338 7.83318Z" fill="white"/>
<path d="M16.6803 11.8614C15.5077 10.2751 14.7822 7.84281 14.9393 6.02458L14.9878 5.46191L15.2547 5.50978C15.756 5.59962 16.6202 5.91572 17.0249 6.15727C18.1354 6.82003 18.616 7.69262 19.1052 9.93328C19.2485 10.5896 19.4366 11.3323 19.523 11.5837C19.6622 11.9884 20.1885 12.9338 20.6163 13.5478C20.9243 13.9899 20.7195 14.1995 20.0385 14.1391C18.9982 14.0468 17.5893 13.0912 16.6803 11.8614Z" fill="white"/>
<path d="M34.7068 23.6679C29.227 21.4997 27.2969 19.6177 27.2969 16.4424C27.2969 15.9751 27.3134 15.5928 27.3332 15.5928C27.3532 15.5928 27.5652 15.747 27.8044 15.9355C28.9157 16.8113 30.1599 17.1854 33.6046 17.6792C35.6317 17.9698 36.7725 18.2046 37.8248 18.5474C41.1693 19.6375 43.2387 21.8495 43.7322 24.8625C43.8755 25.7379 43.7915 27.3796 43.559 28.245C43.3754 28.9284 42.8154 30.1603 42.6669 30.2074C42.6257 30.2206 42.5853 30.0654 42.5747 29.8545C42.5183 28.7232 41.9365 27.6217 40.9594 26.7966C39.8485 25.8585 38.356 25.1117 34.7068 23.6679Z" fill="white"/>
<path d="M30.8629 24.5683C30.7943 24.167 30.6752 23.6542 30.5983 23.4289L30.4585 23.0195L30.7182 23.3062C31.0776 23.7024 31.3617 24.2097 31.6024 24.8854C31.7859 25.4011 31.8067 25.5543 31.8052 26.3922C31.8039 27.2149 31.7809 27.3873 31.6113 27.8515C31.3439 28.5833 31.0118 29.1023 30.4547 29.6593C29.4538 30.6605 28.1669 31.2147 26.3097 31.4447C25.9868 31.4846 25.046 31.5519 24.2188 31.594C22.1342 31.7007 20.7622 31.9208 19.5295 32.3462C19.3522 32.4074 19.194 32.4446 19.1779 32.4288C19.128 32.3799 19.9675 31.8882 20.6606 31.5601C21.6382 31.0974 22.6113 30.8448 24.7918 30.488C25.8687 30.3117 26.9809 30.0978 27.2635 30.0128C29.9307 29.2092 31.3018 27.1353 30.8629 24.5683Z" fill="white"/>
<path d="M33.3754 28.9532C32.6474 27.4152 32.4801 25.9302 32.879 24.5454C32.9218 24.3975 32.9902 24.2764 33.0316 24.2764C33.0729 24.2764 33.2446 24.3676 33.4134 24.4791C33.7488 24.701 34.4217 25.0749 36.2145 26.0354C38.4515 27.2337 39.7268 28.1618 40.5941 29.2222C41.3538 30.1508 41.8239 31.2083 42.0501 32.4979C42.1782 33.2284 42.1031 34.9861 41.9123 35.7218C41.311 38.0412 39.913 39.863 37.9193 40.9262C37.6272 41.0819 37.3649 41.2097 37.3365 41.2104C37.3081 41.211 37.4145 40.945 37.5731 40.6194C38.2438 39.2416 38.3202 37.9013 37.813 36.4097C37.5026 35.4963 36.8696 34.3819 35.5914 32.4983C34.1054 30.3084 33.741 29.7254 33.3754 28.9532Z" fill="white"/>
<path d="M12.7929 37.2518C14.8264 35.5645 17.3566 34.3659 19.6614 33.9979C20.6546 33.8394 22.3093 33.9022 23.2291 34.1337C24.7034 34.5044 26.0223 35.3348 26.7081 36.3243C27.3786 37.2914 27.666 38.134 27.9655 40.0089C28.0836 40.7485 28.2121 41.4911 28.2508 41.6594C28.4758 42.631 28.9134 43.4077 29.4556 43.7977C30.3169 44.4172 31.7997 44.4558 33.2587 43.8965C33.5062 43.8016 33.7212 43.736 33.7364 43.7508C33.7892 43.8025 33.0545 44.2858 32.5363 44.5401C31.8391 44.8823 31.2846 45.0146 30.5477 45.0146C29.2115 45.0146 28.1023 44.3468 27.1766 42.9847C26.9945 42.7168 26.5851 41.9139 26.2669 41.2008C25.2897 39.0104 24.807 38.3431 23.6724 37.6128C22.6848 36.9774 21.4113 36.8636 20.4532 37.3253C19.1947 37.9315 18.8437 39.512 19.745 40.5136C20.1033 40.9116 20.7712 41.2549 21.3175 41.3216C22.3396 41.4466 23.2177 40.6825 23.2177 39.6687C23.2177 39.0104 22.9602 38.6345 22.3119 38.3472C21.4267 37.9546 20.4749 38.4135 20.4795 39.2307C20.4816 39.5793 20.6358 39.7981 20.9915 39.9563C21.2196 40.0576 21.2248 40.0657 21.0388 40.0277C20.2264 39.8622 20.0362 38.8999 20.6894 38.2609C21.4736 37.4939 23.0952 37.8324 23.652 38.8794C23.8858 39.319 23.9131 40.1949 23.7091 40.7236C23.2526 41.9073 21.9216 42.5297 20.5715 42.191C19.6521 41.9605 19.2779 41.7107 18.1696 40.5889C16.2437 38.6393 15.496 38.2616 12.7196 37.8357L12.1875 37.7541L12.7929 37.2518Z" fill="white"/>
<path fill-rule="evenodd" clip-rule="evenodd" d="M3.75579 2.35944C10.1873 10.0303 14.6171 13.1951 15.1094 13.8638C15.5158 14.4159 15.3628 14.9123 14.6665 15.3013C14.2793 15.5176 13.4832 15.7367 13.0847 15.7367C12.6338 15.7367 12.479 15.5658 12.479 15.5658C12.2176 15.3222 12.0704 15.3648 10.7281 13.0233C8.86448 10.1817 7.3049 7.8244 7.26234 7.78493C7.16397 7.69366 7.16566 7.69674 10.5381 13.6264C11.0829 14.8623 10.6464 15.3159 10.6464 15.4919C10.6464 15.85 10.547 16.0382 10.0975 16.5309C9.34819 17.3524 9.01321 18.2755 8.77141 20.1857C8.50032 22.3272 7.73806 23.8399 5.62562 26.4287C4.38905 27.9441 4.18673 28.222 3.87471 28.8328C3.48169 29.602 3.37362 30.0328 3.32983 31.0042C3.28352 32.031 3.3737 32.6944 3.69297 33.6764C3.97248 34.5359 4.26426 35.1036 5.01016 36.2388C5.65386 37.2185 6.02449 37.9467 6.02449 38.2315C6.02449 38.4582 6.06851 38.4583 7.06597 38.2371C9.45303 37.7073 11.3913 36.7758 12.4814 35.634C13.1561 34.9273 13.3145 34.5372 13.3196 33.5688C13.323 32.9352 13.3003 32.8027 13.1261 32.4384C12.8425 31.8452 12.3261 31.3522 11.1881 30.5876C9.69698 29.5858 9.06009 28.7795 8.88417 27.6705C8.73985 26.7604 8.90728 26.1184 9.73217 24.4196C10.586 22.6609 10.7976 21.9115 10.9407 20.139C11.0332 18.9938 11.1612 18.5422 11.496 18.1796C11.8452 17.8016 12.1596 17.6735 13.0238 17.5575C14.4328 17.3684 15.33 17.0101 16.0674 16.3424C16.7071 15.763 16.9748 15.2048 17.0159 14.3645L17.0471 13.7276L16.6896 13.318C15.395 11.8346 2.88877 1.19336 2.80909 1.19336C2.79206 1.19336 3.21811 1.71813 3.75579 2.35944ZM6.75124 32.1661C7.04396 31.6568 6.88844 31.0018 6.3988 30.682C5.93617 30.3796 5.21749 30.522 5.21749 30.9158C5.21749 31.036 5.28513 31.1236 5.43757 31.2006C5.69428 31.3305 5.71292 31.4764 5.51095 31.7748C5.3064 32.0768 5.3229 32.3425 5.55753 32.5231C5.93565 32.8139 6.47091 32.6539 6.75124 32.1661Z" fill="white"/>
<path fill-rule="evenodd" clip-rule="evenodd" d="M17.9315 17.8918C17.2701 18.0914 16.6271 18.7802 16.4281 19.5027C16.3067 19.9432 16.3755 20.7163 16.5574 20.9551C16.8512 21.3407 17.1354 21.4422 17.9048 21.4369C19.4111 21.4266 20.7206 20.7918 20.8728 19.998C20.9976 19.3474 20.4224 18.446 19.6302 18.0501C19.2216 17.8459 18.3521 17.7649 17.9315 17.8918ZM19.6924 19.2448C19.9247 18.9204 19.8231 18.57 19.4279 18.3329C18.6757 17.8815 17.5379 18.255 17.5379 18.9534C17.5379 19.3011 18.1312 19.6804 18.6751 19.6804C19.0371 19.6804 19.5323 19.4684 19.6924 19.2448Z" fill="white"/>
<path d="M168.715 43.2215V20.078H172.094V22.7026C173.026 21.2029 174.819 19.6689 177.819 19.6689C182.302 19.6689 185.544 23.1798 185.544 28.4969C185.544 33.814 182.302 37.3249 177.819 37.3249C174.75 37.3249 172.991 35.7228 172.129 34.3594V43.2215H168.715ZM177.026 34.6321C180.371 34.6321 181.992 31.8712 181.992 28.4969C181.992 25.1226 180.371 22.3617 177.026 22.3617C173.681 22.3617 171.991 25.1908 171.991 28.4969C171.991 31.803 173.681 34.6321 177.026 34.6321Z" fill="white"/>
<path d="M155.977 37.3249C152.907 37.3249 150.148 35.4841 150.148 32.3485C150.148 29.2809 152.321 27.8833 156.011 27.1677L158.356 26.6905C160.184 26.3155 161.046 25.9405 161.046 24.5431C161.046 23.1457 159.874 22.1572 157.805 22.1572C155.563 22.1572 154.114 23.5205 153.977 25.7701L150.459 25.4633C150.7 21.8504 153.632 19.6689 157.839 19.6689C162.184 19.6689 164.495 21.7481 164.495 25.293V36.9158H161.219V34.9389H161.184C160.391 36.2341 158.632 37.3249 155.977 37.3249ZM156.873 34.9048C159.287 34.9048 161.184 33.337 161.184 30.542V28.4969C157.598 29.0764 155.908 29.5534 154.873 30.2011C154.08 30.6783 153.632 31.3599 153.632 32.2803C153.632 33.8481 154.942 34.9048 156.873 34.9048Z" fill="white"/>
<path d="M128.204 36.9158L122.789 20.0781H126.41L130.135 32.7915H130.169L134.032 20.0781H137.446L141.343 32.7574H141.377L145.102 20.0781H148.654L143.24 36.9158H139.653L135.791 23.9297H135.756L131.825 36.9158H128.204Z" fill="white"/>
<path d="M114.428 37.3249C110.186 37.3249 107.082 35.3821 106.703 31.3599L110.083 30.951C110.255 33.6095 112.152 34.8367 114.497 34.8367C116.808 34.8367 118.36 33.814 118.36 32.178C118.36 30.542 116.773 30.2011 114.635 29.7239L112.117 29.1446C109.358 28.4969 107.462 27.2018 107.462 24.6113C107.462 21.7481 110.324 19.6689 114.359 19.6689C118.256 19.6689 120.912 21.6118 121.36 24.7476L117.946 25.2249C117.704 23.2139 116.221 22.1572 114.221 22.1572C112.186 22.1572 110.876 23.1457 110.876 24.4408C110.876 25.6678 111.635 26.111 113.773 26.5882L116.29 27.1677C119.877 27.9856 121.774 29.1446 121.774 31.8371C121.774 35.2116 118.601 37.3249 114.428 37.3249Z" fill="white"/>
<path d="M100.348 36.916V20.0782H103.762V36.916H100.348ZM100.348 17.4537V13.4658H103.762V17.4537H100.348Z" fill="white"/>
<path d="M81.2617 36.9158V20.078H84.6415V22.4639H84.676C85.6415 20.9984 87.5383 19.6689 90.1248 19.6689C93.9183 19.6689 96.16 21.9185 96.16 26.0087V36.9158H92.7459V27.4743C92.7459 24.4408 92.0561 22.498 89.1936 22.498C86.3313 22.498 84.676 24.7817 84.676 27.5084V36.9158H81.2617Z" fill="white"/>
<path d="M67.9833 37.325C62.3275 37.325 58.8789 34.1551 58.8789 28.3266V13.4658H62.4655V28.1221C62.4655 31.9055 64.2587 34.3596 67.9833 34.3596C72.0182 34.3596 73.5011 31.9055 73.5011 28.1221V13.4658H77.0878V28.3266C77.0878 34.1551 73.639 37.325 67.9833 37.325Z" fill="white"/>
</g>
<defs>
<clipPath id="clip0_195_1626">
<rect width="185.614" height="46" fill="white"/>
</clipPath>
</defs>
</svg>
