<svg width="264" height="74" viewBox="0 0 264 74" fill="none" xmlns="http://www.w3.org/2000/svg">
<g clip-path="url(#clip0_185_2008)">
<path fill-rule="evenodd" clip-rule="evenodd" d="M19.8888 53.605H28.9617V29.3289H19.8888V53.605ZM19.8888 26.7088H28.9617V20.206H19.8888V26.7088ZM4.04399 53.605H13.1169V36.0767H17.6982V29.3272H12.9323C12.7943 27.0849 13.4274 26.7571 15.6266 26.7571H17.9259V20.2043C16.5511 20.1577 15.223 20.2043 13.8482 20.2043C10.1829 20.2043 7.89221 20.4854 5.91894 22.4984C4.18025 24.275 3.95084 26.9417 4.04399 29.3272H0.332031V36.0767H4.04399V53.605ZM31.3265 53.605H40.3994V40.7891C40.3994 36.9046 42.4607 36.1112 44.0182 36.1112C46.6763 36.1112 46.9971 38.0758 46.9971 40.8822V53.605H56.07V36.9529C56.07 31.3867 52.1752 28.7201 47.9148 28.7201C44.2925 28.7201 41.8639 29.9827 40.17 32.4148H40.0786V29.3272H31.3265V53.605ZM73.2068 44.9512C73.0688 47.4765 71.4646 48.7391 69.4051 48.7391C67.7544 48.7391 66.5625 47.6179 66.5625 46.495C66.5625 44.8564 67.6181 44.3441 69.6328 43.8749C70.8713 43.5955 72.108 43.2678 73.2068 42.7054V44.9512ZM81.914 38.2156C81.914 33.5377 82.0054 28.7201 70.6419 28.7201C65.0049 28.7201 58.6815 29.8412 58.4072 36.6718H66.8385C66.8833 35.642 67.4336 34.1931 70.2296 34.1931C71.6958 34.1931 73.2068 34.8003 73.2068 36.4372C73.2068 37.9827 71.97 38.3553 70.7333 38.5899C66.1037 39.4782 57.3068 39.197 57.3068 46.8693C57.3068 51.9681 61.1101 54.2122 65.6932 54.2122C68.6255 54.2122 71.4198 53.5584 73.3448 51.3126H73.4362C73.3913 51.9681 73.5276 52.9513 73.757 53.6067H81.914V38.2156ZM84.2323 53.605H93.3052V40.7891C93.3052 36.9046 95.3664 36.1112 96.924 36.1112C99.582 36.1112 99.9029 38.0758 99.9029 40.8822V53.605H108.976V36.9529C108.976 31.3867 105.081 28.7201 100.819 28.7201C97.1982 28.7201 94.7696 29.9827 93.074 32.4148H92.9826V29.3272H84.2323V53.605ZM110.72 53.605H134.454V46.8693H122.633L133.493 36.4372V29.3272H111.725V36.0646H121.852L110.718 46.4484V53.6067L110.72 53.605ZM143.299 38.7296C143.713 36.1112 145.271 34.6623 147.974 34.6623C150.309 34.6623 151.96 36.4855 151.96 38.7296H143.299ZM160.665 43.5489C160.665 34.1 156.588 28.7201 147.149 28.7201C139.634 28.7201 134.594 34.4743 134.594 41.536C134.594 49.6291 140.32 54.2139 147.927 54.2139C153.333 54.2139 158.328 51.7801 160.164 46.5416H151.686C150.953 47.7111 149.347 48.2717 147.882 48.2717C145.041 48.2717 143.484 46.3087 143.254 43.5489H160.665ZM162.178 53.605H171.251V40.7891C171.251 36.9046 173.314 36.1112 174.87 36.1112C177.528 36.1112 177.849 38.0758 177.849 40.8822V53.605H186.532V36.9529C186.532 31.3867 183.029 28.7201 178.765 28.7201C175.146 28.7201 172.717 29.9827 171.022 32.4148H170.93V29.3272H162.178V53.605ZM207.389 29.0495H210.335V33.2945H210.427C211.503 30.338 214.729 28.332 218.14 28.332C224.916 28.332 226.972 31.9594 226.972 37.8275V53.6671H224.029V38.3053C224.029 34.0586 222.673 30.8606 217.906 30.8606C213.231 30.8606 210.427 34.4881 210.334 39.3074V53.6671H207.389V29.0495ZM248.519 39.6403C248.379 35.1073 245.621 30.8606 240.855 30.8606C236.04 30.8606 233.376 35.1556 232.909 39.6403H248.519ZM232.909 42.169C232.955 46.5588 235.198 51.8542 240.855 51.8542C245.154 51.8542 247.493 49.2773 248.428 45.555H251.37C250.109 51.1384 246.93 54.3829 240.855 54.3829C233.19 54.3829 229.964 48.3717 229.964 41.3583C229.964 34.8693 233.19 28.332 240.855 28.332C248.612 28.332 251.698 35.2522 251.464 42.169H232.909ZM258.755 29.0495H263.664V31.5765H258.756V48.1802C258.756 50.1363 259.034 51.2816 261.137 51.423C261.98 51.423 262.822 51.3764 263.664 51.2816V53.8568C262.774 53.8568 261.932 53.9534 261.045 53.9534C257.119 53.9534 255.764 52.6166 255.81 48.4183V31.5765H251.605V29.0495H255.81V21.6515H258.756V29.0478L258.755 29.0495Z" fill="white"/>
<path fill-rule="evenodd" clip-rule="evenodd" d="M196.807 53.8636C201.109 53.8636 204.595 50.3035 204.595 45.9136C204.595 41.5221 201.109 37.9619 196.807 37.9619C192.506 37.9619 189.02 41.5221 189.02 45.9136C189.02 50.3035 192.506 53.8636 196.807 53.8636Z" fill="#D70413"/>
<path fill-rule="evenodd" clip-rule="evenodd" d="M196.807 44.6872C200.136 44.6872 203.039 46.5208 204.583 46.1793C204.585 46.0896 204.595 46.0033 204.595 45.9136C204.595 41.5221 201.109 37.9619 196.807 37.9619C192.506 37.9619 189.02 41.5221 189.02 45.9136C189.02 46.0033 189.028 46.0896 189.032 46.1793C190.574 46.5225 193.477 44.6872 196.807 44.6872Z" fill="#E42522"/>
</g>
<defs>
<clipPath id="clip0_185_2008">
<rect width="263.333" height="73.7047" fill="white" transform="translate(0.332031 0.147461)"/>
</clipPath>
</defs>
</svg>
