<svg width="264" height="74" viewBox="0 0 264 74" fill="none" xmlns="http://www.w3.org/2000/svg">
<g clip-path="url(#clip0_185_1926)">
<path d="M159.997 29.1067C159.997 22.9323 159.997 16.9359 159.997 10.8802C159.997 10.2272 160.115 9.93032 160.828 10.0491C161.896 10.1678 162.846 10.1678 163.856 10.0491C164.509 10.0491 164.627 10.2272 164.627 10.8209C164.627 13.4925 164.627 16.1641 164.627 18.7764C164.627 26.4351 164.627 34.1531 164.627 41.9305C164.627 42.7023 164.449 42.8804 163.678 42.8804C162.55 42.7617 161.303 42.8804 160.056 42.8804C159.462 42.8804 159.225 42.7617 159.106 42.1086C157.206 34.9249 155.188 27.6818 153.288 20.5575C153.169 20.2606 153.169 19.9638 152.932 19.7263C152.932 27.1475 152.932 34.5093 152.932 41.9305C152.932 42.7023 152.754 42.9992 151.982 42.8804C151.032 42.7617 150.082 42.7617 149.132 42.8804C148.36 42.9992 148.301 42.7023 148.301 42.0493C148.301 36.4685 148.301 30.8284 148.301 25.3664C148.301 20.6168 148.301 15.8079 148.301 11.0583C148.301 10.4053 148.42 10.2272 149.132 10.2272C150.735 10.3459 152.338 10.3459 154 10.2272C154.594 10.2272 154.831 10.4053 154.95 10.999C156.494 16.8766 158.097 22.6948 159.581 28.5724C159.759 28.6317 159.759 28.9286 159.997 29.1067Z" fill="white"/>
<path d="M103.66 25.2479C103.779 23.2294 103.482 19.9047 103.779 16.6987C104.254 11.1773 108.054 9.39624 112.388 9.8712C116.484 10.3462 118.562 12.7209 118.859 17.1737C118.978 18.3017 118.859 19.4297 118.859 20.6765C118.859 21.1514 118.681 21.2702 118.265 21.2702C117.018 21.2702 115.772 21.2702 114.584 21.2702C114.109 21.2702 113.99 21.0921 113.99 20.6765C113.99 19.4297 113.99 18.3017 113.99 17.0549C113.872 15.1551 112.684 14.0864 110.666 14.502C109.716 14.6801 109.063 15.3332 108.885 16.4019C108.766 16.8768 108.766 17.4705 108.766 17.9455C108.766 23.6449 108.766 29.3444 108.766 35.0439C108.766 35.4001 108.766 35.8157 108.885 36.1719C109.063 37.7749 110.013 38.5467 111.616 38.428C113.159 38.3092 113.99 37.4781 114.109 35.9345C114.228 34.3909 114.228 32.9066 114.109 31.363C114.109 30.7693 114.228 30.5318 114.881 30.5912C116.009 30.7099 117.256 30.5912 118.503 30.5912C118.799 30.5912 119.096 30.5912 119.096 31.0662C118.978 33.3222 119.274 35.6376 118.799 37.8343C118.028 41.0402 115.831 42.9401 112.506 43.2369C111.556 43.3557 110.488 43.3557 109.538 43.1182C106.213 42.4651 104.195 40.1497 103.957 36.825C103.957 36.35 103.838 35.8751 103.838 35.5189C103.541 32.4317 103.66 29.5225 103.66 25.2479Z" fill="white"/>
<path d="M188.496 18.9551C187.725 18.9551 186.775 19.2519 186.24 18.8363C185.647 18.4801 186.062 17.4115 185.944 16.6397C185.765 15.0961 184.875 14.2649 183.45 14.2649C181.906 14.2649 181.194 15.0367 180.957 16.5209C180.66 18.4208 181.253 20.1425 182.5 21.6267C183.331 22.6954 184.4 23.6453 185.35 24.5952C186.656 25.8419 187.903 26.97 188.971 28.5136C191.049 31.5414 191.465 34.9849 190.396 38.4877C189.625 40.9812 188.022 42.4061 185.528 42.881C183.925 43.2372 182.381 43.1779 180.778 42.7623C177.929 42.1092 176.148 39.7938 175.732 36.4097C175.613 35.3411 175.732 34.3318 175.613 33.2632C175.613 32.7882 175.791 32.6695 176.207 32.6695C177.454 32.6695 178.701 32.6695 179.888 32.6695C180.363 32.6695 180.482 32.8476 180.482 33.3225C180.482 34.3912 180.363 35.3411 180.66 36.3504C180.957 37.5971 181.728 38.2502 183.153 38.2502C184.459 38.2502 185.35 37.6565 185.706 36.4691C186.181 34.7474 185.825 33.0257 184.875 31.5414C184.044 30.2353 182.856 29.0479 181.669 28.0386C180.422 26.9106 179.294 25.842 178.226 24.5358C175.851 21.508 175.257 18.0645 176.207 14.5024C176.86 11.6526 178.76 10.0496 181.728 9.57467C183.034 9.39657 184.281 9.39657 185.528 9.69342C188.378 10.3465 190.278 12.4244 190.634 15.5116C190.753 16.3428 190.812 17.2334 190.812 18.1833C190.812 18.6582 190.693 18.8363 190.218 18.8363C189.743 18.9551 189.15 19.0738 188.496 18.9551C188.496 19.0738 188.496 19.0738 188.496 18.9551Z" fill="white"/>
<path d="M198.055 28.9284C198.055 24.6538 198.055 20.3791 198.055 16.0452C198.055 14.7984 198.055 14.7984 196.927 14.7984C195.799 14.7984 194.671 14.7984 193.424 14.7984C192.83 14.7984 192.652 14.6797 192.652 14.1453C192.652 13.0173 192.652 11.8893 192.652 10.6425C192.652 10.1676 192.771 10.0488 193.246 10.0488C198.174 10.0488 203.042 10.0488 207.97 10.0488C208.445 10.0488 208.563 10.1676 208.563 10.6425C208.563 11.8893 208.563 13.0173 208.563 14.2641C208.563 14.739 208.445 14.9171 207.97 14.9171C206.664 14.9171 205.298 14.9171 204.051 14.9171C203.28 14.9171 203.22 15.0952 203.22 15.7483C203.22 24.4756 203.22 33.203 203.22 41.9303C203.22 42.7021 203.042 42.999 202.27 42.999C201.142 42.8802 200.014 42.8802 198.827 42.999C198.174 42.999 198.055 42.8209 198.055 42.1678C198.055 37.6557 198.055 33.3217 198.055 28.9284Z" fill="white"/>
<path d="M91.605 28.869C91.605 24.4163 91.605 20.0229 91.605 15.5702C91.605 14.9171 91.4269 14.739 90.8332 14.7984C89.5864 14.9171 88.2803 14.7984 87.0335 14.7984C86.3805 14.7984 86.2617 14.6203 86.2617 14.0266C86.2617 12.8986 86.2617 11.8299 86.2617 10.7019C86.2617 10.2269 86.3805 10.0488 86.9148 10.0488C91.7831 10.0488 96.7108 10.0488 101.52 10.0488C101.876 10.0488 102.113 10.1676 102.113 10.6425C102.113 11.8893 102.113 13.1361 102.113 14.2641C102.113 14.739 101.935 14.8578 101.52 14.8578C100.214 14.8578 98.8481 14.8578 97.6013 14.8578C96.9482 14.8578 96.7701 15.0359 96.7701 15.6889C96.7701 24.4163 96.7701 33.1436 96.7701 41.8709C96.7701 42.7021 96.4733 42.9396 95.7015 42.9396C94.6328 42.8209 93.6235 42.8209 92.4955 42.9396C91.8425 42.9396 91.5456 42.7615 91.5456 42.1084C91.6643 37.6557 91.605 33.203 91.605 28.869Z" fill="white"/>
<path d="M217.524 14.2045C217.346 14.5607 217.405 14.9763 217.405 15.2731C217.405 24.1786 217.405 33.0246 217.405 41.9301C217.405 42.2269 217.584 42.7019 217.227 42.7613C216.752 42.88 216.099 42.88 215.624 42.7613C215.446 42.7613 215.506 42.2863 215.506 42.1082C215.506 40.3271 215.506 38.4273 215.506 36.5868C215.506 28.0376 215.506 19.4884 215.506 10.9392C215.506 10.1674 215.624 9.8705 216.456 9.8705C218.237 9.98924 218.237 9.87051 218.949 11.5922C221.799 19.7259 224.767 28.0376 227.558 36.1712C227.676 36.4681 227.736 36.7649 227.854 37.0024C228.151 36.6462 228.033 36.2306 228.033 35.9338C228.033 27.5626 228.033 19.1322 228.033 10.761C228.033 10.4642 227.854 9.98924 228.211 9.92987C228.686 9.81114 229.279 9.81114 229.814 9.92987C229.992 9.92987 229.932 10.2861 229.932 10.5236C229.932 11.9484 229.932 13.3733 229.932 14.6794C229.932 23.7036 229.932 32.7278 229.932 41.752C229.932 42.4051 229.754 42.7019 229.101 42.5832C227.558 42.4644 227.558 42.5832 227.083 41.1583C224.055 32.3122 220.908 23.5255 217.88 14.6794C217.702 14.7982 217.643 14.5013 217.524 14.2045Z" fill="white"/>
<path d="M173.002 26.5539C173.002 31.6597 173.002 36.8248 173.002 41.9306C173.002 42.7024 172.883 42.9992 172.052 42.8805C170.924 42.7618 169.677 42.8805 168.43 42.8805C167.955 42.8805 167.777 42.7024 167.777 42.2274C167.777 40.0308 167.777 37.7747 167.777 35.578C167.777 27.4444 167.777 19.2514 167.777 11.1178C167.777 10.346 167.955 10.0491 168.727 10.1679C169.855 10.2866 170.983 10.2866 172.23 10.1679C172.824 10.1679 173.002 10.346 173.002 10.9397C173.002 16.1048 173.002 21.3293 173.002 26.5539Z" fill="white"/>
<path d="M144.92 26.5529C144.92 31.6587 144.92 36.8833 144.92 42.0484C144.92 42.8202 144.742 42.9983 143.97 42.8796C142.901 42.7608 141.892 42.7608 140.823 42.8796C139.992 42.9983 139.695 42.7015 139.695 41.7516C139.695 33.4992 139.695 25.3062 139.695 17.0538C139.695 14.9759 139.695 12.9573 139.695 10.8794C139.695 10.1076 139.873 9.92945 140.645 10.0482C141.773 10.1669 142.842 10.1669 143.97 10.0482C144.742 10.0482 144.92 10.2263 144.92 10.9981C144.92 16.2226 144.92 21.3284 144.92 26.5529Z" fill="white"/>
<path d="M83.8267 26.494C83.8267 31.7186 83.8267 36.9431 83.8267 42.1676C83.8267 42.8207 83.708 42.9988 83.0549 42.9988C81.9269 42.88 80.7989 42.88 79.5521 42.9988C78.899 42.9988 78.6022 42.8207 78.7209 42.1676C78.7209 34.7464 78.7209 27.3846 78.7209 19.9634C78.7209 16.9949 78.7209 13.967 78.7209 11.0579C78.7209 10.4642 78.8397 10.2861 79.4927 10.2861C80.6208 10.4049 81.7488 10.4049 82.9955 10.2861C83.7673 10.2861 83.9455 10.4642 83.9455 11.236C83.708 16.1043 83.8267 21.3289 83.8267 26.494Z" fill="white"/>
<path d="M232.548 26.5536C232.548 21.3291 232.548 16.2233 232.548 10.9987C232.548 10.2269 232.726 10.0488 233.498 10.0488C237.178 10.0488 240.919 10.1676 244.6 10.0488C245.55 10.0488 245.371 10.5238 245.371 11.1175C245.371 11.5924 245.55 12.1861 244.6 12.1861C241.572 12.0674 238.544 12.1861 235.516 12.1861C234.863 12.1861 234.744 12.3642 234.744 12.9579C234.744 16.8763 234.744 20.7354 234.744 24.535C234.744 25.1881 234.863 25.3662 235.516 25.3662C238.01 25.3662 240.444 25.3662 242.937 25.3662C243.769 25.3662 243.709 25.8411 243.709 26.3161C243.709 26.7911 244.006 27.4441 242.937 27.3848C240.444 27.266 238.01 27.3848 235.516 27.3848C234.863 27.3848 234.744 27.5629 234.744 28.2159C234.744 32.1937 234.744 36.1714 234.744 40.1492C234.744 40.8023 234.863 41.0991 235.575 41.0991C238.544 41.0991 241.453 41.0991 244.422 41.0991C245.253 41.0991 245.371 41.396 245.371 42.1678C245.371 42.8209 245.253 43.1177 244.422 43.1177C240.741 42.999 237 43.1177 233.319 43.1177C232.666 43.1177 232.488 42.9396 232.488 42.3459C232.548 36.8839 232.548 31.7781 232.548 26.5536Z" fill="white"/>
<path d="M256.65 27.5035C256.65 32.3718 256.65 37.1807 256.65 42.049C256.65 42.7021 256.531 43.1177 255.819 42.8802C255.522 42.8802 255.225 42.8802 254.988 42.8802C254.631 42.8802 254.394 42.7615 254.513 42.4053C254.513 42.2271 254.513 42.049 254.513 41.7522C254.513 32.1937 254.513 22.5758 254.513 13.0173C254.513 12.2455 254.335 12.0674 253.563 12.0674C251.96 12.1861 250.238 12.0674 248.635 12.0674C248.041 12.0674 247.863 11.9487 247.863 11.2956C247.863 10.0488 247.863 10.0488 249.11 10.0488C253.563 10.0488 258.015 10.0488 262.468 10.0488C263.537 10.0488 263.24 10.6425 263.299 11.1769C263.418 11.8299 263.181 12.1268 262.468 12.1268C260.746 12.008 259.144 12.1268 257.422 12.1268C256.769 12.1268 256.65 12.3049 256.65 12.8986C256.65 17.7669 256.65 22.5758 256.65 27.5035Z" fill="white"/>
<path d="M209.096 40.9205C209.096 40.5643 209.215 40.1487 209.096 39.8518C208.918 39.0207 209.393 38.9019 210.165 38.7832C211.115 38.7832 211.411 38.9613 211.293 39.9112C211.174 40.683 211.293 41.5142 211.293 42.286C211.293 42.761 211.174 42.9391 210.699 42.9391C209.155 43.0578 209.155 43.0578 209.155 41.5142C209.096 41.2767 209.096 41.0986 209.096 40.9205Z" fill="white"/>
<path d="M171.04 59.2072C171.396 56.5356 171.871 53.8639 172.286 51.1329C172.286 50.8361 172.286 50.4799 172.761 50.5392C173.236 50.5392 173.118 50.8955 173.236 51.1923C173.593 53.6858 174.008 56.2387 174.364 58.6729C174.364 58.851 174.364 59.1478 174.661 59.3259C175.136 56.5949 175.492 53.9233 175.967 51.2517C175.967 51.1329 175.967 50.9548 175.967 50.8955C175.967 50.5986 176.086 50.4205 176.442 50.4205C176.739 50.5392 176.62 50.7173 176.62 50.8955C176.442 52.2016 176.264 53.5671 175.967 54.8732C175.67 56.6543 175.374 58.4948 175.136 60.2759C175.017 60.5727 175.136 60.9289 174.661 60.9289C174.067 60.9289 174.067 60.5727 174.067 60.1571C173.711 57.6636 173.296 55.2294 172.821 52.5578C172.464 53.6265 172.346 54.5764 172.168 55.5263C171.871 57.0699 171.693 58.6729 171.396 60.1571C171.277 60.454 171.396 60.9289 170.802 60.9289C170.149 60.9289 170.208 60.5727 170.149 60.1571C169.674 57.1886 169.199 54.1608 168.724 51.2517C168.724 50.9548 168.605 50.7767 168.605 50.4799C168.605 50.3611 168.784 50.3018 168.902 50.3018C169.259 50.3018 169.259 50.658 169.259 50.8955C169.615 53.1515 170.03 55.5263 170.387 57.8417C170.505 58.1979 170.505 58.6135 170.565 58.9697C170.743 59.1478 170.743 59.3259 170.683 59.5634C170.862 59.6822 170.862 59.3853 171.04 59.2072Z" fill="white"/>
<path d="M232.55 59.0287C232.55 56.5352 232.55 53.9823 232.55 51.5481C232.55 51.2513 232.55 51.0732 232.55 50.7763C232.55 50.5982 232.669 50.4795 232.847 50.4795C233.025 50.4795 233.144 50.5982 233.144 50.7763C233.144 50.9544 233.144 51.1326 233.144 51.37C233.144 54.3385 233.144 57.3664 233.144 60.2755C233.144 60.5723 233.441 60.9285 232.847 61.0473C232.253 61.166 232.253 60.7504 232.194 60.3942C231.244 57.6632 230.294 54.9916 229.226 52.2606C229.226 52.4387 229.107 52.6168 229.107 52.9136C229.107 55.4072 229.107 57.9601 229.107 60.3942C229.107 60.6911 229.285 61.0473 228.81 61.0473C228.335 61.0473 228.513 60.5723 228.513 60.3942C228.513 57.3664 228.513 54.3385 228.513 51.3107C228.513 51.0138 228.335 50.6576 228.869 50.5389C229.344 50.5389 229.463 50.8357 229.641 51.1919C230.472 53.6854 231.422 56.2383 232.313 58.6725C232.432 58.7319 232.432 58.91 232.55 59.0287Z" fill="white"/>
<path d="M192.773 52.2612C192.773 54.9328 192.773 57.4857 192.773 60.1573C192.773 60.4542 192.773 60.6323 192.773 60.9291C192.773 61.1072 192.594 61.226 192.476 61.226C192.298 61.226 192.179 61.1072 192.179 60.9291C192.179 60.751 192.179 60.5729 192.179 60.2761C192.179 57.4263 192.179 54.5766 192.179 51.6675C192.179 51.3112 191.823 50.7175 192.535 50.5394C193.188 50.4207 193.188 51.0144 193.366 51.3706C194.197 53.7454 195.088 56.2389 195.919 58.5543C196.038 58.6731 196.038 58.8512 196.216 58.9105C196.216 57.1295 196.216 55.289 196.216 53.3892C196.216 52.558 196.216 51.6675 196.216 50.8363C196.216 50.6582 196.216 50.3613 196.513 50.3613C196.81 50.3613 196.81 50.6582 196.81 50.8363C196.81 54.0422 196.81 57.3076 196.81 60.5135C196.81 60.6916 196.81 60.8697 196.513 60.9885C196.157 60.9885 195.919 60.8104 195.86 60.5135C195.207 58.6137 194.554 56.8326 193.841 54.9328C193.544 53.9829 193.188 53.1517 192.891 52.2018C192.832 52.2612 192.773 52.2612 192.773 52.2612Z" fill="white"/>
<path d="M128.296 59.1477C128.296 56.5948 128.296 54.1013 128.296 51.6671C128.296 51.3703 128.296 51.1921 128.296 50.8953C128.296 50.7172 128.415 50.5985 128.593 50.5985C128.89 50.5985 128.89 50.7172 128.89 50.8953C128.89 51.0734 128.89 51.2515 128.89 51.5484C128.89 54.3981 128.89 57.2479 128.89 60.157C128.89 60.4538 129.186 60.9881 128.593 61.1069C127.94 61.285 127.94 60.6319 127.821 60.2757C126.99 57.7822 126.099 55.348 125.268 52.8545C125.149 52.6764 125.09 52.4983 124.912 52.3795C124.912 54.8731 124.912 57.426 124.912 59.8601C124.912 60.2163 125.268 61.1069 124.615 61.1069C123.962 61.1069 124.259 60.2757 124.259 59.8601C124.259 57.0104 124.259 54.1606 124.259 51.3109C124.259 51.014 124.081 50.6578 124.615 50.5391C125.09 50.4203 125.268 50.7172 125.387 51.1328C126.218 53.6263 127.108 56.0605 128.058 58.554C128.058 58.7321 128.058 58.9102 128.296 59.1477Z" fill="white"/>
<path d="M227.147 55.8823C227.147 57.4259 227.147 58.9102 227.147 60.4538C227.147 60.7506 227.325 61.1069 226.791 61.1069C226.197 61.1069 226.435 60.7506 226.435 60.4538C226.435 59.207 226.435 57.9603 226.435 56.8322C226.435 56.2385 226.257 56.1792 225.782 56.1792C224.951 56.2979 223.882 55.823 223.288 56.3573C222.813 56.8322 223.169 57.9009 223.11 58.7321C223.11 59.3851 223.11 59.9788 223.11 60.6319C223.11 60.81 223.229 61.1069 222.813 61.2256C222.457 61.2256 222.457 61.0475 222.457 60.7506C222.457 57.5447 222.457 54.3981 222.457 51.1921C222.457 50.8953 222.457 50.7172 222.813 50.7172C223.288 50.7172 223.169 51.0734 223.169 51.3109C223.169 52.5576 223.169 53.8044 223.169 54.9324C223.169 55.5261 223.348 55.7042 223.941 55.5855C224.772 55.4667 225.841 55.8823 226.316 55.4074C226.91 54.9324 226.435 53.8638 226.494 53.0326C226.494 52.3795 226.494 51.7858 226.494 51.1328C226.494 50.9546 226.375 50.6578 226.791 50.5391C227.266 50.5391 227.147 50.8359 227.147 51.1328C227.147 52.6764 227.147 54.2793 227.147 55.8823Z" fill="white"/>
<path d="M251.487 56.0009C251.487 57.0696 251.487 58.0195 251.487 59.0288C251.605 60.0974 252.14 60.6317 253.03 60.6317C253.861 60.6317 254.455 60.038 254.574 59.0881C254.574 58.6132 254.574 58.1382 254.574 57.782C254.574 57.1289 254.752 56.179 253.505 56.4759C253.327 56.4759 253.149 56.3571 253.149 56.179C253.149 56.0009 253.268 55.8822 253.505 55.8822C253.861 55.8822 254.336 55.8822 254.752 55.8822C255.049 55.8822 255.108 56.0603 255.108 56.3571C255.108 57.4851 255.227 58.6132 254.989 59.6818C254.692 60.8098 254.039 61.4035 252.793 61.4035C251.665 61.4035 251.012 60.8098 250.715 59.8006C250.418 58.9694 250.596 58.0788 250.596 57.1289C250.596 55.8228 250.596 54.4573 250.596 53.1512C250.596 51.7263 251.368 50.8951 252.496 50.6576C254.277 50.4795 255.524 51.9044 255.167 53.6855C255.167 53.8636 255.049 54.0417 254.871 54.0417C254.574 54.0417 254.514 53.8636 254.514 53.6855C254.514 53.3886 254.514 53.2105 254.514 52.9137C254.396 51.845 253.861 51.3107 252.911 51.3107C252.08 51.3107 251.487 51.9044 251.368 52.9137C251.427 53.8042 251.487 54.8729 251.487 56.0009Z" fill="white"/>
<path d="M101.758 55.1091C101.758 53.6843 101.758 52.5563 101.758 51.3095C101.758 51.0126 101.461 50.4783 102.055 50.4783C102.708 50.4783 102.411 51.072 102.411 51.3095C102.411 53.6843 102.411 56.0591 102.411 58.4338C102.411 59.0275 102.53 59.5619 102.886 59.9775C103.361 60.4524 103.954 60.5711 104.489 60.3337C105.142 60.1556 105.439 59.5619 105.557 58.9088C105.676 57.9589 105.676 57.1277 105.676 56.1778C105.676 54.4561 105.676 52.7344 105.676 51.072C105.676 50.7752 105.498 50.4189 106.032 50.4189C106.507 50.4189 106.329 50.8939 106.329 51.072C106.329 53.4468 106.329 55.7028 106.329 58.0776C106.329 58.4338 106.211 58.9088 106.151 59.3244C105.854 60.393 105.201 60.9274 104.133 60.9274C103.005 60.9274 102.233 60.4524 101.936 59.3838C101.461 58.0776 101.817 56.4746 101.758 55.1091Z" fill="white"/>
<path d="M61.6801 56.1795C61.6801 54.8734 61.6801 53.9235 61.6801 52.8548C61.7989 51.43 62.4519 50.5988 63.58 50.4801C65.3611 50.3613 66.6078 51.9049 66.1329 53.686C66.0141 53.8641 66.0141 53.9829 65.7766 53.9829C65.5985 53.9829 65.4798 53.8641 65.4798 53.6267C65.4798 53.2704 65.4798 52.8548 65.3611 52.4986C65.2423 51.6674 64.7674 51.1925 63.9362 51.1925C63.105 51.1925 62.3926 51.6674 62.3332 52.4986C62.1551 54.7547 62.1551 57.0701 62.3332 59.3261C62.4519 60.1573 62.9863 60.6323 63.8768 60.6323C64.708 60.6323 65.3017 60.1573 65.4204 59.3261C65.5392 58.8512 65.4204 58.3762 65.5392 57.9013C65.5392 57.7232 65.6579 57.4263 65.8954 57.545C66.1922 57.545 66.1922 57.7231 66.1922 58.02C66.1922 58.6731 66.1922 59.2668 66.0141 59.9198C65.7173 60.9885 64.9455 61.4634 63.9362 61.4634C62.8082 61.4634 62.1551 60.9885 61.8582 59.9198C61.502 58.4356 61.7989 57.1294 61.6801 56.1795Z" fill="white"/>
<path d="M96.0606 56.1789C96.0606 54.8728 95.9418 53.8042 96.0606 52.8542C96.1793 51.1325 97.1292 50.3014 98.7322 50.5982C99.979 50.7763 101.107 52.7949 100.513 53.9229C100.395 54.101 100.335 54.101 100.157 54.101C99.979 54.101 99.8602 53.9823 99.8602 53.8042C99.8602 53.4479 99.8602 53.0324 99.8602 52.6761C99.7415 51.7262 99.2072 51.1325 98.3166 51.1325C97.4855 51.1325 96.773 51.6075 96.7136 52.5574C96.5949 54.7541 96.5949 57.0101 96.7136 59.2068C96.8324 60.038 97.3667 60.6317 98.2573 60.6317C99.1478 60.6317 99.6821 60.1567 99.8009 59.2068C99.9196 58.7318 99.8009 58.2569 99.9196 57.7819C99.9196 57.6038 99.9196 57.4257 100.216 57.4257C100.513 57.4257 100.573 57.5445 100.573 57.7819C100.573 58.5537 100.573 59.2068 100.395 59.9786C100.038 60.9285 99.3259 61.2847 98.1979 61.2847C97.1292 61.2847 96.4762 60.691 96.1793 59.7411C95.8825 58.3756 96.12 57.1289 96.0606 56.1789Z" fill="white"/>
<path d="M130.788 55.8233C130.788 56.892 130.788 57.9013 130.788 58.9699C130.907 60.0386 131.441 60.5729 132.391 60.5729C133.222 60.5729 133.816 59.9792 133.935 58.9699C133.935 58.6137 133.935 58.1981 133.935 57.8419C133.935 57.6638 133.935 57.3669 134.232 57.3669C134.528 57.3669 134.588 57.545 134.588 57.7232C134.588 58.3762 134.588 59.0293 134.41 59.7417C134.113 60.6916 133.341 61.2853 132.213 61.1666C131.144 61.1666 130.491 60.6916 130.135 59.623C129.957 58.9699 129.957 58.3762 129.957 57.7232C129.957 56.1202 129.957 54.5172 129.957 52.8548C129.957 51.2519 130.788 50.3613 132.154 50.3613C133.757 50.3613 135.003 52.083 134.528 53.5673C134.41 53.7454 134.35 53.8641 134.232 53.8641C134.054 53.8641 133.875 53.7454 133.875 53.5673C133.875 53.2111 133.875 52.7955 133.875 52.4393C133.757 51.4894 133.222 50.8957 132.332 50.8957C131.441 50.8957 130.788 51.3706 130.788 52.3205C130.669 53.6266 130.788 54.7547 130.788 55.8233Z" fill="white"/>
<path d="M216.932 56.1797C216.932 54.8736 216.932 53.805 216.932 52.855C217.051 51.2521 217.882 50.3615 219.426 50.4803C220.851 50.599 221.979 52.4988 221.445 53.805C221.326 53.9831 221.266 53.9831 221.088 53.9831C220.91 53.9831 220.791 53.805 220.791 53.6269C220.791 53.2706 220.792 52.855 220.673 52.4988C220.554 51.6677 220.079 51.1927 219.248 51.1927C218.417 51.1927 217.704 51.6677 217.645 52.4988C217.467 54.7549 217.467 57.0703 217.645 59.3263C217.764 60.1575 218.298 60.6325 219.189 60.6325C220.079 60.6325 220.495 60.1575 220.732 59.3263C220.851 58.8514 220.851 58.3764 220.851 57.9015C220.851 57.6046 220.851 57.4265 221.207 57.4265C221.504 57.4265 221.504 57.6046 221.504 57.9015C221.504 58.5545 221.504 59.1482 221.326 59.8013C221.029 60.8699 220.257 61.3449 219.248 61.3449C218.12 61.3449 217.467 60.8699 217.17 59.8013C216.754 58.3764 216.932 57.1297 216.932 56.1797Z" fill="white"/>
<path d="M157.742 59.8604C158.395 57.0106 158.989 54.1609 159.642 51.3111C159.642 51.1924 159.642 51.0143 159.761 50.9549C159.761 50.6581 159.939 50.48 160.235 50.5987C160.592 50.7175 160.414 50.9549 160.414 51.1924C159.82 53.7453 159.345 56.2388 158.811 58.7917C158.692 59.3854 158.514 59.9197 158.454 60.5728C158.336 60.929 158.276 61.2259 157.801 61.2259C157.326 61.2259 157.208 60.929 157.148 60.6322C156.495 57.4856 155.842 54.339 155.13 51.3111C155.011 51.133 154.833 50.7175 155.308 50.6581C155.664 50.6581 155.664 50.9549 155.783 51.2518C156.436 54.2203 157.03 57.1294 157.683 60.0979C157.623 59.8604 157.623 59.8604 157.742 59.8604Z" fill="white"/>
<path d="M179.831 61.2258C178.288 61.2258 177.16 59.8009 177.575 58.3761C177.694 58.1979 177.694 58.0792 177.931 58.0792C178.169 58.0792 178.228 58.2573 178.228 58.4354C178.228 58.7916 178.228 59.2072 178.347 59.5041C178.525 60.1571 179 60.5727 179.772 60.6321C180.544 60.6321 181.078 60.3352 181.315 59.5634C181.672 58.4354 181.434 57.4855 180.484 56.8324C179.891 56.3575 179.238 55.8825 178.703 55.2888C177.872 54.517 177.575 53.5077 177.753 52.3203C178.05 51.0142 178.822 50.4205 180.247 50.5393C181.375 50.658 182.028 51.3704 182.147 52.6172C182.147 52.914 182.325 53.2703 181.85 53.2703C181.375 53.2703 181.553 52.914 181.494 52.6766C181.315 51.5485 180.722 50.9548 179.772 51.0736C178.644 51.1923 178.05 52.6172 178.525 53.8046C178.703 54.3983 179.178 54.7545 179.594 55.1107C180.187 55.5857 180.722 55.9419 181.197 56.4169C182.147 57.248 182.325 58.6729 181.85 59.8603C181.494 60.7508 180.781 61.2258 179.831 61.2258Z" fill="white"/>
<path d="M211.652 55.8223C211.652 54.2786 211.652 52.8538 211.652 51.3695C211.652 50.7758 211.83 50.5977 212.424 50.5977C213.374 50.5977 214.324 50.5977 215.274 50.5977C215.452 50.5977 215.868 50.479 215.868 50.8946C215.868 51.3102 215.571 51.1914 215.274 51.1914C214.502 51.1914 213.849 51.1914 213.077 51.1914C212.484 51.1914 212.305 51.3102 212.305 51.8445C212.424 52.9132 212.305 53.9224 212.305 54.9911C212.305 55.3473 212.424 55.5848 212.78 55.5848C213.433 55.5848 214.027 55.5848 214.68 55.5848C214.858 55.5848 215.155 55.5848 215.155 55.8816C215.155 56.1785 214.977 56.1785 214.68 56.1785C214.087 56.1785 213.552 56.1785 212.958 56.1785C212.484 56.1785 212.187 56.2972 212.305 56.8315C212.305 57.9002 212.305 58.9095 212.305 60.0375C212.305 60.5125 212.484 60.6906 212.958 60.6312C213.73 60.6312 214.502 60.6312 215.215 60.6312C215.393 60.6312 215.808 60.5125 215.808 60.928C215.808 61.2843 215.511 61.2249 215.333 61.2249C214.265 61.2249 213.315 61.2249 212.305 61.2249C211.712 61.2249 211.652 61.0468 211.652 60.5718C211.652 58.8501 211.652 57.3065 211.652 55.8223Z" fill="white"/>
<path d="M118.914 55.8222C118.914 54.2786 118.914 52.8538 118.914 51.3695C118.914 50.7758 119.033 50.5383 119.686 50.5977C120.636 50.7165 121.704 50.5977 122.654 50.5977C122.832 50.5977 123.248 50.5977 123.129 50.9539C123.129 51.2508 122.832 51.2508 122.654 51.2508C121.883 51.2508 121.051 51.2508 120.28 51.2508C119.923 51.2508 119.686 51.3695 119.686 51.8445C119.686 52.9131 119.686 53.9224 119.686 55.0504C119.686 55.5254 119.864 55.6441 120.28 55.6441C120.873 55.6441 121.408 55.6441 122.001 55.6441C122.179 55.6441 122.595 55.5254 122.595 55.941C122.595 56.4159 122.239 56.2972 122.001 56.2972C121.408 56.2972 120.873 56.2972 120.398 56.2972C119.923 56.2972 119.745 56.4159 119.745 56.8909C119.745 57.9595 119.745 58.9688 119.745 60.0969C119.745 60.6905 119.923 60.7499 120.398 60.7499C121.17 60.7499 121.942 60.7499 122.654 60.7499C122.951 60.7499 123.129 60.7499 123.129 61.1061C123.129 61.403 122.832 61.403 122.654 61.403C121.586 61.403 120.636 61.403 119.627 61.403C119.152 61.403 118.973 61.2842 118.973 60.7499C118.914 58.9095 118.914 57.3065 118.914 55.8222Z" fill="white"/>
<path d="M163.324 55.8219C163.324 54.2782 163.324 52.794 163.324 51.2504C163.324 50.6567 163.502 50.4786 164.096 50.4786C165.046 50.4786 166.115 50.4786 167.064 50.4786C167.243 50.4786 167.658 50.3599 167.539 50.7754C167.539 51.0723 167.243 51.0723 167.064 51.0723C166.293 51.0723 165.521 51.0723 164.808 51.0723C164.334 51.0723 164.037 51.191 164.155 51.7253C164.155 52.794 164.155 53.8033 164.155 54.8719C164.155 55.3469 164.274 55.4656 164.749 55.4656C165.402 55.4656 165.996 55.4656 166.649 55.4656C166.827 55.4656 167.005 55.4656 167.005 55.7625C167.005 56.0593 166.827 56.1187 166.649 56.1187C166.055 56.1187 165.402 56.1187 164.868 56.1187C164.393 56.1187 164.215 56.2374 164.215 56.7124C164.215 57.8404 164.215 58.9091 164.215 60.0371C164.215 60.512 164.393 60.6308 164.808 60.6308C165.58 60.6308 166.411 60.6308 167.183 60.6308C167.48 60.6308 167.658 60.6308 167.658 60.987C167.658 61.2839 167.361 61.2839 167.183 61.2839C166.115 61.2839 165.105 61.2839 164.037 61.2839C163.562 61.2839 163.443 61.1057 163.443 60.6308C163.324 58.9091 163.324 57.4248 163.324 55.8219Z" fill="white"/>
<path d="M151.865 50.5987C152.34 50.5987 152.815 50.5987 153.29 50.5987C153.468 50.5987 153.883 50.48 153.883 50.8956C153.883 51.3111 153.527 51.1924 153.29 51.1924C152.518 51.1924 151.746 51.1924 151.033 51.1924C150.559 51.1924 150.38 51.3705 150.44 51.8455C150.44 52.9141 150.44 53.9234 150.44 54.9921C150.44 55.467 150.618 55.5858 151.093 55.5858C151.687 55.5858 152.221 55.5858 152.815 55.5858C152.993 55.5858 153.408 55.467 153.29 55.8826C153.29 56.1794 152.993 56.1794 152.815 56.1794C152.221 56.1794 151.568 56.1794 151.033 56.1794C150.559 56.1794 150.44 56.2982 150.44 56.7731C150.44 57.9012 150.44 58.9698 150.44 60.0978C150.44 60.5728 150.618 60.6915 151.033 60.6915C151.805 60.6915 152.577 60.6915 153.29 60.6915C153.586 60.6915 153.883 60.5728 153.883 61.0478C153.883 61.404 153.527 61.3446 153.29 61.3446C152.221 61.3446 151.271 61.3446 150.262 61.3446C149.787 61.3446 149.668 61.1665 149.668 60.6915C149.668 57.6637 149.668 54.5171 149.668 51.4893C149.668 50.8956 149.846 50.7174 150.44 50.7174C150.796 50.5987 151.271 50.5987 151.865 50.5987Z" fill="white"/>
<path d="M75.5767 56.0601C76.2298 54.2791 76.8235 52.6167 77.3578 51.1325C77.4766 50.8356 77.4766 50.4794 77.9515 50.5388C78.4265 50.7169 78.0703 51.0137 77.9515 51.3106C77.6547 52.0824 77.4766 52.9136 77.1203 53.5666C76.1704 55.7633 75.6955 57.96 75.8736 60.3348C75.8736 60.6316 76.1704 61.1066 75.5174 61.1066C74.9237 61.1066 75.1612 60.6316 75.1612 60.3348C75.6361 57.1882 74.2112 54.5165 73.2613 51.7262C73.1426 51.5481 73.0832 51.2512 72.9645 51.0731C72.8457 50.895 72.7864 50.7169 73.0832 50.5981C73.2613 50.4794 73.5582 50.5981 73.5582 50.895C73.7363 51.4887 73.9144 51.9636 74.1519 52.498C74.6862 53.626 75.1018 54.754 75.5767 56.0601Z" fill="white"/>
<path d="M258.612 56.0613C259.205 54.4584 259.74 52.9148 260.215 51.4899C260.333 51.3118 260.393 51.0149 260.511 50.8368C260.63 50.6587 260.69 50.4806 260.986 50.54C261.283 50.5993 261.165 50.8962 261.105 51.1337C260.808 51.9055 260.511 52.7366 260.274 53.5084C259.324 55.7051 258.73 57.9612 259.027 60.4547C259.027 60.7515 259.205 61.2265 258.671 61.2265C258.137 61.2265 258.315 60.7515 258.315 60.5734C258.79 57.5456 257.484 54.7552 256.534 52.0242C256.415 51.8461 256.356 51.668 256.356 51.5493C256.356 51.2524 255.881 50.8962 256.356 50.7181C256.831 50.54 256.831 51.0149 256.949 51.3711C257.424 52.7366 257.959 54.2803 258.612 56.0613Z" fill="white"/>
<path d="M137.916 56.0608C138.569 54.2797 139.163 52.7361 139.697 51.1331C139.816 50.8362 139.816 50.48 140.291 50.5394C140.766 50.7175 140.41 51.0144 140.41 51.3112C140.113 52.083 139.935 52.9142 139.579 53.5672C138.629 55.7639 138.154 57.9606 138.332 60.3354C138.332 60.6322 138.629 61.1072 137.976 61.1072C137.382 61.1072 137.62 60.6322 137.62 60.3354C138.094 57.3075 136.788 54.5172 135.72 51.7862C135.601 51.6081 135.542 51.3112 135.423 51.1331C135.304 50.955 135.126 50.6581 135.542 50.5394C135.898 50.4207 136.017 50.6581 136.135 50.8956C136.313 51.4893 136.492 52.0236 136.788 52.6173C137.145 53.686 137.501 54.8734 137.916 56.0608Z" fill="white"/>
<path d="M86.5584 56.0609C86.5584 54.7548 86.5584 53.3299 86.5584 51.9644C86.5584 51.1926 86.2616 51.0145 85.6085 51.1332C85.2523 51.1332 84.4805 51.4301 84.4805 50.8364C84.4805 50.3614 85.1335 50.5395 85.5491 50.5395C86.6771 50.5395 87.7458 50.5395 88.8738 50.5395C89.0519 50.5395 89.4675 50.5396 89.3488 50.8958C89.3488 51.1926 89.0519 51.1926 88.8738 51.1926C88.3989 51.1926 87.7458 51.0145 87.3302 51.3114C86.974 51.6676 87.2115 52.4394 87.2115 53.0331C87.2115 55.5266 87.2115 58.0795 87.2115 60.5136C87.2115 60.8105 87.3896 61.1667 86.9146 61.2855C86.3209 61.2855 86.5584 60.9292 86.5584 60.6324C86.5584 58.9107 86.5584 57.4858 86.5584 56.0609Z" fill="white"/>
<path d="M207.972 56.0605C207.972 54.7544 207.972 53.3889 207.972 52.0828C207.972 51.3109 207.794 51.0141 207.023 51.1328C206.666 51.1328 205.895 51.4891 205.895 50.836C205.895 50.361 206.548 50.6579 206.963 50.5391C208.032 50.5391 209.041 50.5391 210.169 50.5391C210.347 50.5391 210.763 50.4204 210.763 50.836C210.763 51.2516 210.466 51.1328 210.288 51.1328C208.685 51.3109 208.685 51.3109 208.685 52.9139C208.685 55.4074 208.685 57.9603 208.685 60.3945C208.685 60.6913 208.863 61.0476 208.388 61.0476C207.794 61.0476 208.032 60.5726 208.032 60.2758C207.972 58.9103 207.972 57.4854 207.972 56.0605Z" fill="white"/>
<path d="M240.029 55.8232C240.029 54.2796 240.029 52.7953 240.029 51.2517C240.029 50.9549 239.91 50.5986 240.385 50.5986C240.86 50.5986 240.741 50.9549 240.741 51.2517C240.741 53.9827 240.86 56.7731 240.741 59.5041C240.741 60.3352 241.038 60.5727 241.81 60.454C242.404 60.3353 242.938 60.454 243.413 60.454C243.71 60.454 244.007 60.3353 244.066 60.7508C244.066 61.2258 243.71 61.0477 243.472 61.0477C242.522 61.0477 241.691 61.0477 240.741 61.0477C240.148 61.0477 240.088 60.8696 240.088 60.3946C240.029 58.9104 240.029 57.3074 240.029 55.8232Z" fill="white"/>
<path d="M161.544 55.8825C161.544 54.3389 161.544 52.7359 161.544 51.2517C161.544 50.9549 161.366 50.5986 161.9 50.5986C162.494 50.5986 162.257 50.9549 162.257 51.2517C162.257 54.3983 162.257 57.4261 162.257 60.5727C162.257 60.7508 162.435 61.1664 161.96 61.1664C161.485 61.1664 161.603 60.8102 161.603 60.5134C161.544 58.9104 161.544 57.4261 161.544 55.8825Z" fill="white"/>
<path d="M171.045 59.207C171.163 59.5039 171.045 59.8007 170.867 60.0382C170.688 59.7414 170.748 59.4445 170.748 59.2664C170.748 59.3258 170.867 59.3258 171.045 59.207Z" fill="white"/>
<path d="M54.0225 9.81055C54.8535 9.81055 54.9726 10.1073 54.9727 10.8789V64.0742C54.9727 64.9054 54.6751 65.1426 53.9033 65.1426H19.1729C18.5198 65.1426 18.0443 64.9651 17.5693 64.4902C11.8699 58.7908 6.2893 53.0911 0.589844 47.3916C0.233626 47.0354 -0.00390625 46.6193 -0.00390625 46.085V10.7607C-0.00390625 9.98894 0.293223 9.81055 0.946289 9.81055H54.0225ZM28.1943 19.0723C27.7197 18.9537 27.5416 19.0722 27.4229 19.5469C27.126 20.8529 26.7695 22.2184 26.4727 23.5244C26.2946 24.2368 26.117 24.2369 25.5234 24.1182C24.5142 23.8213 23.5638 23.5248 22.4951 23.3467C21.664 23.1685 20.536 22.3972 19.9424 22.8721C19.3489 23.3471 19.4677 24.5937 19.1709 25.4248C18.9928 25.8997 19.0519 26.1371 19.6455 26.2559C20.239 26.3746 20.892 26.5524 21.5449 26.7305C22.4947 27.0273 22.8518 27.7993 22.6738 28.749C21.5458 33.3798 20.2989 38.0704 19.1709 42.7012C18.9928 43.4729 18.5177 43.8293 17.7461 43.6514C17.0931 43.592 16.5585 43.473 15.9648 43.2949C15.6086 43.1762 15.3119 43.1764 15.1338 43.6514C14.7776 44.4825 14.3621 45.373 14.0059 46.2041C13.7684 46.6789 13.8867 46.8568 14.3613 46.9756C16.0237 47.3912 17.7461 47.8664 19.4678 48.2227C19.9425 48.2821 20.1204 48.4602 19.9424 49.0537C19.6455 49.7068 19.5267 50.36 19.3486 51.1318C19.1705 51.963 18.5173 53.0319 18.9922 53.5068C19.3485 54.1004 20.5361 54.1002 21.3672 54.2783H21.4863C21.8424 54.5156 22.02 54.3967 22.1387 53.9219C22.3168 52.8533 22.4952 51.903 22.792 50.9531C23.2668 49.0537 23.2673 49.0538 25.167 49.6475C25.6418 49.7662 25.7602 49.9442 25.6416 50.4189C25.4041 51.072 25.226 51.8444 25.0479 52.6162C24.9884 53.4473 24.3362 54.3976 24.6924 54.9912C25.0489 55.6436 26.1766 55.4659 26.9482 55.7627C27.601 55.9407 27.7787 55.7624 27.8975 55.1689C28.1349 53.9222 28.5514 52.7936 28.7295 51.5469C28.8483 50.6569 29.2041 50.5974 29.9756 50.7754C31.2223 51.0722 32.4693 51.191 33.7754 51.0723C37.2188 50.8942 39.4749 49.1132 40.4248 45.6699C41.256 42.7014 40.6026 40.326 37.4561 38.5449C37.4576 38.5434 37.5773 38.4271 37.8721 38.5449C40.128 37.7731 41.2559 36.0518 41.5527 33.7959C41.8496 31.4211 40.8994 29.5805 38.8809 28.2744C38.5247 27.9777 38.05 27.7996 37.5752 27.5029C36.8629 27.1468 35.4979 27.0277 35.3193 26.375C35.1412 25.6032 35.7349 24.5343 35.9131 23.7031C35.9725 22.9314 36.7442 21.9218 36.2695 21.3281C35.7946 20.7344 34.6066 20.8535 33.7754 20.5566C33.4193 20.3192 33.2408 20.4374 33.1221 20.9121C32.944 21.862 32.6478 22.6937 32.4697 23.6436C31.9948 25.6028 31.9942 25.6033 29.9756 24.9502C29.6194 24.7721 29.5014 24.653 29.6201 24.2969C29.9169 23.6439 30.0348 22.8718 30.2129 22.2188C30.391 21.4469 31.0447 20.4374 30.6885 19.8438C30.2135 19.2501 29.0255 19.3691 28.1943 19.0723Z" fill="#0099FD"/>
<path d="M60.8555 10.0498C63.5865 10.1685 66.3774 9.8721 69.1084 10.1689C73.2048 10.6439 74.8073 12.2473 75.2822 16.3438C75.4603 17.9466 75.4608 19.49 75.1641 21.0928C74.8078 22.9332 73.9168 24.4768 72.1357 25.4268C74.9853 26.6735 75.7579 29.0483 75.8174 31.7197C75.9361 33.6196 75.9949 35.6388 75.6387 37.4199C74.9856 40.6256 72.7892 42.6438 69.4648 42.7627C66.4964 42.8814 63.5866 42.7631 60.6182 42.8818C59.9653 42.8818 60.0244 42.5249 60.0244 42.1094V10.8818C60.0244 10.2289 60.1434 10.0499 60.8555 10.0498ZM65.6621 28.2764C65.3059 28.1577 65.1875 28.3948 65.1875 28.751V37.7754C65.1877 38.1313 65.4251 38.25 65.7812 38.25C66.6717 38.25 67.622 38.3687 68.4531 38.25C69.8776 38.1312 70.5308 37.4782 70.709 36.0537C70.8277 35.2225 70.8271 34.3312 70.8271 33.5C70.7085 32.5503 70.7086 31.6006 70.5898 30.7695C70.4117 29.1072 69.5209 28.3951 67.918 28.2764H65.6621ZM65.7822 14.7998C65.2483 14.6813 65.13 14.9775 65.1299 15.4521V19.0742C65.1299 19.7273 65.1297 20.4995 65.0703 21.2119C65.0703 23.6455 65.0703 23.6459 67.5635 23.4678C68.9883 23.349 69.7608 22.5766 70.0576 21.2705C70.3544 19.727 70.3544 18.2427 70.0576 16.6992C69.8795 15.4525 69.1069 14.7998 67.8008 14.7998C67.0885 14.7998 66.4352 14.9185 65.7822 14.7998Z" fill="white"/>
<path d="M121.171 16.9951C121.349 11.1771 125.445 9.39623 130.017 9.87109C134.172 10.346 136.488 13.0173 136.548 17.4697C136.845 20.4976 136.785 23.5259 136.785 26.5537V35.459C136.785 36.7651 136.488 38.1312 135.954 39.3779C135.182 40.9808 134.054 42.1085 132.332 42.7021C130.135 43.4739 127.88 43.5332 125.564 42.7021C122.537 41.5741 121.29 39.0212 121.171 36.0527C121.052 29.7002 120.993 23.3476 121.171 16.9951ZM129.067 14.3232C127.643 14.3232 126.87 14.9167 126.514 16.2227C126.336 16.6975 126.336 17.1727 126.336 17.6475V35.2217C126.336 35.6965 126.336 36.0525 126.455 36.5273C126.811 37.8928 127.583 38.5459 129.008 38.5459C130.373 38.5458 131.204 37.8334 131.501 36.5273C131.62 36.0524 131.62 35.5775 131.62 35.1025V26.5537C131.62 23.6446 131.62 20.7945 131.738 17.7666C131.738 17.2917 131.679 16.6976 131.561 16.2227C131.145 14.9763 130.373 14.3234 129.067 14.3232Z" fill="white"/>
<path d="M198.71 50.5986H199.778C201.797 50.5986 202.51 51.1922 202.629 53.1514C202.748 55.1699 202.807 57.1295 202.51 59.0293C202.332 60.4539 201.56 61.048 200.254 61.1074C197.998 61.2262 197.998 61.2256 197.998 58.9102C197.879 57.901 197.879 56.8324 197.879 55.8232V51.3701C197.879 50.7173 198.057 50.5393 198.71 50.5986ZM199.424 51.1924C198.83 51.1924 198.652 51.2521 198.652 51.8457V55.8232C198.652 57.2481 198.653 58.5542 198.771 59.8604C198.771 60.1572 198.652 60.3949 198.949 60.5137C200.374 61.1666 201.977 60.2162 201.977 58.6133V53.6855C201.976 51.6673 201.442 51.1924 199.424 51.1924Z" fill="white"/>
<path d="M145.215 50.4795C148.658 50.1827 148.658 51.7858 148.421 54.5762C148.243 55.3479 147.767 55.7044 147.114 56.0605C148.183 56.4168 148.421 57.1886 148.421 58.0791C148.421 58.9695 148.302 59.8008 148.539 60.6318C148.539 60.8099 148.836 60.9877 148.421 61.1064C148.124 61.2252 147.827 60.9875 147.827 60.75C147.709 60.3939 147.708 59.9782 147.708 59.6221V58.6729C147.708 56.8918 146.936 56.1785 145.036 56.416C144.562 56.5348 144.681 56.7726 144.681 57.0693V60.5723C144.681 60.7503 144.799 61.0472 144.384 61.166C144.028 61.166 144.027 60.8691 144.027 60.5723V51.0732C144.027 50.5983 144.206 50.4795 144.621 50.4795H145.215ZM145.571 51.1914C144.919 51.0729 144.504 51.2512 144.622 52.0225C144.741 52.4974 144.622 52.9733 144.622 53.4482V55.3477C144.622 55.5257 144.622 55.7035 144.8 55.8223C145.156 56.0597 147.056 55.7035 147.353 55.2285C147.946 54.2193 147.828 53.0911 147.472 52.0225C147.175 51.073 146.343 51.3101 145.571 51.1914Z" fill="white"/>
<path d="M69.876 50.4795C71.004 50.5982 71.6576 51.2515 71.7764 52.2607C71.895 52.8544 71.7764 53.5077 71.7764 54.042C71.7763 55.051 71.5385 55.4076 70.5293 56.0605C71.4792 56.4168 71.7764 57.1292 71.7764 58.0791C71.7763 58.9102 71.6571 59.8008 71.8945 60.6318C71.8947 60.8099 72.1915 60.9877 71.7764 61.1064C71.4795 61.2252 71.3014 61.1064 71.1826 60.8096C71.0639 60.5128 71.0635 60.216 71.0635 59.9785V58.6729C71.0635 56.8919 70.2327 56.1787 68.3926 56.416C67.9177 56.5347 68.0361 56.7726 68.0361 57.0693V60.5723C68.0361 60.7503 68.1546 61.0472 67.7393 61.166C67.383 61.166 67.3828 60.8691 67.3828 60.5723V51.0732C67.3828 50.7171 67.5015 50.4796 67.8574 50.4795H69.876ZM70.8828 52.082C70.6452 51.3697 69.4571 50.8944 68.3887 51.251L68.0332 51.4883V55.2881C68.0332 55.4661 67.9738 55.644 68.1514 55.7627C68.6263 56.2377 70.7047 55.5847 70.8828 54.9316C71.1796 53.9818 71.1796 53.0318 70.8828 52.082Z" fill="white"/>
<path d="M114.224 50.4219C117.667 50.1252 117.667 51.8472 117.37 54.5781C117.311 55.3495 116.835 55.7054 116.183 56.0615C117.251 56.4177 117.488 57.1898 117.488 58.1396C117.488 58.9708 117.37 59.7432 117.607 60.6338C117.608 60.8118 117.904 60.9897 117.488 61.1084C117.192 61.2269 116.895 61.108 116.895 60.752C116.776 60.099 116.776 59.4457 116.776 58.7334C116.776 56.8337 116.301 56.3584 114.282 56.3584C113.808 56.3585 113.63 56.537 113.63 57.0117V60.5146C113.63 60.6927 113.748 60.9896 113.333 61.1084C112.977 61.1084 112.977 60.9302 112.977 60.5146V51.0156C112.977 50.5407 113.155 50.4219 113.57 50.4219H114.224ZM114.757 51.1934C113.985 51.1934 113.688 51.3717 113.807 52.1436V53.4492C113.807 54.1023 113.806 54.6372 113.925 55.3496C113.925 55.5276 113.807 55.7056 114.104 55.8242C115.41 56.4178 116.953 55.4678 116.953 54.043V53.3896C116.953 51.6684 116.478 51.3121 114.757 51.1934Z" fill="white"/>
<path d="M107.935 50.5967H108.766C109.894 50.5967 111.141 50.4774 111.734 51.8428C112.269 53.327 111.794 55.1087 110.547 56.0586C111.497 56.4148 111.794 57.186 111.794 58.1357C111.794 58.9075 111.675 59.739 111.912 60.5107C111.912 60.6888 112.268 60.9857 111.794 61.1045C111.438 61.2232 111.2 60.986 111.2 60.6299C111.2 60.155 111.081 59.6799 111.081 59.2051V57.958C110.962 56.7113 109.3 55.8798 108.231 56.4141C107.935 56.5921 108.054 56.7706 108.054 57.0674V60.5703C108.054 60.8671 108.172 61.164 107.697 61.1641C107.222 61.1641 107.341 60.8078 107.341 60.5703V51.1895C107.341 50.8334 107.46 50.5374 107.935 50.5967ZM111.02 52.3184C110.723 51.3686 109.892 51.0123 108.467 51.1904C107.636 51.3685 108.229 52.0221 108.11 52.4971C107.992 52.7937 108.11 53.0904 108.11 53.4463C108.11 54.0994 108.111 54.6342 107.992 55.3467C107.992 55.5247 107.992 55.7026 108.17 55.8213C109.001 56.2962 110.841 55.5245 111.02 54.6934C111.198 53.9216 111.198 53.0902 111.02 52.3184Z" fill="white"/>
<path d="M247.451 50.4795C248.579 50.5982 249.47 51.3113 249.47 52.6768C249.529 53.6858 249.529 54.7541 249.529 55.8818V58.9102C249.529 60.335 248.698 61.166 247.451 61.166C246.026 61.2847 245.077 60.5723 244.958 59.1475C244.78 56.8916 244.78 54.6951 244.958 52.3799C245.077 50.9551 246.026 50.3608 247.451 50.4795ZM247.157 51.0732C246.207 51.0732 245.732 51.6669 245.613 52.7949V58.7314C245.732 59.8001 246.207 60.4541 247.157 60.4541C248.107 60.5726 248.879 59.9784 248.879 58.8506C248.998 56.832 248.998 54.7537 248.879 52.6758C248.76 51.5482 248.107 51.0734 247.157 51.0732Z" fill="white"/>
<path d="M236.825 50.5391C238.072 50.6579 238.843 51.4893 238.902 52.9141V58.8506C238.902 60.2753 238.072 61.1067 236.825 61.2256C235.4 61.3443 234.45 60.6317 234.331 59.1475C234.212 56.9509 234.212 54.7544 234.331 52.6172C234.45 51.1923 235.4 50.4203 236.825 50.5391ZM238.189 52.4375C238.071 51.3691 237.418 50.894 236.468 51.0127C235.637 51.1314 235.043 51.6659 235.043 52.7344V58.6123C235.043 59.8588 235.577 60.5115 236.646 60.5117C237.595 60.5117 238.13 59.859 238.249 58.6123V55.8809C238.13 54.753 238.249 53.6248 238.189 52.4375Z" fill="white"/>
<path d="M92.9121 50.4795C94.0401 50.5982 94.9307 51.3113 94.9307 52.6768C94.99 53.6859 94.9902 54.7549 94.9902 55.8828V58.9102C94.9902 60.335 94.1589 61.166 92.9121 61.166C91.4873 61.2847 90.5377 60.5723 90.4189 59.1475C90.2409 56.8916 90.2409 54.6951 90.4189 52.3799C90.5377 50.9551 91.4873 50.3608 92.9121 50.4795ZM92.6748 51.0732C91.7249 51.0732 91.2496 51.6669 91.1309 52.7949V55.8232C91.1308 56.8322 91.0122 57.7818 91.1309 58.7314C91.2496 59.8001 91.7249 60.4541 92.6748 60.4541C93.6246 60.5727 94.3965 59.9785 94.3965 58.8506C94.5152 56.832 94.5152 54.7537 94.3965 52.6758C94.2776 51.5482 93.6244 51.0733 92.6748 51.0732Z" fill="white"/>
<path d="M188.079 50.4795C188.732 50.4795 188.673 50.9541 188.732 51.251C189.385 54.2788 190.039 57.3066 190.751 60.4531C190.869 60.5124 190.929 60.6314 190.87 60.6318C190.989 60.9877 190.869 61.1064 190.691 61.1064C190.395 61.1064 190.335 61.1063 190.217 60.8096C190.098 60.3348 190.039 59.9786 189.92 59.5039C189.801 58.9102 189.563 58.7318 188.97 58.8506H188.376C186.476 58.8506 186.477 58.8508 186.002 60.6318C185.883 60.9287 185.883 61.2845 185.526 61.1064C185.052 60.9877 185.349 60.6312 185.408 60.4531C186.061 57.4254 186.714 54.3975 187.427 51.251C187.545 50.8949 187.545 50.4796 188.079 50.4795ZM188.019 51.668C187.544 53.7459 187.069 55.943 186.594 58.1396H189.266C189.503 58.1396 189.741 58.139 189.622 57.7832C189.147 55.824 188.671 53.7461 188.196 51.7275C188.188 51.7275 188.076 51.7252 188.019 51.668Z" fill="white"/>
<path d="M80.0293 50.4795C83.2353 50.3608 83.7109 50.8362 83.7109 54.1016C83.7109 56.1199 83.0574 56.773 81.0391 56.6543C80.2079 56.6543 79.9113 56.8323 79.9707 57.7822C80.0894 58.7321 79.9707 59.5638 79.9707 60.5137C79.9709 60.6918 80.0888 60.9887 79.6738 61.1074C79.3178 61.1074 79.3174 60.8104 79.3174 60.5137C79.258 59.0295 79.2578 57.4857 79.2578 55.8828V51.252C79.2578 50.6583 79.4358 50.5982 80.0293 50.4795ZM80.9756 51.1328C80.2038 51.0141 79.7885 51.2518 79.9072 52.083C80.0259 52.5579 79.9072 53.152 79.9072 53.627C79.9072 54.2799 79.9065 54.933 79.9658 55.5859C79.9658 55.8827 79.9661 56.061 80.3223 56.1797C82.1034 56.5359 83.0537 55.7635 83.0537 53.9824V53.2109C82.9943 51.608 82.5784 51.2516 80.9756 51.1328Z" fill="white"/>
<path d="M29.799 46.3837C28.0773 46.265 26.4743 45.9087 24.7526 45.4338C24.3964 45.3151 24.1589 45.1369 24.3964 44.7807C24.8713 42.7622 25.3463 40.803 25.94 38.9031C26.0587 38.6063 26.0587 38.3094 26.5337 38.4282C28.5522 38.9031 30.6302 39.3781 32.4113 40.5061C33.4799 41.1592 34.3111 42.1091 34.1924 43.4746C34.0736 45.0776 33.0643 46.1462 31.4614 46.4431C30.8677 46.3837 30.3927 46.3837 29.799 46.3837Z" fill="#0099FD"/>
<path d="M31.5796 35.875C29.9766 35.875 28.6111 35.5188 27.305 35.1032C26.83 34.9845 26.83 34.8064 26.9488 34.3314C27.4237 32.5503 27.78 30.8286 28.2549 28.9881C28.3736 28.6913 28.433 28.5132 28.8486 28.6319C30.6297 29.1069 32.5295 29.4037 34.0731 30.6505C34.9043 31.3035 35.3199 32.2535 35.1418 33.3221C34.9637 34.3908 34.37 35.1032 33.3607 35.5188C32.6483 35.875 32.0546 35.9344 31.5796 35.875Z" fill="#0099FD"/>
</g>
<defs>
<clipPath id="clip0_185_1926">
<rect width="263.333" height="73.7047" fill="white" transform="translate(0 0.147461)"/>
</clipPath>
</defs>
</svg>
