<svg width="264" height="74" viewBox="0 0 264 74" fill="none" xmlns="http://www.w3.org/2000/svg">
<g clip-path="url(#clip0_185_2013)">
<path d="M38.6016 55.9066H64.8116V48.9825H46.522V40.5048H61.7042V33.5976H46.522V25.7785H64.9467V18.8545H38.6016V55.9066Z" fill="white"/>
<path d="M96.2009 42.0751L79.009 18.7529H67.1875L70.8691 23.4309V55.9063H78.8064V31.5877L96.5387 55.7881H104.121V18.7529H96.2009V42.0751Z" fill="white"/>
<path d="M28.0095 36.822C31.4546 36.1465 34.3594 32.904 34.3594 28.3442C34.3594 23.4299 30.7791 18.8701 23.6524 18.8701H0.667969L4.24821 23.4467V55.9053H24.4462C31.5898 55.9053 35.2713 51.4469 35.2713 45.8739C35.1531 41.2973 32.0288 37.3793 28.0095 36.822ZM12.1518 25.7773H21.8623H22.0987C24.7839 25.7773 26.4558 27.3478 26.4558 29.6953C26.4558 32.0427 24.7839 33.6133 22.0987 33.6133H12.1686L12.1518 25.7773ZM22.4196 48.9813H12.1518V40.5035H22.4196C25.4257 40.5035 27.0976 42.4119 27.0976 44.7424C27.1145 47.4276 25.3243 48.9813 22.4196 48.9813Z" fill="white"/>
<path d="M212.407 42.1767H216.527V46.5338C215.075 47.8679 212.069 49.3203 208.928 49.3203C202.342 49.3203 197.664 44.3046 197.664 37.4988C197.664 30.676 202.342 25.6603 208.928 25.6603C212.711 25.6603 215.751 27.7713 217.423 30.3383L223.671 26.8931C220.986 22.6543 216.308 18.8545 208.827 18.8545C198.322 18.8545 189.625 26.1163 189.625 37.3805C189.625 48.6448 198.221 55.9066 208.827 55.9066C215.295 55.9066 220.429 53.2214 224.009 49.219V35.4891H207.053L212.407 42.1767Z" fill="white"/>
<path d="M178.383 42.0751L161.191 18.7529H149.387L153.068 23.4309V55.9063H160.989V31.5877L178.721 55.7881H186.321V18.7529H178.383V42.0751Z" fill="white"/>
<path d="M249.596 18.7529H234.313L237.994 23.4309L237.319 25.2041L225.48 55.9063H234.414L236.762 49.6578H244.648H252.721L255.068 55.9063H264.002L249.596 18.7529ZM238.754 42.6324L244.547 26.6734L250.339 42.6324H244.462H238.754Z" fill="white"/>
<path d="M146.971 18.7529H139.051V55.9232H146.971V18.7529Z" fill="white"/>
<path d="M135.674 25.2044V18.8545H107.488V25.7785H125.001L107.488 49.5567V55.9066H135.708V48.9825H117.739L135.674 25.2044Z" fill="white"/>
</g>
<defs>
<clipPath id="clip0_185_2013">
<rect width="263.333" height="73.7047" fill="white" transform="translate(0.667969 0.147461)"/>
</clipPath>
</defs>
</svg>
