<svg width="287" height="80" viewBox="0 0 287 80" fill="none" xmlns="http://www.w3.org/2000/svg">
<path d="M44.4403 45.2129C43.5964 45.7285 42.612 45.8223 41.862 45.4004C40.9244 44.8378 40.3619 43.5721 40.3619 41.8376V36.5404C40.3619 34.009 39.3774 32.1807 37.6898 31.712C34.8302 30.8682 32.6738 34.384 31.8769 35.6966L26.8141 43.8065V33.8215C26.7672 31.5244 26.0172 30.165 24.6108 29.7431C23.6733 29.4618 22.2669 29.6025 20.9074 31.6651L9.60981 49.76C8.10971 46.9005 7.31279 43.7128 7.31279 40.4782C7.31279 29.5556 16.079 20.6956 26.8141 20.6956C37.5492 20.6956 46.3154 29.5556 46.3154 40.4782V40.5251V40.5719C46.4091 42.6814 45.7528 44.3691 44.4403 45.2129ZM50.6282 40.4782V40.4313V40.3844C50.5813 27.1179 39.8931 16.2891 26.8141 16.2891C13.6882 16.2891 3 27.1179 3 40.4782C3 53.7916 13.6882 64.6673 26.8141 64.6673C32.8614 64.6673 38.5805 62.3702 42.987 58.1981C43.8777 57.3543 43.9246 55.9948 43.0808 55.1041C42.2839 54.2135 40.9244 54.1666 40.0337 54.9635C40.0337 54.9635 40.0337 54.9635 39.9868 55.0104C36.4241 58.3856 31.6425 60.3076 26.7203 60.3076C20.9543 60.3076 15.7977 57.7762 12.235 53.7447L22.4075 37.4311V44.9785C22.4075 48.5881 23.8139 49.76 24.9858 50.0882C26.1578 50.4163 27.9392 50.1819 29.8612 47.1349L35.4397 38.0874C35.6272 37.8061 35.7678 37.5248 35.9553 37.3373V41.9314C35.9553 45.3066 37.3148 48.0255 39.6587 49.3381C41.7682 50.557 44.4403 50.4163 46.6435 49.0569C49.3625 47.2755 50.8157 44.1815 50.6282 40.4782ZM83.8179 32.2276C84.3804 32.5558 84.8961 33.3527 84.8961 34.0559C84.8961 35.1809 83.9585 36.1185 82.8803 36.1185C82.599 36.1185 82.3646 36.0247 82.1303 35.9779C80.8645 35.0403 79.2707 34.4309 77.5831 34.4309C73.5984 34.4309 70.8795 37.6655 70.8795 41.697C70.8795 45.7285 73.6453 48.9162 77.5831 48.9162C79.552 48.9162 81.3333 48.1193 82.6459 46.8536C82.9741 46.6192 83.396 46.4786 83.8179 46.4786C84.8961 46.4786 85.7399 47.3224 85.7399 48.4006C85.7399 49.1037 85.318 49.7132 84.8023 50.0413C82.8803 51.682 80.302 52.7602 77.63 52.7602C71.5358 52.7602 66.5667 47.7443 66.5667 41.5564C66.5667 35.3685 71.5358 30.3525 77.63 30.3525C79.8801 30.3056 82.0365 31.0088 83.8179 32.2276ZM94.9749 36.9154C99.147 36.9154 102.616 40.4313 102.616 44.791C102.616 49.1037 99.1001 52.8071 94.9749 52.8071C90.6152 52.8071 87.0056 49.1506 87.0056 44.791C87.0056 40.4313 90.6152 36.9154 94.9749 36.9154ZM94.928 48.9162C96.7562 48.9162 98.3032 47.1817 98.3032 44.8378C98.3032 42.4939 96.7562 40.9938 94.928 40.9938C92.9591 40.9938 91.3184 42.447 91.3184 44.8378C91.3184 47.1349 92.9591 48.9162 94.928 48.9162ZM105.241 50.3695V39.3062C105.241 38.0874 106.179 37.1029 107.398 37.1029C108.57 37.1029 109.554 38.0874 109.554 39.3062V50.3695C109.554 51.5883 108.57 52.5727 107.398 52.5727C106.226 52.5727 105.241 51.5414 105.241 50.3695ZM104.913 32.9308C104.913 31.4776 106.038 30.3525 107.398 30.3525C108.804 30.3525 109.929 31.5244 109.929 32.9308C109.929 34.3371 108.804 35.4622 107.398 35.4622C105.991 35.4153 104.913 34.2903 104.913 32.9308ZM117.805 44.369V50.3695C117.805 51.5883 116.82 52.5727 115.648 52.5727C114.476 52.5727 113.492 51.5883 113.492 50.3695V38.7906C113.492 37.853 114.242 37.1029 115.179 37.1029C116.117 37.1029 116.82 37.8999 116.82 38.7906C118.555 37.1498 120.102 36.9154 121.555 36.9154C125.868 36.9154 127.79 40.15 127.79 43.8534V50.3695C127.79 51.5883 126.805 52.5727 125.633 52.5727C124.461 52.5727 123.477 51.5883 123.477 50.3695V44.369C123.477 42.4939 123.242 40.9001 120.523 40.9001C118.601 40.9001 117.805 42.4939 117.805 44.369ZM141.759 46.6661C141.244 46.6661 140.915 46.4317 140.634 46.1035L135.618 40.6657V50.3695C135.618 51.5883 134.634 52.5727 133.462 52.5727C132.29 52.5727 131.305 51.5883 131.305 50.3695V31.1494C131.446 30.8213 131.774 30.5869 132.102 30.5869C132.477 30.5869 132.805 30.915 133.04 31.1494L141.056 40.15C141.29 40.4313 141.572 40.5719 141.759 40.5719C141.9 40.5719 142.228 40.4313 142.462 40.15L150.479 31.1494C150.713 30.915 150.994 30.5869 151.416 30.5869C151.791 30.5869 152.119 30.8213 152.213 31.1494V50.3695C152.213 51.5883 151.275 52.5727 150.057 52.5727C148.885 52.5727 147.9 51.5883 147.9 50.3695V40.6657L142.884 46.1035C142.509 46.4317 142.181 46.6661 141.759 46.6661ZM162.479 48.9162C164.401 48.9162 166.042 47.1817 166.042 44.8378C166.042 42.4939 164.354 40.947 162.479 40.947C160.604 40.947 159.057 42.5408 159.057 44.8378C159.057 47.088 160.557 48.9162 162.479 48.9162ZM167.073 50.8851L166.98 50.3695C166.136 52.0102 163.464 52.7602 161.776 52.7602C157.745 52.7602 154.744 49.1037 154.744 44.7441C154.744 40.4313 157.792 36.8686 162.011 36.8686C162.714 36.8686 165.151 37.0561 167.027 39.2593L167.12 38.7437C167.12 37.8061 167.823 37.0561 168.761 37.0561C169.699 37.0561 170.449 37.853 170.449 38.7437V50.8382C170.449 51.7758 169.699 52.5259 168.761 52.5259C167.777 52.5727 167.073 51.7758 167.073 50.8851ZM182.309 40.9001H181.84C179.121 41.0407 178.605 42.5877 178.605 44.369V50.3695C178.605 51.5883 177.621 52.5727 176.449 52.5727C175.277 52.5727 174.293 51.5883 174.293 50.3695V38.7906C174.293 37.853 175.043 37.1029 175.98 37.1029C176.918 37.1029 177.621 37.8999 177.621 38.7906C179.215 37.2905 180.527 36.9623 181.84 36.9154H182.262C183.293 36.9154 184.231 37.8061 184.231 38.9312C184.278 39.9625 183.34 40.9001 182.309 40.9001ZM198.951 49.3381C199.138 49.6663 199.279 49.9944 199.279 50.3695C199.279 51.4945 198.247 52.5259 197.122 52.5259C196.372 52.5259 195.716 51.9633 195.2 51.307L190.231 45.541V50.3226C190.231 51.5414 189.247 52.5259 188.075 52.5259C186.903 52.5259 185.918 51.5414 185.918 50.3226V32.7433C185.918 31.5245 186.856 30.54 188.075 30.54C189.294 30.54 190.231 31.5245 190.231 32.7433V43.7128L195.2 38.228C195.716 37.6655 196.325 37.0561 197.075 37.0561C198.154 37.0561 199.138 38.0405 199.138 39.1656C199.138 39.4937 199.044 39.8687 198.857 40.15L194.919 44.4628L198.951 49.3381ZM207.389 40.947C206.217 40.947 204.295 41.5564 204.295 43.3846H210.529C210.483 41.5564 208.514 40.947 207.389 40.947ZM213.014 46.1504H204.295C204.295 48.7287 206.779 49.1506 207.857 49.1506C208.654 49.1506 209.779 49.01 210.67 48.5881C210.951 48.4006 211.373 48.2599 211.795 48.2599C212.733 48.2599 213.53 49.0569 213.53 50.0413C213.53 50.6976 213.108 51.2601 212.592 51.5883C211.279 52.5727 209.545 52.8071 207.904 52.8071C203.545 52.8071 199.935 50.4632 199.935 44.9785C199.935 40.6657 202.138 36.9154 207.295 36.9154C211.467 36.9154 214.608 39.6344 214.702 44.4628C214.702 45.3535 213.952 46.1504 213.014 46.1504ZM225.015 52.7602H223.843C220.561 52.7602 218.639 51.307 218.639 46.1973V40.9001H217.514C216.483 40.9001 215.592 39.9625 215.592 38.9312C215.592 37.8061 216.53 36.9154 217.514 36.9154H218.639V32.837C218.639 31.6182 219.577 30.6338 220.796 30.6338C221.968 30.6338 222.952 31.6182 222.952 32.837V36.9154H224.733C225.765 36.9154 226.655 37.8061 226.655 38.9312C226.655 39.9625 225.718 40.9001 224.733 40.9001H222.952V45.3535C222.952 48.3068 223.093 48.9162 224.405 48.9162H225.015C226.046 48.9162 226.937 49.76 226.937 50.8382C226.937 51.8696 226.046 52.7602 225.015 52.7602ZM245.876 32.2276C246.438 32.5558 246.954 33.3527 246.954 34.0559C246.954 35.1809 246.016 36.1185 244.938 36.1185C244.657 36.1185 244.422 36.0247 244.188 35.9779C242.922 35.0403 241.328 34.4309 239.641 34.4309C235.656 34.4309 232.937 37.6655 232.937 41.697C232.937 45.7285 235.703 48.9162 239.641 48.9162C241.61 48.9162 243.391 48.1193 244.704 46.8536C245.032 46.6192 245.454 46.4786 245.876 46.4786C246.954 46.4786 247.798 47.3224 247.798 48.4006C247.798 49.1037 247.376 49.7132 246.86 50.0413C244.938 51.682 242.36 52.7602 239.688 52.7602C233.593 52.7602 228.624 47.7443 228.624 41.5564C228.624 35.3685 233.593 30.3525 239.688 30.3525C241.938 30.3056 244.141 31.0088 245.876 32.2276ZM256.798 48.9162C258.72 48.9162 260.361 47.1817 260.361 44.8378C260.361 42.4939 258.673 40.947 256.798 40.947C254.876 40.947 253.376 42.5408 253.376 44.8378C253.376 47.088 254.923 48.9162 256.798 48.9162ZM261.392 50.8851L261.298 50.3695C260.455 52.0102 257.783 52.7602 256.095 52.7602C252.063 52.7602 249.063 49.1037 249.063 44.7441C249.063 40.4313 252.11 36.8686 256.329 36.8686C257.032 36.8686 259.47 37.0561 261.345 39.2593L261.439 38.7437C261.439 37.8061 262.142 37.0561 263.08 37.0561C264.017 37.0561 264.767 37.853 264.767 38.7437V50.8382C264.767 51.7758 264.017 52.5259 263.08 52.5259C262.095 52.5727 261.392 51.7758 261.392 50.8851ZM276.534 48.9162C278.456 48.9162 279.956 47.088 279.956 44.8378C279.956 42.4939 278.409 40.947 276.534 40.947C274.612 40.947 272.971 42.4939 272.971 44.8378C272.971 47.1817 274.612 48.9162 276.534 48.9162ZM272.971 51.4945V56.9793C272.971 58.1981 271.987 59.1825 270.815 59.1825C269.643 59.1825 268.658 58.1981 268.658 56.9793V38.7906C268.658 37.853 269.408 37.1029 270.346 37.1029C271.283 37.1029 271.987 37.8999 271.987 38.9781C273.58 37.3373 275.549 36.9154 277.049 36.9154C281.222 36.9154 284.316 40.4313 284.316 44.791C284.316 49.1037 281.362 52.8071 277.284 52.8071C276.018 52.7602 274.143 52.3852 272.971 51.4945Z" fill="#2679FF"/>
</svg>
