<svg width="72" height="20" viewBox="0 0 72 20" fill="none" xmlns="http://www.w3.org/2000/svg">
<g clip-path="url(#clip0_334_4827)">
<path fill-rule="evenodd" clip-rule="evenodd" d="M5.28507 14.4528H7.73695V7.89236H5.28507V14.4528ZM5.28507 7.1843H7.73695V5.42696H5.28507V7.1843ZM1.00313 14.4528H3.45501V9.71589H4.69307V7.89189H3.40513C3.36784 7.28591 3.53892 7.19735 4.13324 7.19735H4.7546V5.42649C4.38309 5.41391 4.02416 5.42649 3.65265 5.42649C2.66211 5.42649 2.04308 5.50247 1.50982 6.04646C1.03995 6.52658 0.977956 7.24723 1.00313 7.89189H0V9.71589H1.00313V14.4528ZM8.37602 14.4528H10.8279V10.9894C10.8279 9.93964 11.3849 9.72521 11.8059 9.72521C12.5242 9.72521 12.6109 10.2561 12.6109 11.0145V14.4528H15.0628V9.95269C15.0628 8.44846 14.0102 7.72781 12.8589 7.72781C11.88 7.72781 11.2237 8.06903 10.7659 8.72628H10.7412V7.89189H8.37602V14.4528ZM19.6938 12.1142C19.6566 12.7966 19.223 13.1378 18.6665 13.1378C18.2204 13.1378 17.8983 12.8348 17.8983 12.5314C17.8983 12.0885 18.1836 11.9501 18.728 11.8233C19.0627 11.7478 19.3969 11.6592 19.6938 11.5073V12.1142ZM22.0469 10.2939C22.0469 9.02974 22.0716 7.72781 19.0007 7.72781C17.4774 7.72781 15.7685 8.0308 15.6944 9.87671H17.9729C17.985 9.59842 18.1337 9.20687 18.8893 9.20687C19.2855 9.20687 19.6938 9.37095 19.6938 9.81331C19.6938 10.231 19.3596 10.3317 19.0254 10.3951C17.7743 10.6351 15.397 10.5591 15.397 12.6325C15.397 14.0104 16.4248 14.6169 17.6633 14.6169C18.4558 14.6169 19.2109 14.4402 19.7311 13.8333H19.7558C19.7437 14.0104 19.7805 14.2761 19.8425 14.4532H22.0469V10.2939ZM22.6734 14.4528H25.1253V10.9894C25.1253 9.93964 25.6823 9.72521 26.1032 9.72521C26.8216 9.72521 26.9083 10.2561 26.9083 11.0145V14.4528H29.3601V9.95269C29.3601 8.44846 28.3076 7.72781 27.1558 7.72781C26.1774 7.72781 25.521 8.06903 25.0628 8.72628H25.0381V7.89189H22.6734V14.4528ZM29.8314 14.4528H36.2455V12.6325H33.051L35.9858 9.81331V7.89189H30.1032V9.71263H32.8399L29.8309 12.5188V14.4532L29.8314 14.4528ZM38.6358 10.4328C38.7477 9.72521 39.1686 9.33366 39.899 9.33366C40.5302 9.33366 40.9763 9.82636 40.9763 10.4328H38.6358ZM43.3289 11.7352C43.3289 9.1817 42.2269 7.72781 39.6762 7.72781C37.6453 7.72781 36.2832 9.28285 36.2832 11.1912C36.2832 13.3783 37.8308 14.6173 39.8865 14.6173C41.3473 14.6173 42.6973 13.9596 43.1932 12.5439H40.9022C40.7041 12.86 40.2701 13.0115 39.8743 13.0115C39.1066 13.0115 38.6857 12.481 38.6237 11.7352H43.3289ZM43.7377 14.4528H46.1896V10.9894C46.1896 9.93964 46.7471 9.72521 47.1675 9.72521C47.8858 9.72521 47.9725 10.2561 47.9725 11.0145V14.4528H50.3191V9.95269C50.3191 8.44846 49.3724 7.72781 48.2201 7.72781C47.2421 7.72781 46.5858 8.06903 46.1276 8.72628H46.1029V7.89189H43.7377V14.4528ZM55.9556 7.81685H56.7518V8.96401H56.7765C57.0674 8.16505 57.939 7.62293 58.861 7.62293C60.692 7.62293 61.2477 8.60322 61.2477 10.189V14.4696H60.4524V10.3181C60.4524 9.17051 60.0861 8.30629 58.7977 8.30629C57.5344 8.30629 56.7765 9.28658 56.7513 10.589V14.4696H55.9556V7.81685ZM67.0707 10.6789C67.0329 9.45392 66.2875 8.30629 64.9996 8.30629C63.6982 8.30629 62.9784 9.46697 62.8521 10.6789H67.0707ZM62.8521 11.3623C62.8647 12.5486 63.4707 13.9796 64.9996 13.9796C66.1612 13.9796 66.7933 13.2832 67.046 12.2773H67.8412C67.5004 13.7862 66.6413 14.663 64.9996 14.663C62.9281 14.663 62.0564 13.0385 62.0564 11.1432C62.0564 9.38959 62.9281 7.62293 64.9996 7.62293C67.0958 7.62293 67.9298 9.49308 67.8664 11.3623H62.8521ZM69.8367 7.81685H71.1634V8.49974H69.8372V12.9868C69.8372 13.5154 69.9122 13.8249 70.4805 13.8631C70.7084 13.8631 70.9359 13.8505 71.1634 13.8249V14.5208C70.9228 14.5208 70.6953 14.5469 70.4558 14.5469C69.3948 14.5469 69.0284 14.1857 69.041 13.0511V8.49974H67.9046V7.81685H69.041V5.81758H69.8372V7.81638L69.8367 7.81685Z" fill="white"/>
<path fill-rule="evenodd" clip-rule="evenodd" d="M52.9718 14.5141C54.1343 14.5141 55.0764 13.552 55.0764 12.3657C55.0764 11.1789 54.1343 10.2168 52.9718 10.2168C51.8093 10.2168 50.8672 11.1789 50.8672 12.3657C50.8672 13.552 51.8093 14.5141 52.9718 14.5141Z" fill="#D70413"/>
<path fill-rule="evenodd" clip-rule="evenodd" d="M52.9718 12.0343C53.8714 12.0343 54.656 12.5298 55.0731 12.4375C55.0736 12.4132 55.0764 12.3899 55.0764 12.3657C55.0764 11.1789 54.1343 10.2168 52.9718 10.2168C51.8093 10.2168 50.8672 11.1789 50.8672 12.3657C50.8672 12.3899 50.8695 12.4132 50.8705 12.4375C51.2872 12.5302 52.0717 12.0343 52.9718 12.0343Z" fill="#E42522"/>
</g>
<defs>
<clipPath id="clip0_334_4827">
<rect width="71.1638" height="19.9181" fill="white"/>
</clipPath>
</defs>
</svg>
