<svg width="72" height="20" viewBox="0 0 72 20" fill="none" xmlns="http://www.w3.org/2000/svg">
<g clip-path="url(#clip0_334_4745)">
<path d="M43.192 7.79871C43.192 6.13011 43.192 4.50965 43.192 2.87315C43.192 2.69666 43.224 2.61644 43.4166 2.64853C43.7054 2.68061 43.9621 2.68061 44.2348 2.64853C44.4113 2.64853 44.4434 2.69666 44.4434 2.8571C44.4434 3.57909 44.4434 4.30108 44.4434 5.00702C44.4434 7.07672 44.4434 9.16246 44.4434 11.2642C44.4434 11.4728 44.3953 11.521 44.1867 11.521C43.8819 11.4889 43.5449 11.521 43.208 11.521C43.0476 11.521 42.9834 11.4889 42.9513 11.3124C42.4379 9.37104 41.8924 7.41365 41.379 5.48834C41.3469 5.40812 41.3469 5.3279 41.2827 5.26373C41.2827 7.26925 41.2827 9.25873 41.2827 11.2642C41.2827 11.4728 41.2346 11.553 41.026 11.521C40.7693 11.4889 40.5126 11.4889 40.2559 11.521C40.0473 11.553 40.0312 11.4728 40.0312 11.2963C40.0312 9.78819 40.0312 8.26399 40.0312 6.78792C40.0312 5.50439 40.0312 4.20481 40.0312 2.92128C40.0312 2.74479 40.0633 2.69666 40.2559 2.69666C40.6891 2.72875 41.1223 2.72875 41.5715 2.69666C41.7319 2.69666 41.7961 2.74479 41.8282 2.90523C42.2453 4.49361 42.6785 6.06593 43.0796 7.65431C43.1278 7.67035 43.1278 7.75058 43.192 7.79871Z" fill="white"/>
<path d="M28.0845 6.74655C28.1166 6.20105 28.0363 5.30258 28.1166 4.43619C28.2449 2.94408 29.2717 2.46276 30.443 2.59111C31.55 2.71946 32.1116 3.36123 32.1918 4.56455C32.2239 4.86938 32.1918 5.17423 32.1918 5.51115C32.1918 5.63951 32.1436 5.67159 32.0313 5.67159C31.6944 5.67159 31.3575 5.67159 31.0366 5.67159C30.9082 5.67159 30.8762 5.62346 30.8762 5.51115C30.8762 5.17423 30.8762 4.86938 30.8762 4.53246C30.8441 4.01904 30.5232 3.73025 29.9777 3.84256C29.721 3.89069 29.5445 4.06717 29.4964 4.35597C29.4643 4.48432 29.4643 4.64477 29.4643 4.77312C29.4643 6.31336 29.4643 7.8536 29.4643 9.39384C29.4643 9.49011 29.4643 9.60242 29.4964 9.69868C29.5445 10.1319 29.8012 10.3405 30.2344 10.3084C30.6515 10.2763 30.8762 10.0517 30.9082 9.63451C30.9403 9.21736 30.9403 8.81625 30.9082 8.39911C30.9082 8.23866 30.9403 8.17449 31.1168 8.19053C31.4217 8.22262 31.7586 8.19053 32.0955 8.19053C32.1757 8.19053 32.256 8.19053 32.256 8.31888C32.2239 8.92856 32.3041 9.55429 32.1757 10.1479C31.9672 11.0143 31.3735 11.5277 30.475 11.6079C30.2183 11.64 29.9295 11.64 29.6728 11.5759C28.7744 11.3994 28.2289 10.7736 28.1647 9.87517C28.1647 9.74682 28.1326 9.61846 28.1326 9.5222C28.0524 8.6879 28.0845 7.90174 28.0845 6.74655Z" fill="white"/>
<path d="M51.0207 5.06978C50.8121 5.06978 50.5554 5.15 50.411 5.03769C50.2505 4.94143 50.3628 4.65263 50.3308 4.44406C50.2826 4.02691 50.042 3.80229 49.6569 3.80229C49.2397 3.80229 49.0472 4.01087 48.983 4.41197C48.9028 4.92539 49.0633 5.39067 49.4002 5.79177C49.6248 6.08057 49.9136 6.33727 50.1703 6.59398C50.5233 6.93091 50.8602 7.23575 51.149 7.6529C51.7105 8.47115 51.8229 9.40171 51.5341 10.3483C51.3255 11.0222 50.8923 11.4072 50.2184 11.5356C49.7852 11.6319 49.3681 11.6158 48.9349 11.5035C48.1648 11.327 47.6835 10.7013 47.5712 9.78677C47.5391 9.49798 47.5712 9.22523 47.5391 8.93643C47.5391 8.80808 47.5872 8.77599 47.6995 8.77599C48.0364 8.77599 48.3734 8.77599 48.6942 8.77599C48.8226 8.77599 48.8547 8.82412 48.8547 8.95247C48.8547 9.24127 48.8226 9.49798 48.9028 9.77073C48.983 10.1077 49.1916 10.2841 49.5767 10.2841C49.9296 10.2841 50.1703 10.1237 50.2666 9.80282C50.3949 9.33754 50.2987 8.87225 50.042 8.47115C49.8173 8.11818 49.4965 7.79729 49.1756 7.52454C48.8386 7.2197 48.5338 6.93091 48.245 6.57794C47.6032 5.75968 47.4428 4.82912 47.6995 3.86647C47.876 3.09635 48.3894 2.66315 49.1916 2.5348C49.5446 2.48667 49.8815 2.48667 50.2184 2.56689C50.9886 2.74338 51.502 3.30492 51.5982 4.13922C51.6303 4.36384 51.6464 4.6045 51.6464 4.86121C51.6464 4.98956 51.6143 5.03769 51.4859 5.03769C51.3576 5.06978 51.1971 5.10187 51.0207 5.06978C51.0207 5.10187 51.0207 5.10187 51.0207 5.06978Z" fill="white"/>
<path d="M53.4444 7.74365C53.4444 6.58847 53.4444 5.43329 53.4444 4.26206C53.4444 3.92514 53.4444 3.92514 53.1396 3.92514C52.8347 3.92514 52.5299 3.92514 52.1929 3.92514C52.0325 3.92514 51.9844 3.89305 51.9844 3.74865C51.9844 3.44381 51.9844 3.13897 51.9844 2.80204C51.9844 2.67369 52.0165 2.6416 52.1448 2.6416C53.4765 2.6416 54.7921 2.6416 56.1238 2.6416C56.2521 2.6416 56.2842 2.67369 56.2842 2.80204C56.2842 3.13897 56.2842 3.44381 56.2842 3.78074C56.2842 3.90909 56.2521 3.95722 56.1238 3.95722C55.7708 3.95722 55.4018 3.95722 55.0649 3.95722C54.8563 3.95722 54.8402 4.00536 54.8402 4.18184C54.8402 6.54034 54.8402 8.89883 54.8402 11.2573C54.8402 11.4659 54.7921 11.5461 54.5835 11.5461C54.2787 11.514 53.9739 11.514 53.653 11.5461C53.4765 11.5461 53.4444 11.498 53.4444 11.3215C53.4444 10.1021 53.4444 8.93092 53.4444 7.74365Z" fill="white"/>
<path d="M24.7955 7.72761C24.7955 6.52429 24.7955 5.33702 24.7955 4.13371C24.7955 3.95722 24.7474 3.90909 24.587 3.92514C24.25 3.95722 23.8971 3.92514 23.5601 3.92514C23.3837 3.92514 23.3516 3.877 23.3516 3.71656C23.3516 3.41172 23.3516 3.12293 23.3516 2.81809C23.3516 2.68974 23.3836 2.6416 23.528 2.6416C24.8437 2.6416 26.1753 2.6416 27.4749 2.6416C27.5712 2.6416 27.6354 2.67369 27.6354 2.80204C27.6354 3.13897 27.6354 3.4759 27.6354 3.78074C27.6354 3.90909 27.5872 3.94118 27.4749 3.94118C27.1219 3.94118 26.7529 3.94118 26.416 3.94118C26.2395 3.94118 26.1914 3.98931 26.1914 4.1658C26.1914 6.52429 26.1914 8.88279 26.1914 11.2413C26.1914 11.4659 26.1112 11.5301 25.9026 11.5301C25.6138 11.498 25.341 11.498 25.0362 11.5301C24.8597 11.5301 24.7795 11.4819 24.7795 11.3055C24.8116 10.1021 24.7955 8.89883 24.7955 7.72761Z" fill="white"/>
<path d="M58.9231 3.82085C58.8749 3.91711 58.891 4.02942 58.891 4.10964C58.891 6.51627 58.891 8.90685 58.891 11.3135C58.891 11.3937 58.9391 11.5221 58.8428 11.5381C58.7145 11.5702 58.538 11.5702 58.4097 11.5381C58.3615 11.5381 58.3776 11.4097 58.3776 11.3616C58.3776 10.8803 58.3776 10.3669 58.3776 9.8695C58.3776 7.55914 58.3776 5.24878 58.3776 2.93842C58.3776 2.72984 58.4097 2.64962 58.6343 2.64962C59.1156 2.68171 59.1156 2.64962 59.3081 3.11491C60.0782 5.31296 60.8805 7.55914 61.6345 9.75719C61.6666 9.83742 61.6827 9.91764 61.7148 9.98182C61.795 9.88555 61.7629 9.77324 61.7629 9.69302C61.7629 7.43079 61.7629 5.15251 61.7629 2.89029C61.7629 2.81006 61.7148 2.68171 61.811 2.66567C61.9394 2.63358 62.0998 2.63358 62.2442 2.66567C62.2923 2.66567 62.2763 2.76193 62.2763 2.82611C62.2763 3.21117 62.2763 3.59623 62.2763 3.9492C62.2763 6.38792 62.2763 8.82663 62.2763 11.2653C62.2763 11.4418 62.2282 11.5221 62.0517 11.49C61.6345 11.4579 61.6345 11.49 61.5062 11.1049C60.6879 8.71432 59.8376 6.33978 59.0193 3.9492C58.9712 3.98129 58.9552 3.90107 58.9231 3.82085Z" fill="white"/>
<path d="M46.7244 7.14499C46.7244 8.52479 46.7244 9.92063 46.7244 11.3004C46.7244 11.509 46.6923 11.5892 46.4677 11.5571C46.1628 11.525 45.8259 11.5571 45.489 11.5571C45.3606 11.5571 45.3125 11.509 45.3125 11.3806C45.3125 10.787 45.3125 10.1773 45.3125 9.5837C45.3125 7.38565 45.3125 5.17155 45.3125 2.9735C45.3125 2.76492 45.3606 2.6847 45.5692 2.71679C45.874 2.74888 46.1789 2.74888 46.5158 2.71679C46.6763 2.71679 46.7244 2.76492 46.7244 2.92537C46.7244 4.32121 46.7244 5.7331 46.7244 7.14499Z" fill="white"/>
<path d="M39.2166 7.11095C39.2166 8.49075 39.2166 9.90264 39.2166 11.2985C39.2166 11.5071 39.1684 11.5552 38.9599 11.5231C38.6711 11.491 38.3983 11.491 38.1095 11.5231C37.8849 11.5552 37.8047 11.475 37.8047 11.2183C37.8047 8.98812 37.8047 6.77402 37.8047 4.54388C37.8047 3.98233 37.8047 3.43683 37.8047 2.87529C37.8047 2.66671 37.8528 2.61858 38.0614 2.65067C38.3662 2.68276 38.655 2.68276 38.9599 2.65067C39.1684 2.65067 39.2166 2.6988 39.2166 2.90737C39.2166 4.31926 39.2166 5.69906 39.2166 7.11095Z" fill="white"/>
<path d="M22.793 7.09002C22.793 8.50191 22.793 9.9138 22.793 11.3257C22.793 11.5022 22.7609 11.5503 22.5844 11.5503C22.2796 11.5182 21.9747 11.5182 21.6378 11.5503C21.4613 11.5503 21.3811 11.5022 21.4132 11.3257C21.4132 9.32016 21.4132 7.33068 21.4132 5.32516C21.4132 4.52295 21.4132 3.7047 21.4132 2.91853C21.4132 2.75809 21.4453 2.70996 21.6217 2.70996C21.9266 2.74205 22.2314 2.74205 22.5684 2.70996C22.7769 2.70996 22.8251 2.75809 22.8251 2.96667C22.7609 4.28229 22.793 5.69418 22.793 7.09002Z" fill="white"/>
<path d="M62.8364 7.10188C62.8364 5.69 62.8364 4.3102 62.8364 2.89831C62.8364 2.68974 62.8845 2.6416 63.0931 2.6416C64.0878 2.6416 65.0986 2.67369 66.0933 2.6416C66.35 2.6416 66.3019 2.76996 66.3019 2.9304C66.3019 3.05875 66.35 3.21919 66.0933 3.21919C65.2751 3.1871 64.4568 3.21919 63.6386 3.21919C63.4621 3.21919 63.43 3.26733 63.43 3.42777C63.43 4.48668 63.43 5.52956 63.43 6.55638C63.43 6.73287 63.4621 6.781 63.6386 6.781C64.3124 6.781 64.9702 6.781 65.6441 6.781C65.8687 6.781 65.8527 6.90935 65.8527 7.03771C65.8527 7.16606 65.9329 7.34255 65.6441 7.3265C64.9702 7.29441 64.3124 7.3265 63.6386 7.3265C63.4621 7.3265 63.43 7.37464 63.43 7.55112C63.43 8.62608 63.43 9.70104 63.43 10.776C63.43 10.9525 63.4621 11.0327 63.6546 11.0327C64.4568 11.0327 65.243 11.0327 66.0452 11.0327C66.2698 11.0327 66.3019 11.1129 66.3019 11.3215C66.3019 11.498 66.2698 11.5782 66.0452 11.5782C65.0505 11.5461 64.0397 11.5782 63.0449 11.5782C62.8684 11.5782 62.8203 11.5301 62.8203 11.3696C62.8364 9.89357 62.8364 8.51377 62.8364 7.10188Z" fill="white"/>
<path d="M69.3667 7.35859C69.3667 8.67421 69.3667 9.97379 69.3667 11.2894C69.3667 11.4659 69.3346 11.5782 69.1421 11.514C69.0619 11.514 68.9817 11.514 68.9175 11.514C68.8212 11.514 68.757 11.4819 68.7891 11.3857C68.7891 11.3375 68.7891 11.2894 68.7891 11.2092C68.7891 8.62608 68.7891 6.02692 68.7891 3.44381C68.7891 3.23524 68.741 3.18711 68.5324 3.18711C68.0992 3.21919 67.634 3.18711 67.2008 3.18711C67.0403 3.18711 66.9922 3.15502 66.9922 2.97853C66.9922 2.6416 66.9922 2.6416 67.3291 2.6416C68.5324 2.6416 69.7357 2.6416 70.9391 2.6416C71.2279 2.6416 71.1476 2.80204 71.1637 2.94644C71.1958 3.12293 71.1316 3.20315 70.9391 3.20315C70.4738 3.17106 70.0406 3.20315 69.5753 3.20315C69.3988 3.20315 69.3667 3.25128 69.3667 3.41172C69.3667 4.72735 69.3667 6.02692 69.3667 7.35859Z" fill="white"/>
<path d="M56.4398 11.0014C56.4398 10.9052 56.4719 10.7928 56.4398 10.7126C56.3917 10.488 56.52 10.4559 56.7286 10.4238C56.9853 10.4238 57.0655 10.472 57.0334 10.7287C57.0013 10.9372 57.0334 11.1619 57.0334 11.3704C57.0334 11.4988 57.0013 11.5469 56.873 11.5469C56.4558 11.579 56.4558 11.579 56.4558 11.1619C56.4398 11.0977 56.4398 11.0495 56.4398 11.0014Z" fill="white"/>
<path d="M46.2437 15.9584C46.34 15.2364 46.4684 14.5144 46.5807 13.7764C46.5807 13.6962 46.5807 13.5999 46.709 13.6159C46.8374 13.6159 46.8053 13.7122 46.8374 13.7924C46.9336 14.4663 47.046 15.1562 47.1422 15.814C47.1422 15.8621 47.1422 15.9423 47.2224 15.9905C47.3508 15.2524 47.4471 14.5305 47.5754 13.8085C47.5754 13.7764 47.5754 13.7282 47.5754 13.7122C47.5754 13.632 47.6075 13.5838 47.7038 13.5838C47.784 13.6159 47.7519 13.6641 47.7519 13.7122C47.7038 14.0652 47.6556 14.4342 47.5754 14.7872C47.4952 15.2685 47.415 15.7659 47.3508 16.2472C47.3187 16.3274 47.3508 16.4237 47.2224 16.4237C47.062 16.4237 47.062 16.3274 47.062 16.2151C46.9657 15.5412 46.8534 14.8834 46.7251 14.1614C46.6288 14.4502 46.5967 14.7069 46.5486 14.9636C46.4684 15.3808 46.4202 15.814 46.34 16.2151C46.3079 16.2953 46.34 16.4237 46.1796 16.4237C46.0031 16.4237 46.0191 16.3274 46.0031 16.2151C45.8747 15.4129 45.7464 14.5946 45.618 13.8085C45.618 13.7282 45.5859 13.6801 45.5859 13.5999C45.5859 13.5678 45.6341 13.5518 45.6662 13.5518C45.7624 13.5518 45.7624 13.648 45.7624 13.7122C45.8587 14.3219 45.971 14.9636 46.0673 15.5894C46.0994 15.6856 46.0993 15.7979 46.1154 15.8942C46.1635 15.9423 46.1635 15.9905 46.1475 16.0547C46.1956 16.0867 46.1956 16.0065 46.2437 15.9584Z" fill="white"/>
<path d="M62.8108 15.9315C62.8108 15.2576 62.8108 14.5677 62.8108 13.9099C62.8108 13.8297 62.8108 13.7815 62.8108 13.7013C62.8108 13.6532 62.8429 13.6211 62.891 13.6211C62.9391 13.6211 62.9712 13.6532 62.9712 13.7013C62.9712 13.7494 62.9712 13.7976 62.9712 13.8618C62.9712 14.664 62.9712 15.4822 62.9712 16.2684C62.9712 16.3486 63.0514 16.4449 62.891 16.477C62.7306 16.509 62.7306 16.3967 62.7145 16.3005C62.4578 15.5624 62.2011 14.8405 61.9123 14.1024C61.9123 14.1506 61.8802 14.1987 61.8802 14.2789C61.8802 14.9528 61.8802 15.6427 61.8802 16.3005C61.8802 16.3807 61.9284 16.477 61.8 16.477C61.6716 16.477 61.7198 16.3486 61.7198 16.3005C61.7198 15.4822 61.7198 14.664 61.7198 13.8457C61.7198 13.7655 61.6716 13.6692 61.816 13.6371C61.9444 13.6371 61.9765 13.7174 62.0246 13.8136C62.2492 14.4875 62.5059 15.1774 62.7466 15.8352C62.7787 15.8512 62.7787 15.8994 62.8108 15.9315Z" fill="white"/>
<path d="M52.1689 14.0652C52.1689 14.7872 52.1689 15.4771 52.1689 16.199C52.1689 16.2793 52.1689 16.3274 52.1689 16.4076C52.1689 16.4558 52.1208 16.4878 52.0887 16.4878C52.0405 16.4878 52.0084 16.4558 52.0084 16.4076C52.0084 16.3595 52.0084 16.3114 52.0084 16.2311C52.0084 15.461 52.0084 14.6909 52.0084 13.9047C52.0084 13.8085 51.9122 13.648 52.1047 13.5999C52.2812 13.5678 52.2812 13.7282 52.3293 13.8245C52.5539 14.4663 52.7946 15.1401 53.0192 15.7659C53.0513 15.7979 53.0513 15.8461 53.0994 15.8621C53.0994 15.3808 53.0994 14.8834 53.0994 14.37C53.0994 14.1454 53.0994 13.9047 53.0994 13.6801C53.0994 13.632 53.0994 13.5518 53.1797 13.5518C53.2599 13.5518 53.2599 13.632 53.2599 13.6801C53.2599 14.5465 53.2599 15.4289 53.2599 16.2953C53.2599 16.3434 53.2599 16.3916 53.1797 16.4237C53.0834 16.4237 53.0192 16.3755 53.0032 16.2953C52.8267 15.7819 52.6502 15.3006 52.4577 14.7872C52.3775 14.5305 52.2812 14.3058 52.201 14.0491C52.1849 14.0652 52.1689 14.0652 52.1689 14.0652Z" fill="white"/>
<path d="M34.742 15.9546C34.742 15.2647 34.742 14.5909 34.742 13.9331C34.742 13.8528 34.742 13.8047 34.742 13.7245C34.742 13.6764 34.7741 13.6443 34.8222 13.6443C34.9025 13.6443 34.9025 13.6764 34.9025 13.7245C34.9025 13.7726 34.9025 13.8208 34.9025 13.901C34.9025 14.6711 34.9025 15.4412 34.9025 16.2274C34.9025 16.3076 34.9827 16.452 34.8222 16.4841C34.6457 16.5322 34.6457 16.3557 34.6137 16.2595C34.389 15.5856 34.1484 14.9278 33.9238 14.2539C33.8917 14.2058 33.8756 14.1577 33.8275 14.1256C33.8275 14.7994 33.8275 15.4894 33.8275 16.1472C33.8275 16.2434 33.9238 16.4841 33.7473 16.4841C33.5708 16.4841 33.651 16.2595 33.651 16.1472C33.651 15.377 33.651 14.6069 33.651 13.8368C33.651 13.7566 33.6029 13.6603 33.7473 13.6282C33.8756 13.5961 33.9238 13.6764 33.9558 13.7887C34.1805 14.4625 34.4211 15.1203 34.6778 15.7942C34.6778 15.8423 34.6778 15.8905 34.742 15.9546Z" fill="white"/>
<path d="M61.3144 15.0651C61.3144 15.4822 61.3144 15.8833 61.3144 16.3005C61.3144 16.3807 61.3625 16.477 61.2181 16.477C61.0577 16.477 61.1218 16.3807 61.1218 16.3005C61.1218 15.9635 61.1218 15.6266 61.1218 15.3218C61.1218 15.1613 61.0737 15.1453 60.9453 15.1453C60.7207 15.1774 60.4319 15.049 60.2715 15.1934C60.1431 15.3218 60.2394 15.6106 60.2234 15.8352C60.2234 16.0117 60.2234 16.1721 60.2234 16.3486C60.2234 16.3967 60.2554 16.477 60.1431 16.509C60.0469 16.509 60.0469 16.4609 60.0469 16.3807C60.0469 15.5143 60.0469 14.664 60.0469 13.7976C60.0469 13.7174 60.0469 13.6692 60.1431 13.6692C60.2715 13.6692 60.2394 13.7655 60.2394 13.8297C60.2394 14.1666 60.2394 14.5035 60.2394 14.8084C60.2394 14.9688 60.2875 15.0169 60.448 14.9848C60.6726 14.9528 60.9614 15.0651 61.0897 14.9367C61.2502 14.8084 61.1218 14.5196 61.1379 14.295C61.1379 14.1185 61.1379 13.958 61.1379 13.7815C61.1379 13.7334 61.1058 13.6532 61.2181 13.6211C61.3465 13.6211 61.3144 13.7013 61.3144 13.7815C61.3144 14.1987 61.3144 14.6319 61.3144 15.0651Z" fill="white"/>
<path d="M68.0831 15.0691C68.0831 15.3579 68.0831 15.6146 68.0831 15.8874C68.1152 16.1762 68.2596 16.3206 68.5003 16.3206C68.7249 16.3206 68.8853 16.1601 68.9174 15.9034C68.9174 15.7751 68.9174 15.6467 68.9174 15.5505C68.9174 15.374 68.9655 15.1173 68.6286 15.1975C68.5805 15.1975 68.5323 15.1654 68.5323 15.1173C68.5323 15.0691 68.5644 15.0371 68.6286 15.0371C68.7249 15.0371 68.8532 15.0371 68.9655 15.0371C69.0458 15.0371 69.0618 15.0852 69.0618 15.1654C69.0618 15.4702 69.0939 15.7751 69.0297 16.0639C68.9495 16.3687 68.773 16.5292 68.4361 16.5292C68.1312 16.5292 67.9548 16.3687 67.8745 16.096C67.7943 15.8713 67.8424 15.6307 67.8424 15.374C67.8424 15.021 67.8424 14.652 67.8424 14.299C67.8424 13.914 68.051 13.6893 68.3559 13.6252C68.8372 13.577 69.1741 13.9621 69.0778 14.4434C69.0778 14.4915 69.0458 14.5397 68.9976 14.5397C68.9174 14.5397 68.9014 14.4915 68.9014 14.4434C68.9014 14.3632 68.9014 14.3151 68.9014 14.2348C68.8693 13.946 68.7249 13.8016 68.4682 13.8016C68.2436 13.8016 68.0831 13.9621 68.051 14.2348C68.0671 14.4755 68.0831 14.7643 68.0831 15.0691Z" fill="white"/>
<path d="M27.5357 14.8192C27.5357 14.4342 27.5357 14.1293 27.5357 13.7924C27.5357 13.7122 27.4555 13.5678 27.6159 13.5678C27.7924 13.5678 27.7122 13.7282 27.7122 13.7924C27.7122 14.4342 27.7122 15.076 27.7122 15.7177C27.7122 15.8782 27.7443 16.0226 27.8405 16.1349C27.9689 16.2632 28.1293 16.2953 28.2737 16.2311C28.4502 16.183 28.5304 16.0226 28.5625 15.8461C28.5946 15.5894 28.5946 15.3647 28.5946 15.108C28.5946 14.6428 28.5946 14.1775 28.5946 13.7282C28.5946 13.648 28.5465 13.5518 28.6909 13.5518C28.8192 13.5518 28.7711 13.6801 28.7711 13.7282C28.7711 14.37 28.7711 14.9797 28.7711 15.6215C28.7711 15.7177 28.739 15.8461 28.723 15.9584C28.6427 16.2472 28.4662 16.3916 28.1774 16.3916C27.8726 16.3916 27.664 16.2632 27.5838 15.9744C27.4555 15.6215 27.5517 15.1883 27.5357 14.8192Z" fill="white"/>
<path d="M16.6809 15.1631C16.6809 14.8101 16.6809 14.5534 16.6809 14.2646C16.713 13.8795 16.8894 13.6549 17.1943 13.6228C17.6756 13.5907 18.0125 14.0079 17.8842 14.4892C17.8521 14.5373 17.8521 14.5694 17.7879 14.5694C17.7398 14.5694 17.7077 14.5373 17.7077 14.4732C17.7077 14.3769 17.7077 14.2646 17.6756 14.1683C17.6435 13.9437 17.5152 13.8154 17.2905 13.8154C17.0659 13.8154 16.8734 13.9437 16.8573 14.1683C16.8092 14.778 16.8092 15.4037 16.8573 16.0134C16.8894 16.238 17.0338 16.3664 17.2745 16.3664C17.4991 16.3664 17.6596 16.238 17.6916 16.0134C17.7237 15.8851 17.6916 15.7567 17.7237 15.6284C17.7237 15.5802 17.7558 15.5 17.82 15.5321C17.9002 15.5321 17.9002 15.5802 17.9002 15.6604C17.9002 15.8369 17.9002 15.9974 17.8521 16.1739C17.7719 16.4626 17.5633 16.591 17.2905 16.591C16.9857 16.591 16.8092 16.4626 16.729 16.1739C16.6327 15.7727 16.713 15.4198 16.6809 15.1631Z" fill="white"/>
<path d="M25.8658 15.1452C25.8658 14.7923 25.8337 14.5035 25.8658 14.2468C25.8979 13.7815 26.1546 13.5569 26.5878 13.6371C26.9247 13.6852 27.2296 14.2307 27.0691 14.5356C27.037 14.5837 27.021 14.5837 26.9729 14.5837C26.9247 14.5837 26.8927 14.5516 26.8927 14.5035C26.8927 14.4072 26.8927 14.2949 26.8927 14.1986C26.8606 13.9419 26.7162 13.7815 26.4755 13.7815C26.2509 13.7815 26.0584 13.9098 26.0423 14.1665C26.0102 14.7602 26.0102 15.3698 26.0423 15.9635C26.0744 16.1881 26.2188 16.3485 26.4595 16.3485C26.7001 16.3485 26.8445 16.2202 26.8766 15.9635C26.9087 15.8351 26.8766 15.7068 26.9087 15.5784C26.9087 15.5303 26.9087 15.4822 26.9889 15.4822C27.0691 15.4822 27.0852 15.5142 27.0852 15.5784C27.0852 15.787 27.0852 15.9635 27.037 16.1721C26.9408 16.4288 26.7483 16.525 26.4434 16.525C26.1546 16.525 25.9781 16.3646 25.8979 16.1079C25.8177 15.7389 25.8819 15.4019 25.8658 15.1452Z" fill="white"/>
<path d="M35.2481 15.0278C35.2481 15.3166 35.2481 15.5894 35.2481 15.8782C35.2801 16.167 35.4245 16.3114 35.6812 16.3114C35.9059 16.3114 36.0663 16.1509 36.0984 15.8782C36.0984 15.7819 36.0984 15.6696 36.0984 15.5733C36.0984 15.5252 36.0984 15.445 36.1786 15.445C36.2588 15.445 36.2749 15.4931 36.2749 15.5412C36.2749 15.7177 36.2749 15.8942 36.2268 16.0867C36.1465 16.3434 35.938 16.5039 35.6331 16.4718C35.3443 16.4718 35.1678 16.3434 35.0716 16.0546C35.0234 15.8782 35.0234 15.7177 35.0234 15.5412C35.0234 15.108 35.0234 14.6748 35.0234 14.2256C35.0234 13.7924 35.2481 13.5518 35.6171 13.5518C36.0503 13.5518 36.3872 14.017 36.2588 14.4181C36.2268 14.4663 36.2107 14.4984 36.1786 14.4984C36.1305 14.4984 36.0824 14.4663 36.0824 14.4181C36.0824 14.3219 36.0824 14.2096 36.0824 14.1133C36.0503 13.8566 35.9059 13.6962 35.6652 13.6962C35.4245 13.6962 35.2481 13.8245 35.2481 14.0812C35.216 14.4342 35.2481 14.739 35.2481 15.0278Z" fill="white"/>
<path d="M58.6665 15.0948C58.6665 14.7419 58.6665 14.4531 58.6665 14.1964C58.6986 13.7632 58.9232 13.5225 59.3404 13.5546C59.7254 13.5867 60.0303 14.1001 59.8859 14.4531C59.8538 14.5012 59.8377 14.5012 59.7896 14.5012C59.7415 14.5012 59.7094 14.4531 59.7094 14.4049C59.7094 14.3087 59.7094 14.1964 59.6773 14.1001C59.6452 13.8755 59.5168 13.7471 59.2922 13.7471C59.0676 13.7471 58.8751 13.8755 58.859 14.1001C58.8109 14.7098 58.8109 15.3355 58.859 15.9452C58.8911 16.1698 59.0355 16.2982 59.2762 16.2982C59.5168 16.2982 59.6292 16.1698 59.6933 15.9452C59.7254 15.8168 59.7254 15.6885 59.7254 15.5601C59.7254 15.4799 59.7254 15.4318 59.8217 15.4318C59.9019 15.4318 59.9019 15.4799 59.9019 15.5601C59.9019 15.7366 59.9019 15.8971 59.8538 16.0735C59.7736 16.3623 59.565 16.4907 59.2922 16.4907C58.9874 16.4907 58.8109 16.3623 58.7307 16.0735C58.6184 15.6885 58.6665 15.3516 58.6665 15.0948Z" fill="white"/>
<path d="M42.7186 16.134C42.8951 15.3639 43.0555 14.5938 43.232 13.8237C43.232 13.7916 43.232 13.7435 43.2641 13.7274C43.2641 13.6472 43.3122 13.5991 43.3925 13.6311C43.4887 13.6632 43.4406 13.7274 43.4406 13.7916C43.2802 14.4815 43.1518 15.1553 43.0074 15.8452C42.9753 16.0057 42.9272 16.1501 42.9111 16.3266C42.879 16.4228 42.863 16.5031 42.7346 16.5031C42.6063 16.5031 42.5742 16.4228 42.5582 16.3426C42.3817 15.4923 42.2052 14.6419 42.0127 13.8237C41.9806 13.7755 41.9324 13.6632 42.0608 13.6472C42.1571 13.6472 42.1571 13.7274 42.1891 13.8076C42.3656 14.6098 42.5261 15.396 42.7026 16.1982C42.6865 16.134 42.6865 16.134 42.7186 16.134Z" fill="white"/>
<path d="M48.7269 16.5131C48.3098 16.5131 48.0049 16.128 48.1172 15.7429C48.1493 15.6948 48.1493 15.6627 48.2135 15.6627C48.2777 15.6627 48.2937 15.7108 48.2937 15.759C48.2937 15.8552 48.2937 15.9676 48.3258 16.0478C48.3739 16.2243 48.5023 16.3366 48.7109 16.3526C48.9194 16.3526 49.0638 16.2724 49.128 16.0638C49.2243 15.759 49.1601 15.5023 48.9034 15.3258C48.743 15.1974 48.5665 15.0691 48.4221 14.9086C48.1975 14.7001 48.1172 14.4273 48.1654 14.1064C48.2456 13.7535 48.4542 13.593 48.8392 13.6251C49.1441 13.6572 49.3205 13.8497 49.3526 14.1867C49.3526 14.2669 49.4008 14.3631 49.2724 14.3631C49.1441 14.3631 49.1922 14.2669 49.1761 14.2027C49.128 13.8979 48.9676 13.7374 48.7109 13.7695C48.406 13.8016 48.2456 14.1867 48.3739 14.5075C48.4221 14.668 48.5504 14.7642 48.6627 14.8605C48.8232 14.9889 48.9676 15.0851 49.0959 15.2135C49.3526 15.4381 49.4008 15.8232 49.2724 16.144C49.1761 16.3847 48.9836 16.5131 48.7269 16.5131Z" fill="white"/>
<path d="M57.2578 15.0372C57.2578 14.6201 57.2578 14.235 57.2578 13.8339C57.2578 13.6735 57.3059 13.6253 57.4664 13.6253C57.7231 13.6253 57.9798 13.6253 58.2365 13.6253C58.2846 13.6253 58.397 13.5932 58.397 13.7056C58.397 13.8179 58.3167 13.7858 58.2365 13.7858C58.0279 13.7858 57.8514 13.7858 57.6429 13.7858C57.4824 13.7858 57.4343 13.8179 57.4343 13.9623C57.4664 14.2511 57.4343 14.5238 57.4343 14.8126C57.4343 14.9089 57.4664 14.973 57.5627 14.973C57.7391 14.973 57.8996 14.973 58.0761 14.973C58.1242 14.973 58.2044 14.973 58.2044 15.0533C58.2044 15.1335 58.1563 15.1335 58.0761 15.1335C57.9156 15.1335 57.7712 15.1335 57.6108 15.1335C57.4824 15.1335 57.4022 15.1656 57.4343 15.31C57.4343 15.5988 57.4343 15.8715 57.4343 16.1764C57.4343 16.3047 57.4824 16.3528 57.6108 16.3368C57.8194 16.3368 58.0279 16.3368 58.2205 16.3368C58.2686 16.3368 58.3809 16.3047 58.3809 16.417C58.3809 16.5133 58.3007 16.4972 58.2526 16.4972C57.9638 16.4972 57.7071 16.4972 57.4343 16.4972C57.2739 16.4972 57.2578 16.4491 57.2578 16.3208C57.2578 15.8555 57.2578 15.4383 57.2578 15.0372Z" fill="white"/>
<path d="M32.2422 15.0354C32.2422 14.6182 32.2422 14.2332 32.2422 13.8321C32.2422 13.6716 32.2743 13.6074 32.4508 13.6235C32.7075 13.6556 32.9963 13.6235 33.253 13.6235C33.3011 13.6235 33.4134 13.6235 33.3813 13.7198C33.3813 13.8 33.3011 13.8 33.253 13.8C33.0444 13.8 32.8198 13.8 32.6112 13.8C32.5149 13.8 32.4508 13.8321 32.4508 13.9604C32.4508 14.2492 32.4508 14.522 32.4508 14.8268C32.4508 14.9552 32.4989 14.9872 32.6112 14.9872C32.7716 14.9872 32.916 14.9872 33.0765 14.9872C33.1246 14.9872 33.2369 14.9552 33.2369 15.0675C33.2369 15.1958 33.1407 15.1637 33.0765 15.1637C32.916 15.1637 32.7716 15.1637 32.6433 15.1637C32.5149 15.1637 32.4668 15.1958 32.4668 15.3242C32.4668 15.613 32.4668 15.8857 32.4668 16.1906C32.4668 16.351 32.5149 16.367 32.6433 16.367C32.8519 16.367 33.0604 16.367 33.253 16.367C33.3332 16.367 33.3813 16.367 33.3813 16.4633C33.3813 16.5435 33.3011 16.5435 33.253 16.5435C32.9642 16.5435 32.7075 16.5435 32.4347 16.5435C32.3064 16.5435 32.2582 16.5114 32.2582 16.367C32.2422 15.8697 32.2422 15.4365 32.2422 15.0354Z" fill="white"/>
<path d="M44.1953 15C44.1953 14.5828 44.1953 14.1817 44.1953 13.7646C44.1953 13.6041 44.2434 13.556 44.4039 13.556C44.6606 13.556 44.9494 13.556 45.2061 13.556C45.2542 13.556 45.3665 13.5239 45.3345 13.6362C45.3345 13.7164 45.2542 13.7164 45.2061 13.7164C44.9975 13.7164 44.7889 13.7164 44.5964 13.7164C44.4681 13.7164 44.3878 13.7485 44.4199 13.8929C44.4199 14.1817 44.4199 14.4545 44.4199 14.7433C44.4199 14.8716 44.452 14.9037 44.5804 14.9037C44.7569 14.9037 44.9173 14.9037 45.0938 14.9037C45.1419 14.9037 45.19 14.9037 45.19 14.9839C45.19 15.0642 45.1419 15.0802 45.0938 15.0802C44.9333 15.0802 44.7569 15.0802 44.6125 15.0802C44.4841 15.0802 44.436 15.1123 44.436 15.2406C44.436 15.5455 44.436 15.8343 44.436 16.1391C44.436 16.2675 44.4841 16.2996 44.5964 16.2996C44.805 16.2996 45.0296 16.2996 45.2382 16.2996C45.3184 16.2996 45.3665 16.2996 45.3665 16.3958C45.3665 16.476 45.2863 16.476 45.2382 16.476C44.9494 16.476 44.6766 16.476 44.3878 16.476C44.2595 16.476 44.2274 16.4279 44.2274 16.2996C44.1953 15.8343 44.1953 15.4332 44.1953 15Z" fill="white"/>
<path d="M41.1796 13.6253C41.3079 13.6253 41.4363 13.6253 41.5646 13.6253C41.6128 13.6253 41.7251 13.5932 41.7251 13.7056C41.7251 13.8179 41.6288 13.7858 41.5646 13.7858C41.3561 13.7858 41.1475 13.7858 40.955 13.7858C40.8266 13.7858 40.7785 13.8339 40.7945 13.9623C40.7945 14.2511 40.7945 14.5238 40.7945 14.8126C40.7945 14.941 40.8426 14.973 40.971 14.973C41.1314 14.973 41.2758 14.973 41.4363 14.973C41.4844 14.973 41.5967 14.941 41.5646 15.0533C41.5646 15.1335 41.4844 15.1335 41.4363 15.1335C41.2758 15.1335 41.0993 15.1335 40.955 15.1335C40.8266 15.1335 40.7945 15.1656 40.7945 15.2939C40.7945 15.5988 40.7945 15.8876 40.7945 16.1924C40.7945 16.3208 40.8426 16.3528 40.955 16.3528C41.1635 16.3528 41.3721 16.3528 41.5646 16.3528C41.6449 16.3528 41.7251 16.3208 41.7251 16.4491C41.7251 16.5454 41.6288 16.5293 41.5646 16.5293C41.2758 16.5293 41.0191 16.5293 40.7464 16.5293C40.618 16.5293 40.5859 16.4812 40.5859 16.3528C40.5859 15.5346 40.5859 14.6843 40.5859 13.866C40.5859 13.7056 40.6341 13.6574 40.7945 13.6574C40.8908 13.6253 41.0191 13.6253 41.1796 13.6253Z" fill="white"/>
<path d="M20.4666 15.115C20.6431 14.6336 20.8035 14.1844 20.9479 13.7833C20.98 13.7031 20.98 13.6068 21.1084 13.6229C21.2367 13.671 21.1405 13.7512 21.1084 13.8314C21.0282 14.04 20.98 14.2646 20.8838 14.4411C20.6271 15.0348 20.4987 15.6284 20.5468 16.2702C20.5468 16.3504 20.6271 16.4787 20.4506 16.4787C20.2901 16.4787 20.3543 16.3504 20.3543 16.2702C20.4827 15.4198 20.0976 14.6978 19.8409 13.9437C19.8088 13.8956 19.7928 13.8154 19.7607 13.7673C19.7286 13.7191 19.7125 13.671 19.7928 13.6389C19.8409 13.6068 19.9211 13.6389 19.9211 13.7191C19.9692 13.8796 20.0174 14.0079 20.0815 14.1523C20.2259 14.4572 20.3383 14.762 20.4666 15.115Z" fill="white"/>
<path d="M69.8855 15.1164C70.0459 14.6832 70.1903 14.266 70.3187 13.8809C70.3508 13.8328 70.3668 13.7526 70.3989 13.7045C70.431 13.6563 70.447 13.6082 70.5272 13.6242C70.6075 13.6403 70.5754 13.7205 70.5593 13.7847C70.4791 13.9933 70.3989 14.2179 70.3347 14.4264C70.078 15.0201 69.9176 15.6298 69.9978 16.3036C69.9978 16.3838 70.0459 16.5122 69.9015 16.5122C69.7571 16.5122 69.8053 16.3838 69.8053 16.3357C69.9336 15.5175 69.5806 14.7634 69.3239 14.0253C69.2918 13.9772 69.2758 13.9291 69.2758 13.897C69.2758 13.8168 69.1474 13.7205 69.2758 13.6724C69.4041 13.6242 69.4041 13.7526 69.4362 13.8489C69.5646 14.2179 69.709 14.635 69.8855 15.1164Z" fill="white"/>
<path d="M37.4074 15.1217C37.5839 14.6404 37.7444 14.2233 37.8888 13.7901C37.9208 13.7098 37.9208 13.6136 38.0492 13.6296C38.1776 13.6778 38.0813 13.758 38.0813 13.8382C38.0011 14.0468 37.9529 14.2714 37.8567 14.4479C37.6 15.0415 37.4716 15.6352 37.5197 16.2769C37.5197 16.3571 37.6 16.4855 37.4235 16.4855C37.263 16.4855 37.3272 16.3571 37.3272 16.2769C37.4556 15.4587 37.1026 14.7046 36.8138 13.9666C36.7817 13.9184 36.7657 13.8382 36.7336 13.7901C36.7015 13.7419 36.6534 13.6617 36.7657 13.6296C36.8619 13.5975 36.894 13.6617 36.9261 13.7259C36.9742 13.8863 37.0224 14.0307 37.1026 14.1912C37.1989 14.48 37.2951 14.8009 37.4074 15.1217Z" fill="white"/>
<path d="M23.3584 15.122C23.3584 14.7691 23.3584 14.384 23.3584 14.015C23.3584 13.8064 23.2782 13.7583 23.1017 13.7904C23.0054 13.7904 22.7969 13.8706 22.7969 13.7102C22.7969 13.5818 22.9734 13.6299 23.0857 13.6299C23.3905 13.6299 23.6793 13.6299 23.9841 13.6299C24.0323 13.6299 24.1446 13.6299 24.1125 13.7262C24.1125 13.8064 24.0323 13.8064 23.9841 13.8064C23.8558 13.8064 23.6793 13.7583 23.567 13.8385C23.4707 13.9348 23.5349 14.1434 23.5349 14.3038C23.5349 14.9776 23.5349 15.6675 23.5349 16.3254C23.5349 16.4056 23.583 16.5018 23.4547 16.5339C23.2942 16.5339 23.3584 16.4377 23.3584 16.3574C23.3584 15.8922 23.3584 15.5071 23.3584 15.122Z" fill="white"/>
<path d="M56.1631 15.1174C56.1631 14.7645 56.1631 14.3955 56.1631 14.0425C56.1631 13.8339 56.115 13.7537 55.9064 13.7858C55.8101 13.7858 55.6016 13.882 55.6016 13.7056C55.6016 13.5772 55.7781 13.6574 55.8904 13.6253C56.1792 13.6253 56.4519 13.6253 56.7567 13.6253C56.8049 13.6253 56.9172 13.5932 56.9172 13.7056C56.9172 13.8179 56.837 13.7858 56.7888 13.7858C56.3556 13.8339 56.3556 13.8339 56.3556 14.2671C56.3556 14.941 56.3556 15.6309 56.3556 16.2887C56.3556 16.3689 56.4038 16.4652 56.2754 16.4652C56.115 16.4652 56.1792 16.3368 56.1792 16.2566C56.1631 15.8876 56.1631 15.5025 56.1631 15.1174Z" fill="white"/>
<path d="M64.777 15.033C64.777 14.6158 64.777 14.2147 64.777 13.7976C64.777 13.7174 64.7449 13.6211 64.8733 13.6211C65.0016 13.6211 64.9695 13.7174 64.9695 13.7976C64.9695 14.5356 65.0016 15.2897 64.9695 16.0277C64.9695 16.2523 65.0498 16.3165 65.2583 16.2844C65.4188 16.2523 65.5632 16.2844 65.6915 16.2844C65.7717 16.2844 65.852 16.2523 65.868 16.3646C65.868 16.493 65.7717 16.4449 65.7076 16.4449C65.4509 16.4449 65.2262 16.4449 64.9695 16.4449C64.8091 16.4449 64.793 16.3967 64.793 16.2684C64.777 15.8673 64.777 15.4341 64.777 15.033Z" fill="white"/>
<path d="M43.6561 15.049C43.6561 14.6319 43.6561 14.1987 43.6561 13.7976C43.6561 13.7174 43.608 13.6211 43.7524 13.6211C43.9128 13.6211 43.8487 13.7174 43.8487 13.7976C43.8487 14.6479 43.8487 15.4662 43.8487 16.3165C43.8487 16.3646 43.8968 16.477 43.7684 16.477C43.6401 16.477 43.6722 16.3807 43.6722 16.3005C43.6561 15.8673 43.6561 15.4662 43.6561 15.049Z" fill="white"/>
<path d="M46.2312 15.9141C46.2633 15.9943 46.2312 16.0745 46.1831 16.1387C46.135 16.0585 46.151 15.9782 46.151 15.9301C46.151 15.9462 46.1831 15.9462 46.2312 15.9141Z" fill="white"/>
<path d="M14.6006 2.6416C14.8249 2.64169 14.8564 2.72221 14.8564 2.93066V17.3057C14.8564 17.5302 14.7768 17.5947 14.5684 17.5947H5.18262C5.00613 17.5947 4.87738 17.5463 4.74902 17.418C3.20885 15.8778 1.70034 14.338 0.160156 12.7979C0.0638918 12.7016 0 12.5887 0 12.4443V2.89844C0 2.68986 0.08035 2.6416 0.256836 2.6416H14.6006ZM7.76074 5.08496C7.63277 5.05305 7.58479 5.08491 7.55273 5.21289C7.47252 5.56585 7.37612 5.93513 7.2959 6.28809C7.24777 6.48062 7.1995 6.48033 7.03906 6.44824C6.76639 6.36804 6.50943 6.28835 6.2207 6.24023C5.99623 6.19206 5.69173 5.98348 5.53125 6.11133C5.37081 6.23968 5.40249 6.57714 5.32227 6.80176C5.27425 6.92994 5.29083 6.9943 5.45117 7.02637C5.61139 7.05843 5.78765 7.10624 5.96387 7.1543C6.22057 7.23452 6.31766 7.44349 6.26953 7.7002C5.9647 8.95162 5.6271 10.2193 5.32227 11.4707C5.27409 11.679 5.14585 11.7755 4.9375 11.7275C4.76101 11.7115 4.6165 11.679 4.45605 11.6309C4.3598 11.5988 4.27958 11.5992 4.23145 11.7275C4.13522 11.952 4.02296 12.1925 3.92676 12.417C3.86263 12.5452 3.89436 12.5939 4.02246 12.626C4.47162 12.7383 4.93715 12.8666 5.40234 12.9629C5.5307 12.9789 5.57938 13.0271 5.53125 13.1875C5.45111 13.3639 5.41823 13.5405 5.37012 13.749C5.32185 13.9736 5.14614 14.2624 5.27441 14.3906C5.37078 14.5509 5.69148 14.5506 5.91602 14.5986H5.94824C6.04449 14.6628 6.09291 14.6312 6.125 14.5029C6.17313 14.2141 6.22056 13.9569 6.30078 13.7002C6.42907 13.187 6.43003 13.1872 6.94336 13.3477C7.0712 13.3797 7.10315 13.4278 7.07129 13.5557C7.00715 13.732 6.95923 13.941 6.91113 14.1494C6.89509 14.374 6.71819 14.6315 6.81445 14.792C6.91083 14.968 7.21538 14.92 7.42383 15C7.60024 15.0481 7.64858 15.0001 7.68066 14.8398C7.74482 14.503 7.85711 14.1981 7.90527 13.8613C7.93735 13.6208 8.03383 13.6043 8.24219 13.6523C8.57911 13.7326 8.91656 13.7645 9.26953 13.7324C10.2 13.6842 10.8097 13.203 11.0664 12.2725C11.291 11.4703 11.114 10.8289 10.2637 10.3477C10.2637 10.3477 10.2959 10.3157 10.376 10.3477C10.9857 10.1391 11.2909 9.67316 11.3711 9.06348C11.4512 8.42186 11.1948 7.92421 10.6494 7.57129C10.5532 7.49108 10.4242 7.4435 10.2959 7.36328C10.1035 7.26713 9.73501 7.23475 9.68652 7.05859C9.63839 6.85002 9.79855 6.56056 9.84668 6.33594C9.8629 6.1274 10.0717 5.8547 9.94336 5.69434C9.81506 5.53398 9.49413 5.56641 9.26953 5.48633C9.1733 5.42217 9.12486 5.45379 9.09277 5.58203C9.04464 5.83874 8.96415 6.06361 8.91602 6.32031C8.7877 6.8496 8.78763 6.84932 8.24219 6.67285C8.14631 6.62487 8.11458 6.59301 8.14648 6.49707C8.22665 6.32071 8.25856 6.11195 8.30664 5.93555C8.35477 5.72697 8.53084 5.45341 8.43457 5.29297C8.30596 5.13307 7.98513 5.1651 7.76074 5.08496Z" fill="#0099FD"/>
<path d="M16.3496 2.64453C17.0874 2.67658 17.8413 2.59661 18.5791 2.67676C19.686 2.8051 20.1196 3.23791 20.248 4.34473C20.2962 4.77792 20.296 5.19571 20.2158 5.62891C20.1195 6.12612 19.8787 6.54316 19.3975 6.7998C20.1674 7.13666 20.3765 7.7782 20.3926 8.5C20.4247 9.01341 20.441 9.55969 20.3447 10.041C20.1682 10.9073 19.5742 11.4523 18.6758 11.4844C17.8736 11.5165 17.0874 11.4845 16.2852 11.5166C16.1525 11.5166 16.1287 11.4624 16.125 11.3877V2.86914C16.125 2.69265 16.1571 2.64453 16.3496 2.64453ZM17.6436 7.58203C17.5473 7.54994 17.5146 7.61467 17.5146 7.71094V10.1494C17.5146 10.2457 17.5795 10.2773 17.6758 10.2773C17.9163 10.2774 18.173 10.3094 18.3975 10.2773C18.7823 10.2452 18.9586 10.0693 19.0068 9.68457C19.0389 9.45995 19.0391 9.21876 19.0391 8.99414C19.007 8.73748 19.0067 8.48044 18.9746 8.25586C18.9264 7.80691 18.686 7.61411 18.2529 7.58203H17.6436ZM17.707 3.9668C17.563 3.93499 17.5312 4.01534 17.5312 4.14355V5.12207C17.5312 5.29843 17.5307 5.50681 17.5146 5.69922C17.5146 6.35691 17.515 6.35768 18.1885 6.30957C18.5734 6.27749 18.782 6.06865 18.8623 5.71582C18.9425 5.29872 18.9425 4.89757 18.8623 4.48047C18.8142 4.14354 18.6059 3.9668 18.2529 3.9668C18.0604 3.96681 17.8835 3.99888 17.707 3.9668Z" fill="white"/>
<path d="M32.835 4.51758C32.8831 2.94528 33.9902 2.46347 35.2256 2.5918C36.3486 2.72014 36.9741 3.44229 36.9902 4.64551C37.0705 5.46376 37.0547 6.28233 37.0547 7.10059V9.50684C37.0547 9.85981 36.9745 10.2295 36.8301 10.5664C36.6215 10.9994 36.3167 11.3044 35.8516 11.4648C35.258 11.6734 34.6481 11.6894 34.0225 11.4648C33.2044 11.1601 32.8672 10.47 32.835 9.66797C32.8029 7.95133 32.7868 6.23421 32.835 4.51758ZM34.9336 3.82324C34.5485 3.82324 34.3404 3.98394 34.2441 4.33691C34.196 4.46523 34.1953 4.59336 34.1953 4.72168V9.4707C34.1953 9.59906 34.1955 9.69587 34.2275 9.82422C34.3239 10.193 34.5331 10.3691 34.918 10.3691C35.2866 10.369 35.5115 10.1768 35.5918 9.82422C35.6239 9.69587 35.623 9.56683 35.623 9.43848V7.12793C35.623 6.34194 35.6232 5.57197 35.6553 4.75391C35.6553 4.62563 35.6395 4.46523 35.6074 4.33691C35.4951 3.99999 35.2866 3.82325 34.9336 3.82324Z" fill="white"/>
<path d="M53.8887 13.623C54.4338 13.6231 54.626 13.7835 54.6582 14.3125C54.6903 14.858 54.7062 15.388 54.626 15.9014C54.5778 16.2863 54.3695 16.4468 54.0166 16.4629C53.4071 16.495 53.4072 16.4948 53.4072 15.8691C53.3752 15.5965 53.375 15.3078 53.375 15.0352V13.832C53.375 13.6555 53.4231 13.607 53.5996 13.623H53.8887ZM53.8613 13.8291C53.7009 13.8291 53.6523 13.8454 53.6523 14.0059V15.0801C53.6523 15.4651 53.6525 15.8189 53.6846 16.1719C53.6845 16.2519 53.6526 16.3156 53.7324 16.3477C54.1174 16.5241 54.5506 16.268 54.5508 15.835V14.5029C54.5508 13.9576 54.4065 13.8292 53.8613 13.8291Z" fill="white"/>
<path d="M39.2432 13.5605C40.1732 13.4805 40.1735 13.9141 40.1094 14.668C40.0612 14.8765 39.9323 14.9731 39.7559 15.0693C40.0445 15.1655 40.1093 15.3738 40.1094 15.6143C40.1094 15.8549 40.0774 16.0801 40.1416 16.3047C40.1417 16.3527 40.2212 16.4006 40.1094 16.4326C40.0293 16.4647 39.9485 16.401 39.9482 16.3369C39.9162 16.2408 39.917 16.1284 39.917 16.0322V15.7754C39.917 15.2941 39.7077 15.1009 39.1943 15.165C39.1305 15.181 39.1067 15.2054 39.0986 15.2354V16.2881C39.0986 16.3362 39.1305 16.4171 39.0186 16.4492C38.9223 16.4492 38.9219 16.3683 38.9219 16.2881V13.7217C38.9219 13.5934 38.9699 13.5606 39.082 13.5605H39.2432ZM39.4609 13.7695C39.2847 13.7376 39.173 13.7857 39.2051 13.9941C39.2371 14.1224 39.2051 14.2507 39.2051 14.3789V14.8926C39.2051 14.9407 39.2048 14.9894 39.2529 15.0215C39.35 15.0853 39.8622 14.9886 39.9424 14.8604C40.1028 14.5876 40.0709 14.2829 39.9746 13.9941C39.8944 13.7375 39.6695 13.8016 39.4609 13.7695Z" fill="white"/>
<path d="M19.0254 13.6211C19.3302 13.6532 19.507 13.8298 19.5391 14.1025C19.5711 14.2629 19.5391 14.4396 19.5391 14.584C19.539 14.8564 19.4745 14.9526 19.2021 15.1289C19.4588 15.2252 19.5391 15.4181 19.5391 15.6748C19.5391 15.8993 19.5072 16.1397 19.5713 16.3643C19.5713 16.4124 19.6511 16.4611 19.5391 16.4932C19.4589 16.5252 19.41 16.4932 19.3779 16.4131C19.3459 16.333 19.3467 16.2526 19.3467 16.1885V15.835C19.3466 15.3538 19.1213 15.1614 18.624 15.2256C18.56 15.2417 18.5363 15.2658 18.5283 15.2959V16.3486C18.5283 16.3967 18.56 16.4766 18.4482 16.5088C18.352 16.5088 18.3516 16.4288 18.3516 16.3486V13.7812C18.3516 13.6853 18.3837 13.6213 18.4795 13.6211H19.0254ZM19.4014 14.0176C19.3372 13.825 19.0163 13.6966 18.7275 13.793L18.6318 13.8564V14.8838C18.6318 14.9317 18.6155 14.9797 18.6631 15.0117C18.7914 15.1401 19.3532 14.9636 19.4014 14.7871C19.4815 14.5305 19.4815 14.2741 19.4014 14.0176Z" fill="white"/>
<path d="M30.915 13.5605C31.8455 13.4803 31.8458 13.9457 31.7656 14.6836C31.7496 14.8922 31.6208 14.9887 31.4443 15.085C31.7331 15.1812 31.7979 15.3898 31.7979 15.6465C31.7978 15.8711 31.765 16.0797 31.8291 16.3203C31.8291 16.3684 31.9095 16.4162 31.7979 16.4482C31.7177 16.4803 31.6368 16.4487 31.6367 16.3525C31.6046 16.1761 31.6045 15.9992 31.6045 15.8066C31.6044 15.2934 31.4761 15.165 30.9307 15.165C30.8026 15.1651 30.7549 15.2136 30.7549 15.3418V16.2881C30.7549 16.3361 30.7865 16.4161 30.6748 16.4482C30.5785 16.4482 30.5781 16.4004 30.5781 16.2881V13.7207C30.5782 13.5928 30.6263 13.5606 30.7383 13.5605H30.915ZM31.1191 13.7598C30.9106 13.7598 30.8302 13.808 30.8623 14.0166V14.3691C30.8623 14.5456 30.8624 14.6903 30.8945 14.8828C30.8945 14.9309 30.8625 14.9787 30.9424 15.0107C31.2952 15.1711 31.7126 14.9151 31.7129 14.5303V14.3535C31.7129 13.8883 31.5843 13.7919 31.1191 13.7598Z" fill="white"/>
<path d="M29.0742 13.6221H29.2988C29.6036 13.6221 29.9401 13.5902 30.1006 13.959C30.245 14.3601 30.1172 14.8419 29.7803 15.0986C30.0368 15.1949 30.1172 15.4035 30.1172 15.6602C30.1171 15.8686 30.0853 16.0933 30.1494 16.3018C30.1497 16.3499 30.2451 16.4298 30.1172 16.4619C30.021 16.494 29.9572 16.4301 29.957 16.334C29.957 16.2056 29.9248 16.0766 29.9248 15.9482V15.6113C29.8925 15.2746 29.443 15.05 29.1543 15.1943C29.0741 15.2425 29.1064 15.2909 29.1064 15.3711V16.4277C29.0985 16.4579 29.0741 16.4785 29.0098 16.4785C28.9458 16.4785 28.9221 16.4539 28.9141 16.4219V13.7822C28.9141 13.6861 28.946 13.606 29.0742 13.6221ZM29.3154 13.8398C29.0913 13.8881 29.2518 14.0651 29.2197 14.1934C29.1878 14.2735 29.2197 14.354 29.2197 14.4502C29.2197 14.6264 29.2195 14.7707 29.1875 14.9629C29.1875 15.011 29.1873 15.0597 29.2354 15.0918C29.4598 15.2201 29.9572 15.0116 30.0059 14.7871C30.054 14.5785 30.054 14.3531 30.0059 14.1445C29.9255 13.8881 29.7003 13.7917 29.3154 13.8398Z" fill="white"/>
<path d="M66.874 13.625C67.1789 13.6571 67.4199 13.8497 67.4199 14.2188C67.436 14.4914 67.4355 14.7802 67.4355 15.085V15.9033C67.4355 16.2884 67.2109 16.5127 66.874 16.5127C66.489 16.5448 66.2324 16.3527 66.2002 15.9678C66.1521 15.3581 66.1521 14.7643 66.2002 14.1387C66.2323 13.7536 66.489 13.5929 66.874 13.625ZM66.8584 13.7598C66.6019 13.7598 66.4736 13.9201 66.4414 14.2246V15.8291C66.4735 16.1178 66.6018 16.2949 66.8584 16.2949C67.1151 16.327 67.3242 16.1662 67.3242 15.8613C67.3563 15.316 67.3563 14.7547 67.3242 14.1934C67.2921 13.8885 67.1151 13.7598 66.8584 13.7598Z" fill="white"/>
<path d="M64.0801 13.625C64.417 13.6571 64.6256 13.8825 64.6416 14.2676V15.8721C64.6414 16.2569 64.4169 16.4816 64.0801 16.5137C63.6952 16.5457 63.4384 16.353 63.4062 15.9521C63.3742 15.3587 63.3742 14.7649 63.4062 14.1875C63.4383 13.8025 63.6952 13.593 64.0801 13.625ZM64.0449 13.7656C63.8203 13.7977 63.6602 13.9427 63.6602 14.2314V15.8193C63.6602 16.1562 63.8041 16.333 64.0928 16.333C64.3495 16.333 64.4943 16.1563 64.5264 15.8193V15.0811C64.4943 14.7763 64.5258 14.4712 64.5098 14.1504C64.4776 13.862 64.3014 13.7336 64.0449 13.7656Z" fill="white"/>
<path d="M25.1709 13.625C25.4757 13.6571 25.7168 13.8497 25.7168 14.2188C25.7328 14.4914 25.7324 14.7802 25.7324 15.085V15.9033C25.7324 16.2884 25.5078 16.5127 25.1709 16.5127C24.7859 16.5448 24.5292 16.3527 24.4971 15.9678C24.4489 15.3581 24.449 14.7643 24.4971 14.1387C24.5292 13.7536 24.7858 13.5929 25.1709 13.625ZM25.1699 13.7598C24.9133 13.7598 24.7851 13.9201 24.7529 14.2246V15.043C24.7529 15.3156 24.7209 15.5725 24.7529 15.8291C24.785 16.1179 24.9132 16.2949 25.1699 16.2949C25.4265 16.3269 25.6348 16.1661 25.6348 15.8613C25.6668 15.316 25.6668 14.7547 25.6348 14.1934C25.6027 13.8886 25.4265 13.7598 25.1699 13.7598Z" fill="white"/>
<path d="M50.8008 13.6211C50.9771 13.6212 50.9615 13.7499 50.9775 13.8301C51.154 14.6481 51.33 15.4663 51.5225 16.3164C51.5545 16.3325 51.5707 16.3643 51.5547 16.3643C51.5867 16.4604 51.5548 16.4931 51.5068 16.4932C51.4266 16.4932 51.41 16.4932 51.3779 16.4131C51.3458 16.2847 51.3299 16.1879 51.2979 16.0596C51.2657 15.8994 51.2013 15.8517 51.041 15.8838H50.8809C50.3676 15.8838 50.3675 15.8834 50.2393 16.3643C50.2072 16.4445 50.2066 16.5413 50.1104 16.4932C49.9825 16.461 50.0631 16.3645 50.0791 16.3164C50.2555 15.4984 50.4315 14.6802 50.624 13.8301C50.6561 13.7338 50.6564 13.6211 50.8008 13.6211ZM50.3164 15.6475H51.0381C51.1023 15.6475 51.1669 15.647 51.1348 15.5508C51.0064 15.0214 50.8783 14.4595 50.75 13.9141C50.75 13.9141 50.7172 13.9145 50.7012 13.8984C50.5728 14.46 50.4448 15.0538 50.3164 15.6475Z" fill="white"/>
<path d="M21.6152 13.625C22.4813 13.593 22.6094 13.7212 22.6094 14.6035C22.6093 15.1488 22.433 15.325 21.8877 15.293C21.6632 15.293 21.5827 15.3413 21.5986 15.5977C21.6307 15.8543 21.5986 16.0793 21.5986 16.3359C21.5986 16.3841 21.6307 16.464 21.5186 16.4961C21.4223 16.4961 21.4219 16.4162 21.4219 16.3359C21.4058 15.935 21.4063 15.518 21.4062 15.085V13.833C21.4063 13.6727 21.4548 13.6571 21.6152 13.625ZM21.9775 13.7676C21.7691 13.7356 21.6574 13.7999 21.6895 14.0244C21.7215 14.1527 21.6895 14.3131 21.6895 14.4414C21.6895 14.6178 21.6891 14.7943 21.7051 14.9707C21.7051 15.0509 21.7055 15.0997 21.8018 15.1318C22.2827 15.2278 22.5389 15.019 22.5391 14.5381V14.3291C22.523 13.896 22.4107 13.7997 21.9775 13.7676Z" fill="white"/>
<path d="M8.15773 12.5117C7.69245 12.4796 7.25925 12.3833 6.79397 12.255C6.69771 12.2229 6.63353 12.1747 6.69771 12.0785C6.82606 11.533 6.95441 11.0035 7.11486 10.4901C7.14694 10.4099 7.14694 10.3296 7.2753 10.3617C7.8208 10.4901 8.38235 10.6184 8.86367 10.9233C9.15247 11.0998 9.37709 11.3565 9.345 11.7255C9.31291 12.1587 9.04016 12.4475 8.60697 12.5277C8.44652 12.5117 8.31817 12.5117 8.15773 12.5117Z" fill="#0099FD"/>
<path d="M8.49583 9.61197C8.06264 9.61197 7.69363 9.51571 7.34065 9.4034C7.2123 9.37131 7.2123 9.32318 7.24439 9.19482C7.37274 8.7135 7.46901 8.24822 7.59736 7.75085C7.62945 7.67063 7.64549 7.62249 7.7578 7.65458C8.23913 7.78294 8.75254 7.86316 9.16969 8.20008C9.39431 8.37657 9.50662 8.63328 9.45849 8.92207C9.41035 9.21087 9.24991 9.4034 8.97716 9.51571C8.78463 9.61197 8.62419 9.62802 8.49583 9.61197Z" fill="#0099FD"/>
</g>
<defs>
<clipPath id="clip0_334_4745">
<rect width="71.1638" height="19.9181" fill="white"/>
</clipPath>
</defs>
</svg>
