<svg width="72" height="20" viewBox="0 0 72 20" fill="none" xmlns="http://www.w3.org/2000/svg">
<g clip-path="url(#clip0_334_4832)">
<path d="M10.2891 15.0863H17.3721V13.2151H12.4295V10.9241H16.5324V9.05747H12.4295V6.94441H17.4086V5.07324H10.2891V15.0863Z" fill="white"/>
<path d="M25.911 11.3066L21.265 5.00391H18.0703L19.0652 6.26809V15.0443H21.2102V8.47242L26.0023 15.0124H28.0514V5.00391H25.911V11.3066Z" fill="white"/>
<path d="M7.38884 9.92459C8.31986 9.74204 9.10484 8.86578 9.10484 7.63355C9.10484 6.30548 8.13731 5.07324 6.21138 5.07324H0L0.967533 6.31004V15.0817H6.42587C8.35637 15.0817 9.35129 13.8769 9.35129 12.3708C9.31934 11.134 8.47503 10.0752 7.38884 9.92459ZM3.10341 6.93985H5.72761H5.7915C6.51715 6.93985 6.96897 7.36428 6.96897 7.99866C6.96897 8.63303 6.51715 9.05747 5.7915 9.05747H3.10797L3.10341 6.93985ZM5.87821 13.2106H3.10341V10.9195H5.87821C6.69058 10.9195 7.1424 11.4352 7.1424 12.065C7.14696 12.7907 6.66319 13.2106 5.87821 13.2106Z" fill="white"/>
<path d="M57.305 11.3759H58.4186V12.5534C58.0261 12.9139 57.2138 13.3064 56.3649 13.3064C54.585 13.3064 53.3208 11.9509 53.3208 10.1117C53.3208 8.26793 54.585 6.91247 56.3649 6.91247C57.3872 6.91247 58.2087 7.48295 58.6605 8.17665L60.3491 7.24563C59.6235 6.10011 58.3593 5.07324 56.3375 5.07324C53.4988 5.07324 51.1484 7.03569 51.1484 10.0798C51.1484 13.1238 53.4714 15.0863 56.3375 15.0863C58.0855 15.0863 59.4729 14.3606 60.4404 13.279V9.56862H55.8583L57.305 11.3759Z" fill="white"/>
<path d="M48.1408 11.3066L43.4948 5.00391H40.3047L41.2996 6.26809V15.0443H43.44V8.47242L48.2321 15.0124H50.2858V5.00391H48.1408V11.3066Z" fill="white"/>
<path d="M67.4 5.00391H63.2697L64.2646 6.26809L64.0821 6.74729L60.8828 15.0443H63.2971L63.9314 13.3557H66.0628H68.2443L68.8786 15.0443H71.2929L67.4 5.00391ZM64.47 11.4572L66.0354 7.14434L67.6008 11.4572H66.0126H64.47Z" fill="white"/>
<path d="M39.6639 5.00391H37.5234V15.0489H39.6639V5.00391Z" fill="white"/>
<path d="M36.5311 6.78924V5.07324H28.9141V6.94441H33.6468L28.9141 13.3703V15.0863H36.5402V13.2151H31.6843L36.5311 6.78924Z" fill="white"/>
</g>
<defs>
<clipPath id="clip0_334_4832">
<rect width="71.1638" height="19.9181" fill="white"/>
</clipPath>
</defs>
</svg>
