<svg width="71" height="13" viewBox="0 0 71 13" fill="none" xmlns="http://www.w3.org/2000/svg">
<path d="M10.3177 7.20135C10.1076 7.32974 9.86247 7.35308 9.67572 7.24804C9.44229 7.10798 9.30223 6.79285 9.30223 6.361V5.04211C9.30223 4.41185 9.05713 3.95666 8.63695 3.83994C7.92499 3.62985 7.3881 4.50522 7.18968 4.83202L5.92915 6.8512V4.36516C5.91748 3.79326 5.73074 3.45478 5.38059 3.34974C5.14716 3.27971 4.79701 3.31472 4.45854 3.82827L1.64569 8.33349C1.2722 7.62153 1.07378 6.82786 1.07378 6.02252C1.07378 3.30305 3.25636 1.09713 5.92915 1.09713C8.60194 1.09713 10.7845 3.30305 10.7845 6.02252V6.0342V6.04587C10.8079 6.57109 10.6445 6.99126 10.3177 7.20135ZM11.8583 6.02252V6.01085V5.99918C11.8466 2.69613 9.18552 0 5.92915 0C2.66112 0 0 2.69613 0 6.02252C0 9.33725 2.66112 12.045 5.92915 12.045C7.43478 12.045 8.85871 11.4731 9.95584 10.4344C10.1776 10.2243 10.1893 9.88581 9.97918 9.66405C9.78077 9.44229 9.44229 9.43062 9.22053 9.62903C9.22053 9.62903 9.22053 9.62903 9.20886 9.64071C8.32182 10.4811 7.13132 10.9596 5.90581 10.9596C4.47021 10.9596 3.18634 10.3293 2.2993 9.32557L4.83202 5.26387V7.14299C4.83202 8.0417 5.18217 8.33349 5.47396 8.41519C5.76575 8.49689 6.20927 8.43854 6.6878 7.67989L8.07672 5.42727C8.1234 5.35724 8.15842 5.28721 8.20511 5.24053V6.38434C8.20511 7.22469 8.54358 7.90164 9.12716 8.22845C9.65238 8.53191 10.3177 8.49689 10.8662 8.15842C11.5432 7.7149 11.905 6.94458 11.8583 6.02252ZM20.1218 3.96833C20.2618 4.05003 20.3902 4.24845 20.3902 4.42352C20.3902 4.70364 20.1568 4.93707 19.8883 4.93707C19.8183 4.93707 19.7599 4.91373 19.7016 4.90205C19.3865 4.66862 18.9896 4.51689 18.5695 4.51689C17.5774 4.51689 16.9004 5.32223 16.9004 6.32598C16.9004 7.32974 17.589 8.1234 18.5695 8.1234C19.0597 8.1234 19.5032 7.92499 19.83 7.60986C19.9117 7.5515 20.0167 7.51648 20.1218 7.51648C20.3902 7.51648 20.6003 7.72657 20.6003 7.99502C20.6003 8.17009 20.4953 8.32182 20.3669 8.40352C19.8883 8.81203 19.2464 9.08047 18.5811 9.08047C17.0638 9.08047 15.8266 7.83161 15.8266 6.29097C15.8266 4.75032 17.0638 3.50147 18.5811 3.50147C19.1414 3.4898 19.6782 3.66487 20.1218 3.96833ZM22.8996 5.13548C23.9384 5.13548 24.8021 6.01085 24.8021 7.09631C24.8021 8.17009 23.9267 9.09214 22.8996 9.09214C21.8141 9.09214 20.9154 8.18176 20.9154 7.09631C20.9154 6.01085 21.8141 5.13548 22.8996 5.13548ZM22.8879 8.1234C23.3431 8.1234 23.7283 7.69156 23.7283 7.10798C23.7283 6.5244 23.3431 6.15091 22.8879 6.15091C22.3977 6.15091 21.9892 6.51273 21.9892 7.10798C21.9892 7.67988 22.3977 8.1234 22.8879 8.1234ZM25.4557 8.48522V5.73073C25.4557 5.42727 25.6891 5.18217 25.9926 5.18217C26.2843 5.18217 26.5295 5.42727 26.5295 5.73073V8.48522C26.5295 8.78868 26.2843 9.03378 25.9926 9.03378C25.7008 9.03378 25.4557 8.77701 25.4557 8.48522ZM25.374 4.1434C25.374 3.78158 25.6541 3.50147 25.9926 3.50147C26.3427 3.50147 26.6228 3.79326 26.6228 4.1434C26.6228 4.49355 26.3427 4.77367 25.9926 4.77367C25.6424 4.76199 25.374 4.48188 25.374 4.1434ZM28.5836 6.99126V8.48522C28.5836 8.78868 28.3385 9.03378 28.0468 9.03378C27.755 9.03378 27.5099 8.78868 27.5099 8.48522V5.60235C27.5099 5.36892 27.6966 5.18217 27.93 5.18217C28.1635 5.18217 28.3385 5.38059 28.3385 5.60235C28.7704 5.19384 29.1556 5.13548 29.5174 5.13548C30.5912 5.13548 31.0697 5.94082 31.0697 6.86288V8.48522C31.0697 8.78868 30.8246 9.03378 30.5328 9.03378C30.241 9.03378 29.9959 8.78868 29.9959 8.48522V6.99126C29.9959 6.5244 29.9375 6.12757 29.2606 6.12757C28.7821 6.12757 28.5836 6.5244 28.5836 6.99126ZM34.5478 7.56317C34.4194 7.56317 34.3377 7.50481 34.2677 7.42311L33.0188 6.06921V8.48522C33.0188 8.78868 32.7737 9.03378 32.4819 9.03378C32.1902 9.03378 31.9451 8.78868 31.9451 8.48522V3.69988C31.9801 3.61818 32.0618 3.55982 32.1435 3.55982C32.2368 3.55982 32.3185 3.64153 32.3769 3.69988L34.3727 5.94082C34.4311 6.01085 34.5011 6.04587 34.5478 6.04587C34.5828 6.04587 34.6645 6.01085 34.7229 5.94082L36.7187 3.69988C36.7771 3.64153 36.8471 3.55982 36.9521 3.55982C37.0455 3.55982 37.1272 3.61818 37.1506 3.69988V8.48522C37.1506 8.78868 36.9171 9.03378 36.6137 9.03378C36.3219 9.03378 36.0768 8.78868 36.0768 8.48522V6.06921L34.8279 7.42311C34.7346 7.50481 34.6529 7.56317 34.5478 7.56317ZM39.7066 8.1234C40.1852 8.1234 40.5937 7.69156 40.5937 7.10798C40.5937 6.5244 40.1735 6.13924 39.7066 6.13924C39.2398 6.13924 38.8546 6.53607 38.8546 7.10798C38.8546 7.66821 39.2281 8.1234 39.7066 8.1234ZM40.8505 8.61361L40.8271 8.48522C40.617 8.89373 39.9517 9.08047 39.5316 9.08047C38.5278 9.08047 37.7808 8.17009 37.7808 7.08464C37.7808 6.01085 38.5395 5.12381 39.5899 5.12381C39.765 5.12381 40.3719 5.1705 40.8388 5.71906L40.8621 5.59067C40.8621 5.35724 41.0372 5.1705 41.2706 5.1705C41.5041 5.1705 41.6908 5.36892 41.6908 5.59067V8.60194C41.6908 8.83537 41.5041 9.02212 41.2706 9.02212C41.0255 9.03379 40.8505 8.83537 40.8505 8.61361ZM44.6437 6.12757H44.527C43.85 6.16258 43.7217 6.54774 43.7217 6.99126V8.48522C43.7217 8.78868 43.4766 9.03378 43.1848 9.03378C42.893 9.03378 42.6479 8.78868 42.6479 8.48522V5.60235C42.6479 5.36892 42.8346 5.18217 43.0681 5.18217C43.3015 5.18217 43.4766 5.38059 43.4766 5.60235C43.8734 5.22886 44.2002 5.14716 44.527 5.13548H44.632C44.8888 5.13548 45.1222 5.35725 45.1222 5.63736C45.1339 5.89414 44.9005 6.12757 44.6437 6.12757ZM48.7871 8.22845C48.8338 8.31015 48.8688 8.39185 48.8688 8.48522C48.8688 8.76534 48.612 9.02212 48.3319 9.02212C48.1452 9.02212 47.9818 8.88206 47.8534 8.71865L46.6162 7.28305V8.47355C46.6162 8.77701 46.3711 9.02212 46.0793 9.02212C45.7875 9.02212 45.5424 8.77701 45.5424 8.47355V4.09672C45.5424 3.79326 45.7758 3.54815 46.0793 3.54815C46.3828 3.54815 46.6162 3.79326 46.6162 4.09672V6.82786L47.8534 5.46229C47.9818 5.32223 48.1335 5.1705 48.3203 5.1705C48.5887 5.1705 48.8338 5.4156 48.8338 5.69572C48.8338 5.77742 48.8105 5.87079 48.7638 5.94082L47.7834 7.01461L48.7871 8.22845ZM50.888 6.13924C50.5962 6.13924 50.1177 6.29097 50.1177 6.74616H51.67C51.6583 6.29097 51.1681 6.13924 50.888 6.13924ZM52.2886 7.43478H50.1177C50.1177 8.07672 50.7363 8.18176 51.0047 8.18176C51.2031 8.18176 51.4832 8.14675 51.705 8.0417C51.775 7.99502 51.8801 7.96 51.9851 7.96C52.2186 7.96 52.417 8.15842 52.417 8.40352C52.417 8.56692 52.3119 8.70698 52.1835 8.78868C51.8567 9.03379 51.4249 9.09214 51.0164 9.09214C49.9309 9.09214 49.0322 8.50857 49.0322 7.14299C49.0322 6.06921 49.5808 5.13548 50.8646 5.13548C51.9034 5.13548 52.6854 5.81244 52.7088 7.01461C52.7088 7.23637 52.522 7.43478 52.2886 7.43478ZM55.2765 9.08047H54.9847C54.1677 9.08047 53.6892 8.71865 53.6892 7.44646V6.12757H53.409C53.1523 6.12757 52.9305 5.89414 52.9305 5.63736C52.9305 5.35725 53.1639 5.13548 53.409 5.13548H53.6892V4.12006C53.6892 3.8166 53.9226 3.5715 54.2261 3.5715C54.5178 3.5715 54.7629 3.8166 54.7629 4.12006V5.13548H55.2065C55.4632 5.13548 55.685 5.35725 55.685 5.63736C55.685 5.89414 55.4516 6.12757 55.2065 6.12757H54.7629V7.23636C54.7629 7.97167 54.798 8.1234 55.1248 8.1234H55.2765C55.5333 8.1234 55.755 8.33349 55.755 8.60194C55.755 8.85871 55.5333 9.08047 55.2765 9.08047ZM60.4703 3.96833C60.6104 4.05003 60.7388 4.24845 60.7388 4.42352C60.7388 4.70364 60.5054 4.93707 60.2369 4.93707C60.1669 4.93707 60.1085 4.91373 60.0502 4.90205C59.735 4.66862 59.3382 4.51689 58.918 4.51689C57.9259 4.51689 57.249 5.32223 57.249 6.32598C57.249 7.32974 57.9376 8.1234 58.918 8.1234C59.4082 8.1234 59.8517 7.92499 60.1786 7.60986C60.2603 7.5515 60.3653 7.51648 60.4703 7.51648C60.7388 7.51648 60.9489 7.72657 60.9489 7.99502C60.9489 8.17009 60.8438 8.32182 60.7154 8.40352C60.2369 8.81203 59.595 9.08047 58.9297 9.08047C57.4124 9.08047 56.1752 7.83161 56.1752 6.29097C56.1752 4.75032 57.4124 3.50147 58.9297 3.50147C59.4899 3.4898 60.0385 3.66487 60.4703 3.96833ZM63.1898 8.1234C63.6683 8.1234 64.0769 7.69156 64.0769 7.10798C64.0769 6.5244 63.6567 6.13924 63.1898 6.13924C62.7113 6.13924 62.3378 6.53607 62.3378 7.10798C62.3378 7.66821 62.7229 8.1234 63.1898 8.1234ZM64.3336 8.61361L64.3103 8.48522C64.1002 8.89373 63.4349 9.08047 63.0147 9.08047C62.011 9.08047 61.264 8.17009 61.264 7.08464C61.264 6.01085 62.0227 5.12381 63.0731 5.12381C63.2482 5.12381 63.8551 5.1705 64.322 5.71906L64.3453 5.59067C64.3453 5.35724 64.5204 5.1705 64.7538 5.1705C64.9872 5.1705 65.174 5.36892 65.174 5.59067V8.60194C65.174 8.83537 64.9872 9.02212 64.7538 9.02212C64.5087 9.03379 64.3336 8.83537 64.3336 8.61361ZM68.1035 8.1234C68.5821 8.1234 68.9556 7.66821 68.9556 7.10798C68.9556 6.5244 68.5704 6.13924 68.1035 6.13924C67.625 6.13924 67.2165 6.5244 67.2165 7.10798C67.2165 7.69156 67.625 8.1234 68.1035 8.1234ZM67.2165 8.76534V10.1309C67.2165 10.4344 66.9714 10.6795 66.6796 10.6795C66.3878 10.6795 66.1427 10.4344 66.1427 10.1309V5.60235C66.1427 5.36892 66.3295 5.18217 66.5629 5.18217C66.7963 5.18217 66.9714 5.38059 66.9714 5.64903C67.3682 5.24053 67.8584 5.13548 68.2319 5.13548C69.2707 5.13548 70.041 6.01085 70.041 7.09631C70.041 8.17009 69.3057 9.09214 68.2903 9.09214C67.9752 9.08047 67.5083 8.9871 67.2165 8.76534Z" fill="#2679FF"/>
</svg>
