<svg width="21" height="22" viewBox="0 0 21 22" fill="none" xmlns="http://www.w3.org/2000/svg">
<path d="M10.1959 21.8067C15.8269 21.8067 20.3918 17.149 20.3918 11.4034C20.3918 5.65774 15.8269 1 10.1959 1C4.56485 1 0 5.65774 0 11.4034C0 17.149 4.56485 21.8067 10.1959 21.8067Z" fill="#7044CF"/>
<path d="M7.05869 13.366C7.08637 13.3366 7.11965 13.3134 7.15647 13.2976C7.19329 13.2819 7.23289 13.274 7.27281 13.2744H14.7158C14.7365 13.2755 14.7568 13.2807 14.7756 13.2899C14.7943 13.299 14.811 13.3118 14.8249 13.3275C14.8387 13.3433 14.8494 13.3617 14.8562 13.3817C14.863 13.4017 14.8659 13.4229 14.8647 13.444C14.863 13.4826 14.8482 13.5194 14.8229 13.548L13.3526 15.0451C13.2958 15.1031 13.2189 15.136 13.1385 15.1366H5.6955C5.66306 15.1393 5.63062 15.1313 5.60297 15.1138C5.57532 15.0962 5.55392 15.0701 5.54193 15.0392C5.52994 15.0084 5.52799 14.9744 5.53636 14.9423C5.54474 14.9102 5.563 14.8817 5.58845 14.8609L7.05869 13.366Z" fill="white"/>
<path d="M7.05915 7.76202C7.11579 7.7036 7.19273 7.67033 7.27326 7.66943H14.7163C14.7462 7.66986 14.7753 7.67925 14.8001 7.69642C14.8249 7.7136 14.8441 7.73781 14.8555 7.76605C14.8669 7.7943 14.8699 7.82534 14.8642 7.85532C14.8585 7.8853 14.8443 7.91291 14.8233 7.93472L13.3531 9.44113C13.2963 9.49917 13.2193 9.53205 13.139 9.53267H5.69596C5.65421 9.53026 5.6151 9.51105 5.58719 9.47927C5.55929 9.44748 5.54487 9.40571 5.5471 9.3631C5.54879 9.32452 5.56356 9.28775 5.5889 9.25907L7.05915 7.76202Z" fill="white"/>
<path d="M13.3531 10.5457C13.3253 10.5164 13.292 10.4931 13.2552 10.4772C13.2185 10.4613 13.1789 10.4531 13.139 10.4531H5.69596C5.65421 10.4555 5.6151 10.4747 5.58719 10.5065C5.55929 10.5383 5.54487 10.5801 5.5471 10.6227C5.54861 10.6613 5.56342 10.6981 5.5889 10.7267L7.05915 12.2196C7.08692 12.2489 7.12019 12.2722 7.15698 12.2881C7.19376 12.304 7.23331 12.3122 7.27326 12.3122H14.7163C14.7462 12.3118 14.7753 12.3024 14.8001 12.2852C14.8249 12.268 14.8441 12.2438 14.8555 12.2156C14.8669 12.1873 14.8699 12.1563 14.8642 12.1263C14.8585 12.0963 14.8443 12.0687 14.8233 12.0469L13.3531 10.5457Z" fill="white"/>
</svg>
