<svg width="62" height="60" viewBox="0 0 62 60" fill="none" xmlns="http://www.w3.org/2000/svg">
<path d="M28.5812 0.0507106C52.7598 -1.28168 68.9752 23.9034 57.1664 44.7486C45.4892 65.3621 14.6737 65.0133 3.52681 44.1077C-6.71591 24.8967 6.47808 1.26845 28.5812 0.0507106Z" fill="#B0950A"/>
<path d="M29.0713 11.9989C53.8133 10.238 55.7521 46.9452 31.6141 48.1653C7.25968 49.3964 5.34425 13.6861 29.0713 11.9989Z" fill="#FEFEFE"/>
<path d="M32.6693 8.69928C32.1329 8.02705 33.1011 8.0174 33.1454 7.97636C33.2733 7.85688 33.7863 4.84573 33.7765 4.56694C33.7752 4.51866 33.1048 4.08539 33.5279 3.76678C33.7765 3.57971 36.6084 4.24591 36.9725 4.65625C38.0354 5.85588 36.5161 6.39053 36.4731 6.59932C36.4497 6.71276 37.5249 7.76154 36.7117 8.75963C36.1532 9.44392 32.7972 8.861 32.668 8.69928H32.6693Z" fill="#364A71"/>
<path d="M46.7896 49.9605C46.5571 50.4794 45.5311 50.3117 45.4671 50.3467C45.4118 50.378 45.1571 51.1649 44.7142 51.3629C44.4079 51.4992 44.0425 51.352 43.815 51.4461C43.3389 51.6428 43.2872 52.6735 42.196 52.6446C41.0224 52.6132 40.8981 51.0092 40.2966 50.5132C40.0025 50.2694 39.428 50.4263 39.4219 50.0353C39.4182 49.7782 40.8502 48.9177 41.0248 49.0119C41.2758 49.147 40.9043 49.6901 40.9498 49.8567C41.1393 50.5422 42.8197 52.8606 43.2232 51.2156C43.2749 51.0032 42.2784 49.3063 42.1099 49.1567C42.057 49.1096 41.2918 49.1458 41.2758 48.832C41.2697 48.7101 42.6819 47.805 42.7927 47.8207C43.3856 47.9039 42.8394 48.4989 42.8898 48.68C42.976 48.9889 43.954 50.5458 44.2923 50.5832C45.8866 50.763 44.5949 48.54 44.1114 48.0995C43.8322 47.8448 43.2392 48.0234 43.2404 47.6239C43.2404 47.426 44.7561 46.5547 44.8397 46.5993C45.0267 46.6983 44.7745 47.3234 44.8951 47.6843C44.9258 47.776 45.8706 49.2569 45.9445 49.322C46.1893 49.5344 47.0602 49.3594 46.7908 49.9617L46.7896 49.9605Z" fill="#374A70"/>
<path d="M26.2685 3.99425C26.3238 4.04735 26.4604 5.44612 26.4075 5.51129C26.3029 5.64164 25.657 5.8468 25.5242 5.75629C25.2142 5.54508 25.6238 4.17407 24.3333 5.17457C23.2827 5.98921 23.8289 8.35107 25.2363 8.45366C25.3519 8.4621 26.1147 8.37159 26.1442 8.3378C26.1811 8.29676 25.9301 7.29747 25.8859 7.26488C25.7727 7.18402 25.4159 7.32161 25.2978 7.23712C24.449 6.62162 26.7052 6.1449 26.8786 6.28973C26.966 6.36335 27.3929 8.39331 27.3584 8.50072C27.292 8.7071 26.0692 9.22968 25.8059 9.27433C22.2457 9.87536 21.4829 5.41353 23.968 4.33338C24.289 4.19338 26.0987 3.83373 26.266 3.99304L26.2685 3.99425Z" fill="#374A71"/>
<path d="M8.79309 32.8441C8.38343 33.2532 8.0648 32.4084 7.97869 32.3758C7.81999 32.3154 4.82566 32.447 4.57716 32.5085C4.07031 32.6341 4.14782 33.2858 3.81197 33.0842C3.38755 32.8284 2.93606 28.6176 5.1369 29.2488C5.39402 29.3224 5.72617 29.9536 5.96237 29.8257C6.22564 29.6833 6.48275 28.1831 8.02175 29.0738C8.75495 29.4986 8.93456 32.7016 8.79309 32.8429V32.8441Z" fill="#374A71"/>
<path d="M32.1234 50.3824C32.8689 51.1524 31.5402 51.8765 31.5722 52.9578C31.5833 53.3259 32.6462 53.6446 32.0311 54.8526C31.3951 56.1018 29.6826 55.1519 29.519 55.1833C29.332 55.2195 29.1426 56.2816 28.4721 55.8338C27.9886 55.5116 29.1131 54.9142 29.15 54.8128C29.3099 54.3808 28.7784 53.4792 29.9459 53.0472C30.1477 52.9723 31.5476 53.064 30.9375 52.5113C30.7714 52.3604 29.0282 52.8178 28.8498 51.5953C28.6234 50.0336 31.2438 49.4736 32.1221 50.3812L32.1234 50.3824Z" fill="#384B70"/>
<path d="M52.6761 42.1711C52.2308 41.4916 50.773 40.9002 49.9487 41.4059C49.7101 41.5532 49.047 42.3437 49.2044 42.6164C49.6904 43.4588 50.6007 42.7262 50.6868 42.7299C51.4557 42.7588 50.3547 44.2469 50.1972 44.271C50.0865 44.2879 48.315 43.2355 48.283 43.1293C48.1194 42.5802 49.1515 40.963 49.6535 40.6347C51.2527 39.5872 53.7845 41.0342 53.8263 42.8011C53.8399 43.384 52.9024 45.4152 52.3944 45.4996C52.2554 45.5226 51.1359 44.7357 51.1371 44.5064C51.1396 43.5566 52.0216 44.2578 52.1926 44.2855C53.0821 44.4267 53.0698 42.7733 52.6761 42.1723V42.1711Z" fill="#374A70"/>
<path d="M32.0442 3.63843C32.1266 3.72894 32.3579 5.85908 31.1412 5.30875C30.5581 5.04444 31.5755 4.01256 30.1128 4.4579C29.3144 4.70169 29.2615 5.78908 29.3365 6.47821C29.5629 8.54318 31.8916 7.60905 32.0454 7.7406C32.0737 7.76474 32.1524 8.4237 32.1205 8.46956C31.947 8.723 30.3416 8.75438 30.0143 8.70852C27.2242 8.31266 27.2599 3.70963 30.5052 3.51291C30.7094 3.50084 31.9925 3.58291 32.0442 3.63964V3.63843Z" fill="#374B70"/>
<path d="M11.8337 12.6094C12.2483 12.9304 13.7738 14.4426 14.0985 14.5621C14.4233 14.6816 15.7975 13.9731 14.5549 15.4335C14.4885 15.5107 14.1514 15.419 14.1059 15.4697C14.069 15.5107 14.0493 16.0972 13.7332 16.4943C12.4218 18.1332 9.86047 16.4086 10.3107 14.3424C10.4005 13.9285 11.0353 13.3854 11.0119 13.2418C10.9061 12.584 9.87646 13.1271 9.78911 13.045C9.62181 12.8869 10.4005 11.7235 10.4756 11.709C10.7155 11.6632 11.5901 12.4199 11.8337 12.6082V12.6094Z" fill="#374B70"/>
<path d="M36.8411 50.7037C37.1339 50.9909 36.4561 51.4278 36.4757 51.8345C36.4819 51.9733 36.8829 53.8102 36.9481 53.8935C37.0613 54.0371 37.3615 53.9092 37.4304 53.9828C38.3088 54.9 36.2949 54.5343 36.0661 54.5886C35.4793 54.7274 35.0868 55.5469 34.1445 54.9785C33.4014 54.5307 33.5835 52.3897 33.2563 52.0482C33.196 51.9854 32.8491 52.0832 32.7113 51.9202C32.1442 51.254 34.5554 51.137 34.6255 51.3699C34.7411 51.7513 34.2257 51.779 34.1765 51.9625C34.0891 52.2895 34.5431 54.3183 35.168 54.3243C36.3318 54.3364 35.8729 52.1821 35.5888 51.7525C35.3673 51.4182 34.7153 51.6897 35.0106 51.1394C35.1016 50.9692 36.7747 50.6385 36.8411 50.7037Z" fill="#384B70"/>
<path d="M16.4043 46.3748C16.7131 46.9963 15.74 46.7477 15.6772 46.7827C15.2381 47.0277 13.4518 49.1011 14.9157 49.3522C15.4078 49.4366 16.6639 48.0379 16.7488 47.6867C16.7906 47.5165 16.4215 46.977 16.6713 46.8407C16.8755 46.7284 18.4194 47.8653 18.2681 48.1067C18.0811 48.4048 17.6284 48.208 17.4118 48.3529C17.1953 48.4977 16.0808 49.7866 16.0008 49.9846C15.8913 50.2525 16.5581 51.7249 15.0621 50.4082C14.9145 50.2778 14.9908 49.9303 14.9305 49.8747C14.7509 49.7094 13.2119 49.6623 13.2267 48.6015C13.2353 47.9377 14.746 46.7489 14.8924 46.3519C14.9613 46.166 14.5651 45.4081 15.1323 45.3984C15.2135 45.3972 16.3686 46.3024 16.4031 46.3736L16.4043 46.3748Z" fill="#374A70"/>
<path d="M21.4871 53.4936C21.6002 53.4188 22.3076 53.5612 22.3347 53.6022C22.4294 53.7422 21.4059 54.8417 23.0162 54.7838C24.3719 54.7343 25.1285 52.7441 24.4863 51.6724C24.0274 50.9073 22.4429 50.9374 22.3543 50.8071C21.6913 49.8332 23.9216 50.3509 24.3903 50.5597C26.8188 51.6423 25.671 55.8941 22.6742 55.5006C22.3851 55.4632 21.0565 54.9769 21.0159 54.75C21.0036 54.6836 21.4305 53.5322 21.4871 53.4948V53.4936Z" fill="#384B70"/>
<path d="M46.0374 45.358C46.5442 44.8065 47.1077 43.2122 48.408 44.3672C49.6001 45.4268 47.5161 46.4345 47.7818 46.9016C48.4277 48.0361 49.4906 46.0507 49.6973 46.023C50.7626 45.8782 49.199 48.2473 48.1152 48.1676C47.302 48.1085 46.4064 46.5854 45.8184 46.4104C45.5502 46.3307 45.2193 46.84 45.0175 46.3561C44.8158 45.8721 45.8799 45.5294 46.0362 45.358H46.0374Z" fill="#374B70"/>
<path d="M10.3048 20.4363C11.6851 19.9741 10.2236 21.7289 10.1855 21.823C10.0551 22.1453 10.2286 22.5013 9.93946 23.0299C9.34896 24.1089 7.56515 23.8433 7.70416 22.4156C7.73738 22.0765 8.83103 19.9729 7.20839 21.076C6.6794 21.4356 6.83809 22.2225 6.65479 22.4639C5.87361 23.4861 5.79857 19.7315 7.74722 19.9295C8.16057 19.9717 9.69587 20.7948 9.9862 20.7706C10.2605 20.7489 10.2482 20.4556 10.3061 20.4363H10.3048Z" fill="#374B70"/>
<path d="M6.30925 24.1811C10.1413 23.504 9.92729 28.8046 6.46548 27.8282C4.40734 27.2477 4.56358 24.49 6.30925 24.1811Z" fill="#374B70"/>
<path d="M10.7262 41.0071C9.04451 43.381 5.25916 40.6353 7.44155 38.6898C9.49846 36.8578 11.9724 39.2462 10.7262 41.0071Z" fill="#374B70"/>
<path d="M19.1047 48.8022C22.3586 48.2121 21.9034 52.8163 19.4467 52.8622C16.7415 52.9129 17.0539 49.174 19.1047 48.8022Z" fill="#374B70"/>
<path d="M49.0432 18.7016C48.8131 18.6111 48.6495 17.7108 48.5905 17.6408C48.1205 17.0941 47.1585 17.1061 47.4304 15.8908C47.5817 15.2125 49.2744 14.4993 49.5291 14.0829C49.7198 13.7703 49.379 13.0667 49.8256 13.1705C49.8846 13.1838 50.5354 13.9779 50.4924 14.1734C50.3693 14.725 47.5731 15.6072 48.1599 16.738C48.7467 17.8689 50.7199 16.382 51.0078 15.892C51.1813 15.5963 50.87 15.0086 51.18 14.9844C51.2452 14.9796 52.0031 15.8896 51.9797 16.0018C51.9305 16.2444 49.6041 17.5913 49.3864 17.934C49.24 18.1646 49.7838 18.9949 49.0444 18.7028L49.0432 18.7016Z" fill="#394C6F"/>
<path d="M48.8655 12.2855C47.4261 13.1918 48.7658 11.4081 48.7621 11.32C48.7117 10.0817 46.3263 10.2109 45.4602 11.4201C43.845 13.6746 46.4296 14.0572 46.6892 14.6196C47.1592 15.643 44.2878 14.3154 44.2276 12.6174C44.1845 11.425 45.5377 9.88982 46.7544 9.78724C48.0929 9.675 50.6419 11.1643 48.8667 12.2831L48.8655 12.2855Z" fill="#384B6F"/>
<path d="M55.8726 32.5617C55.0287 33.065 53.347 32.3795 52.7922 32.6185C52.5744 32.7126 52.54 33.6081 52.2226 33.2062C51.9913 32.9129 52.4391 32.0259 52.4391 31.8376C52.4391 31.169 51.7834 29.8209 53.3002 29.6073C55.3067 29.3249 54.0777 31.9354 54.9856 32.0066C56.3573 32.1152 55.415 29.7654 56.0941 29.9464C56.5099 30.0575 56.5443 32.1598 55.8714 32.5605L55.8726 32.5617Z" fill="#394C6E"/>
<path d="M55.786 27.7726C56.6102 26.9072 53.7426 25.0245 52.8483 26.6405C52.4558 27.3489 53.3453 30.558 52.0954 27.7738C51.5332 27.9379 51.8358 28.895 50.8676 28.4363C50.1922 28.1153 50.5662 26.27 50.8074 26.8058C50.9808 27.1896 50.6806 27.7376 51.174 28.0127C52.3943 26.9543 52.2627 25.2369 54.3639 25.3576C56.3002 25.4686 57.2684 28.7441 55.1082 28.5075C54.9556 28.4907 54.744 28.4798 54.6813 28.3157C54.4574 27.7291 55.7393 27.822 55.786 27.7726Z" fill="#3A4C6E"/>
<path d="M52.2501 24.5325C52.212 24.582 52.0434 25.9904 51.6694 24.8789C51.5243 24.4493 51.7642 24.0872 51.7383 23.9822C51.7162 23.8953 51.0359 23.526 51.0088 22.7452C50.9645 21.5057 52.3916 20.784 53.1974 22.0548C53.543 22.5991 53.2773 23.4922 54.0843 23.2545C55.1805 22.931 54.0142 21.2884 54.0733 21.076C54.2861 20.3145 55.5409 22.1236 55.087 23.275C54.756 24.115 52.506 24.2067 52.2489 24.5337L52.2501 24.5325Z" fill="#394C6F"/>
<path d="M52.8098 33.9601C56.5029 33.1792 56.6431 38.6005 52.9586 37.4974C51.042 36.923 51.2019 34.3004 52.8098 33.9601Z" fill="#394C6F"/>
<path d="M9.15114 36.844C8.93954 36.8199 5.25137 37.7588 5.12835 37.9242C5.0447 38.0376 5.16526 38.4612 5.11359 38.5155C4.7433 38.9102 4.11712 37.4499 4.13311 37.3678C4.19954 37.0359 8.63322 36.173 8.79807 35.9739C8.86819 35.8882 8.75378 35.432 8.80545 35.3764C9.27416 34.8756 10.0898 37.019 9.60262 37.1856C9.24832 37.3075 9.18681 36.8476 9.15114 36.844Z" fill="#384B70"/>
<path d="M12.3659 47.6809C12.2171 47.9875 11.7459 47.4552 11.5946 47.4625C11.3694 47.4721 10.8171 48.0828 10.4566 47.8149C9.92272 47.4166 10.9659 47.0485 10.9844 46.7794C10.9905 46.6877 10.3115 45.9599 10.9709 45.8827C11.2206 45.8537 11.4051 46.3148 11.5663 46.3256C11.6918 46.3353 13.371 44.7856 13.4177 44.6625C13.5924 44.1979 13.0794 44.1556 13.1139 43.8986C13.2086 43.1757 14.5089 43.9384 14.3158 44.9389C14.178 45.6546 12.5098 46.4668 12.3044 46.9628C12.2109 47.1897 12.452 47.5059 12.3659 47.6821V47.6809Z" fill="#384B6F"/>
<path d="M10.407 45.2698C10.1806 45.685 9.36377 44.8064 9.32072 44.5927C9.27766 44.3791 9.58398 44.1474 9.54708 44.0702C9.51632 44.0062 8.24675 43.69 8.44235 43.2266C8.45957 43.1867 9.13496 42.8367 9.22845 42.8512C9.30718 42.8645 9.723 43.7781 10.1979 43.6924C10.2963 43.6743 11.8033 42.6798 11.8636 42.6014C12.1281 42.255 11.5769 42.1187 11.6397 41.9581C12.0173 40.9963 13.2402 43.1433 13.2229 43.2652C13.1233 43.9519 12.491 43.2459 12.4393 43.2435C12.3114 43.2386 10.3959 44.559 10.3406 44.6724C10.2421 44.8776 10.4734 45.1467 10.407 45.2698Z" fill="#384B6F"/>
<path d="M9.30753 17.7395C9.3555 17.8216 10.881 18.6905 10.9757 18.7086C11.3386 18.7774 11.6339 18.0714 11.9365 18.4793C12.1013 18.7014 11.1172 20.2015 11.0138 20.2389C10.3261 20.4876 10.7284 19.6138 10.7087 19.5667C10.6608 19.4521 8.67274 18.3152 8.54972 18.285C8.30614 18.2259 6.80405 18.8945 8.21141 17.3026C8.28646 17.2181 8.64322 17.3074 8.67028 17.2749C8.70965 17.2278 8.6752 16.1561 8.79576 16.068C8.94339 15.9594 9.60524 16.2949 9.64215 16.5061C9.66798 16.6545 9.07625 17.3473 9.3063 17.7407L9.30753 17.7395Z" fill="#384B70"/>
<path d="M39.0407 50.4392C39.0308 50.4935 38.7233 50.4658 38.7073 50.7361C38.6999 50.8616 39.4454 53.0497 39.5537 53.1173C39.6214 53.1595 40.2192 52.7456 40.1762 53.419C40.1614 53.6519 39.1157 53.9959 39.0112 53.9705C38.7073 53.8969 38.091 51.2527 37.8437 51.0149C37.5743 50.7566 37.1548 51.2309 37.2077 50.6347C37.2188 50.5129 39.2621 49.2698 39.0407 50.438V50.4392Z" fill="#384B70"/>
<path d="M53.0867 18.7181C53.1211 18.7845 54.4522 19.1405 53.9478 19.7464C53.4803 20.3088 52.9981 18.8798 52.6573 18.8641C52.5392 18.8593 50.6201 19.8248 50.5561 19.9226C50.4073 20.1483 50.8009 20.8229 50.4393 20.8905C50.1748 20.94 49.3345 19.3071 49.3936 19.1429C49.4908 18.8738 50.0616 19.3191 50.192 19.3095C50.4147 19.2938 52.5072 18.2897 52.5995 18.1726C52.784 17.9409 52.4568 17.4207 52.7779 17.393C53.5406 17.3278 53.051 18.6481 53.0854 18.7157L53.0867 18.7181Z" fill="#3A4C6E"/>
<path d="M40.7515 7.87962C42.3852 7.5791 42.6755 10.1811 41.0812 10.2704C39.68 10.3489 39.5041 8.10892 40.7515 7.87962Z" fill="#FDFCFA"/>
<path d="M19.8327 8.86036C20.8427 10.0926 18.7747 11.6157 17.9665 10.27C17.1054 8.83743 19.038 7.89003 19.8327 8.86036Z" fill="#FDFCF9"/>
<path d="M41.1984 17.1159C58.3057 30.6389 38.2717 56.209 20.5026 43.6334C1.94732 30.5013 23.0442 2.7661 41.1984 17.1159Z" fill="#364A72"/>
<path d="M34.6352 6.78274C35.2183 6.30844 36.4891 7.59014 35.5418 8.2141C34.0459 9.20012 34.4555 6.92877 34.6352 6.78274Z" fill="#AE940C"/>
<path d="M35.8227 6.00983C34.7278 6.84499 34.681 4.99123 34.9997 4.71968C35.3527 4.41917 36.7281 5.3195 35.8227 6.00983Z" fill="#A28C16"/>
<path d="M6.21357 31.5141C5.53818 30.8479 7.18789 28.8396 7.94447 30.2384C8.85236 31.9147 6.31813 31.6179 6.21357 31.5141Z" fill="#A99110"/>
<path d="M5.58257 31.4987C5.50507 31.6097 3.90088 32.1335 4.13216 30.7383C4.35482 29.3902 6.26041 30.5307 5.58257 31.4987Z" fill="#AA920F"/>
<path d="M31.162 53.6334C31.8423 54.325 30.6625 55.5137 30.0757 54.6375C29.5701 53.8832 30.6637 53.1265 31.162 53.6334Z" fill="#AA920F"/>
<path d="M30.4128 50.6065C31.6184 50.3458 32.1105 51.7506 30.633 51.6698C29.5627 51.6107 29.5935 50.7839 30.4128 50.6065Z" fill="#AB920F"/>
<path d="M11.5783 13.6641C11.7222 13.6509 13.6192 15.2053 13.5405 15.5879C13.2673 16.9215 10.6888 15.8679 10.93 14.4945C10.9693 14.2736 11.3864 13.6835 11.5783 13.6654V13.6641Z" fill="#AE940B"/>
<path d="M47.4155 46.3408C46.9985 46.5097 45.9651 45.5503 46.9788 44.9504C48.1807 44.2384 48.161 46.039 47.4155 46.3408Z" fill="#AA920F"/>
<path d="M9.26035 22.7943C7.96494 23.3627 8.31431 21.4257 8.67722 21.2555C9.35261 20.9393 10.1719 22.3948 9.26035 22.7943Z" fill="#A99110"/>
<path d="M6.30617 25.0201C8.32248 24.6158 9.52563 27.1623 7.15748 27.0368C5.51392 26.9487 4.98862 25.2844 6.30617 25.0201Z" fill="#AF940B"/>
<path d="M9.35514 38.9415C11.1672 38.9572 10.2729 40.6794 9.05374 40.9896C6.82706 41.5568 7.2318 38.9222 9.35514 38.9415Z" fill="#AF950B"/>
<path d="M19.5892 49.3923C21.3484 49.1099 20.411 52.3841 18.9741 52.1295C17.5569 51.8772 18.7293 49.5311 19.5892 49.3923Z" fill="#AF940B"/>
<path d="M52.8566 31.8571C52.522 31.6169 52.6893 30.3907 53.3118 30.2507C54.2283 30.0443 54.43 31.4745 54.1348 31.8824C54.0142 32.0502 52.9082 31.8945 52.8566 31.8571Z" fill="#A99110"/>
<path d="M53.2064 23.5448C53.06 23.7547 51.8384 24.118 51.6367 23.2201C51.1225 20.9391 53.7834 22.7192 53.2064 23.5448Z" fill="#A89011"/>
<path d="M54.7621 35.0497C56.9962 36.965 51.6091 37.9474 52.1024 35.3224C52.2919 34.3135 54.2049 34.5729 54.7621 35.0497Z" fill="#B0950B"/>
<path d="M29.962 40.5676C29.2706 39.9304 30.9892 40.3419 31.1627 39.6383C31.2291 39.3668 31.239 34.6129 31.0692 34.4125C30.9954 34.3257 29.3334 34.9158 28.8019 34.8965C23.5674 34.7046 23.4025 23.64 29.1661 23.6641C29.5105 23.6653 31.0532 23.8982 31.2057 24.1106C31.4149 24.4003 31.4616 27.3463 30.9486 26.9287C30.5623 26.6149 30.7272 23.9936 28.706 24.177C25.329 24.4848 25.5 35.197 29.4059 34.2858C30.6964 33.9853 31.5527 30.5457 30.737 30.2126C30.229 30.0038 29.8168 30.5747 29.9632 29.5838C32.5258 30.0702 38.3299 28.2925 37.4368 32.8738C37.1993 34.0939 35.6899 34.3124 35.7465 34.4705C35.7858 34.5815 37.3396 35.2272 37.7136 35.7992C38.7937 37.4551 37.7209 40.5664 35.6837 40.5664C34.9321 40.5664 30.1724 40.7583 29.9632 40.5664L29.962 40.5676Z" fill="#FEFEFE"/>
<path d="M35.2503 18.7185C35.1912 18.7789 34.2956 18.0608 33.7125 17.9968C27.0829 17.2703 18.9758 30.4904 22.1608 35.8453C22.2875 36.0577 23.4316 36.7891 22.6664 36.678C20.879 36.421 20.083 34.0652 19.9895 32.5445C19.6414 26.8637 26.3718 15.5432 33.186 17.3053C33.4615 17.3765 35.4766 18.4916 35.2503 18.7185Z" fill="#FEFEFE"/>
<path d="M34.7565 28.0121C34.5043 28.2474 33.279 27.3833 33.1658 26.8595C32.7832 25.0999 34.2976 23.1967 33.5521 20.5669C33.3356 19.8053 31.7732 17.9745 33.6407 19.2731C36.6214 21.3477 34.6088 24.6159 34.5006 26.9911C34.487 27.3 34.818 27.9566 34.7565 28.0133V28.0121Z" fill="#FDFDFD"/>
<path d="M25.2808 37.1869C25.4063 37.3438 23.8218 38.8717 23.6582 39.1541C23.2264 39.9024 23.4872 40.5094 23.4355 40.5637C23.2104 40.8015 21.4869 39.6477 21.7354 38.7233C22.0897 38.5664 23.1034 37.0131 23.2067 36.9624C23.3199 36.9081 25.2156 37.106 25.2808 37.1869Z" fill="#FCFCFC"/>
<path d="M27.253 35.856C25.6341 36.2434 24.0643 36.3243 23.0703 34.7734C24.72 34.9279 26.0216 34.4391 27.253 35.856Z" fill="#FAFAFB"/>
<path d="M37.3433 23.9083C37.6595 24.1992 36.9866 24.3139 36.9128 24.3851C36.4244 24.863 35.9397 25.4652 35.375 25.8369C35.6235 25.5135 35.7847 23.737 35.8794 23.6766C35.9421 23.6368 37.2892 23.8589 37.3433 23.9083Z" fill="#F5F5F7"/>
<path d="M32.9287 34.9066C32.968 34.8499 33.6803 34.7594 33.8341 34.7618C37.184 34.804 37.0413 40.6501 33.6434 39.9079C33.3765 39.85 33.0517 39.821 32.9385 39.5144C32.8586 39.2984 32.7958 35.0961 32.9287 34.9066Z" fill="#374A72"/>
<path d="M35.1937 33.6419C34.8247 34.039 33.325 34.6448 32.9547 34.1766C32.8317 34.0209 32.8502 30.364 33.0162 30.2385C33.1995 30.1009 34.319 30.1806 34.6044 30.2651C35.9921 30.6742 36.0327 32.7404 35.1937 33.6407V33.6419Z" fill="#364A72"/>
</svg>
